<ttFont>
<head>
    <!-- Most of this table will be recalculated by the compiler -->
    <tableVersion value="1.0"/>
    <fontRevision value="2.0"/>
    <checkSumAdjustment value="0xe4a589eb"/>
    <magicNumber value="0x5f0f3cf5"/>
    <flags value="00000000 00011111"/>
    <unitsPerEm value="2048"/>
    <created value="Mon Apr 14 23:02:51 2003"/>
    <modified value="Wed Apr 16 02:10:13 2003"/>
    <xMin value="-10"/>
    <yMin value="-483"/>
    <xMax value="1241"/>
    <yMax value="1901"/>
    <macStyle value="00000000 00000000"/>
    <lowestRecPPEM value="8"/>
    <fontDirectionHint value="1"/>
    <indexToLocFormat value="0"/>
    <glyphDataFormat value="0"/>
  </head>
    <TTGlyph name=".notdef" xMin="104" yMin="-362" xMax="1128" yMax="1444">
      <contour>
        <pt x="104" y="-362" on="1"/>
        <pt x="104" y="1444" on="1"/>
        <pt x="1128" y="1444" on="1"/>
        <pt x="1128" y="-362" on="1"/>
      </contour>
      <contour>
        <pt x="219" y="-248" on="1"/>
        <pt x="1014" y="-248" on="1"/>
        <pt x="1014" y="1329" on="1"/>
        <pt x="219" y="1329" on="1"/>
      </contour>
    </TTGlyph>
    <TTGlyph name="A" xMin="37" yMin="0" xMax="1196" yMax="1493">
      <contour>
        <pt x="616" y="1315" on="1"/>
        <pt x="403" y="551" on="1"/>
        <pt x="829" y="551" on="1"/>
      </contour>
      <contour>
        <pt x="494" y="1493" on="1"/>
        <pt x="739" y="1493" on="1"/>
        <pt x="1196" y="0" on="1"/>
        <pt x="987" y="0" on="1"/>
        <pt x="877" y="389" on="1"/>
        <pt x="354" y="389" on="1"/>
        <pt x="246" y="0" on="1"/>
        <pt x="37" y="0" on="1"/>
      </contour>
    </TTGlyph>
    <TTGlyph name="AE" xMin="0" yMin="0" xMax="1180" yMax="1493">
      <contour>
        <pt x="1161" y="1493" on="1"/>
        <pt x="1161" y="1323" on="1"/>
        <pt x="823" y="1323" on="1"/>
        <pt x="823" y="881" on="1"/>
        <pt x="1130" y="881" on="1"/>
        <pt x="1130" y="711" on="1"/>
        <pt x="823" y="711" on="1"/>
        <pt x="823" y="170" on="1"/>
        <pt x="1180" y="170" on="1"/>
        <pt x="1180" y="0" on="1"/>
        <pt x="637" y="0" on="1"/>
        <pt x="637" y="383" on="1"/>
        <pt x="285" y="383" on="1"/>
        <pt x="184" y="0" on="1"/>
        <pt x="0" y="0" on="1"/>
        <pt x="410" y="1493" on="1"/>
      </contour>
      <contour>
        <pt x="530" y="1323" on="1"/>
        <pt x="328" y="551" on="1"/>
        <pt x="637" y="551" on="1"/>
        <pt x="637" y="1323" on="1"/>
      </contour>
    </TTGlyph>
    <TTGlyph name="Aacute" xMin="37" yMin="0" xMax="1196" yMax="1899">
      <component glyphName="A" x="0" y="0" flags="0x4"/>
      <component glyphName="c6460" x="0" y="373" flags="0x4"/>
    </TTGlyph>
    <TTGlyph name="Acircumflex" xMin="37" yMin="0" xMax="1196" yMax="1901">
      <component glyphName="A" x="0" y="0" flags="0x4"/>
      <component glyphName="c6470" x="0" y="373" flags="0x4"/>
    </TTGlyph>
    <TTGlyph name="Adieresis" xMin="37" yMin="0" xMax="1196" yMax="1870">
      <component glyphName="A" x="0" y="0" flags="0x4"/>
      <component glyphName="c6459" x="0" y="373" flags="0x4"/>
    </TTGlyph>
    <TTGlyph name="Agrave" xMin="37" yMin="0" xMax="1196" yMax="1899">
      <component glyphName="A" x="0" y="0" flags="0x4"/>
      <component glyphName="c6468" x="0" y="373" flags="0x4"/>
    </TTGlyph>
    <TTGlyph name="Aring" xMin="37" yMin="0" xMax="1196" yMax="1901">
      <contour>
        <pt x="768" y="1626" on="1"/>
        <pt x="768" y="1689" on="0"/>
        <pt x="679" y="1778" on="0"/>
        <pt x="616" y="1778" on="1"/>
        <pt x="552" y="1778" on="0"/>
        <pt x="465" y="1691" on="0"/>
        <pt x="465" y="1626" on="1"/>
        <pt x="465" y="1563" on="0"/>
        <pt x="553" y="1475" on="0"/>
        <pt x="616" y="1475" on="1"/>
        <pt x="679" y="1475" on="0"/>
        <pt x="768" y="1563" on="0"/>
      </contour>
      <contour>
        <pt x="616" y="1311" on="1"/>
        <pt x="403" y="551" on="1"/>
        <pt x="829" y="551" on="1"/>
      </contour>
      <contour>
        <pt x="465" y="1399" on="1"/>
        <pt x="407" y="1432" on="0"/>
        <pt x="342" y="1553" on="0"/>
        <pt x="342" y="1626" on="1"/>
        <pt x="342" y="1740" on="0"/>
        <pt x="502" y="1901" on="0"/>
        <pt x="616" y="1901" on="1"/>
        <pt x="730" y="1901" on="0"/>
        <pt x="891" y="1740" on="0"/>
        <pt x="891" y="1626" on="1"/>
        <pt x="891" y="1553" on="0"/>
        <pt x="827" y="1435" on="0"/>
        <pt x="768" y="1399" on="1"/>
        <pt x="1196" y="0" on="1"/>
        <pt x="987" y="0" on="1"/>
        <pt x="877" y="389" on="1"/>
        <pt x="354" y="389" on="1"/>
        <pt x="246" y="0" on="1"/>
        <pt x="37" y="0" on="1"/>
      </contour>
    </TTGlyph>
    <TTGlyph name="Atilde" xMin="37" yMin="0" xMax="1196" yMax="1886">
      <component glyphName="A" x="0" y="0" flags="0x4"/>
      <component glyphName="c6461" x="0" y="373" flags="0x4"/>
    </TTGlyph>
    <TTGlyph name="B" xMin="166" yMin="0" xMax="1137" yMax="1493">
      <contour>
        <pt x="369" y="713" on="1"/>
        <pt x="369" y="166" on="1"/>
        <pt x="608" y="166" on="1"/>
        <pt x="784" y="166" on="0"/>
        <pt x="934" y="289" on="0"/>
        <pt x="934" y="430" on="1"/>
        <pt x="934" y="576" on="0"/>
        <pt x="776" y="713" on="0"/>
        <pt x="608" y="713" on="1"/>
      </contour>
      <contour>
        <pt x="369" y="1327" on="1"/>
        <pt x="369" y="877" on="1"/>
        <pt x="604" y="877" on="1"/>
        <pt x="750" y="877" on="0"/>
        <pt x="881" y="989" on="0"/>
        <pt x="881" y="1114" on="1"/>
        <pt x="881" y="1227" on="0"/>
        <pt x="752" y="1327" on="0"/>
        <pt x="604" y="1327" on="1"/>
      </contour>
      <contour>
        <pt x="166" y="1493" on="1"/>
        <pt x="608" y="1493" on="1"/>
        <pt x="837" y="1493" on="0"/>
        <pt x="1085" y="1295" on="0"/>
        <pt x="1085" y="1114" on="1"/>
        <pt x="1085" y="977" on="0"/>
        <pt x="954" y="819" on="0"/>
        <pt x="823" y="799" on="1"/>
        <pt x="970" y="777" on="0"/>
        <pt x="1137" y="570" on="0"/>
        <pt x="1137" y="410" on="1"/>
        <pt x="1137" y="207" on="0"/>
        <pt x="871" y="0" on="0"/>
        <pt x="608" y="0" on="1"/>
        <pt x="166" y="0" on="1"/>
      </contour>
    </TTGlyph>
    <TTGlyph name="C" xMin="139" yMin="-29" xMax="1073" yMax="1520">
      <contour>
        <pt x="1073" y="53" on="1"/>
        <pt x="996" y="12" on="0"/>
        <pt x="834" y="-29" on="0"/>
        <pt x="743" y="-29" on="1"/>
        <pt x="456" y="-29" on="0"/>
        <pt x="139" y="377" on="0"/>
        <pt x="139" y="745" on="1"/>
        <pt x="139" y="1111" on="0"/>
        <pt x="458" y="1520" on="0"/>
        <pt x="743" y="1520" on="1"/>
        <pt x="834" y="1520" on="0"/>
        <pt x="996" y="1479" on="0"/>
        <pt x="1073" y="1438" on="1"/>
        <pt x="1073" y="1231" on="1"/>
        <pt x="999" y="1292" on="0"/>
        <pt x="829" y="1356" on="0"/>
        <pt x="743" y="1356" on="1"/>
        <pt x="546" y="1356" on="0"/>
        <pt x="350" y="1052" on="0"/>
        <pt x="350" y="745" on="1"/>
        <pt x="350" y="439" on="0"/>
        <pt x="546" y="135" on="0"/>
        <pt x="743" y="135" on="1"/>
        <pt x="831" y="135" on="0"/>
        <pt x="1000" y="199" on="0"/>
        <pt x="1073" y="260" on="1"/>
      </contour>
    </TTGlyph>
    <TTGlyph name="Cacute" xMin="139" yMin="-29" xMax="1073" yMax="1899">
      <component glyphName="C" x="0" y="0" flags="0x4"/>
      <component glyphName="c6460" x="90" y="373" flags="0x4"/>
    </TTGlyph>
    <TTGlyph name="Ccaron" xMin="139" yMin="-29" xMax="1073" yMax="1901">
      <component glyphName="C" x="0" y="0" flags="0x4"/>
      <component glyphName="c6472" x="90" y="373" flags="0x4"/>
    </TTGlyph>
    <TTGlyph name="Ccedilla" xMin="139" yMin="-395" xMax="1073" yMax="1520">
      <component glyphName="C" x="0" y="0" flags="0x4"/>
      <component glyphName="cedilla" x="100" y="0" flags="0x4"/>
    </TTGlyph>
    <TTGlyph name="D" xMin="137" yMin="0" xMax="1106" yMax="1493">
      <contour>
        <pt x="436" y="166" on="1"/>
        <pt x="691" y="166" on="0"/>
        <pt x="893" y="417" on="0"/>
        <pt x="893" y="745" on="1"/>
        <pt x="893" y="1076" on="0"/>
        <pt x="692" y="1327" on="0"/>
        <pt x="436" y="1327" on="1"/>
        <pt x="340" y="1327" on="1"/>
        <pt x="340" y="166" on="1"/>
      </contour>
      <contour>
        <pt x="440" y="1493" on="1"/>
        <pt x="782" y="1493" on="0"/>
        <pt x="1106" y="1129" on="0"/>
        <pt x="1106" y="745" on="1"/>
        <pt x="1106" y="363" on="0"/>
        <pt x="782" y="0" on="0"/>
        <pt x="440" y="0" on="1"/>
        <pt x="137" y="0" on="1"/>
        <pt x="137" y="1493" on="1"/>
      </contour>
    </TTGlyph>
    <TTGlyph name="Delta" xMin="-6" yMin="0" xMax="1241" yMax="1423">
      <contour>
        <pt x="-6" y="0" on="1"/>
        <pt x="512" y="1423" on="1"/>
        <pt x="721" y="1423" on="1"/>
        <pt x="1241" y="0" on="1"/>
      </contour>
      <contour>
        <pt x="616" y="1219" on="1"/>
        <pt x="248" y="172" on="1"/>
        <pt x="985" y="172" on="1"/>
      </contour>
    </TTGlyph>
    <TTGlyph name="E" xMin="197" yMin="0" xMax="1102" yMax="1493">
      <contour>
        <pt x="197" y="1493" on="1"/>
        <pt x="1083" y="1493" on="1"/>
        <pt x="1083" y="1323" on="1"/>
        <pt x="399" y="1323" on="1"/>
        <pt x="399" y="881" on="1"/>
        <pt x="1053" y="881" on="1"/>
        <pt x="1053" y="711" on="1"/>
        <pt x="399" y="711" on="1"/>
        <pt x="399" y="170" on="1"/>
        <pt x="1102" y="170" on="1"/>
        <pt x="1102" y="0" on="1"/>
        <pt x="197" y="0" on="1"/>
      </contour>
    </TTGlyph>
    <TTGlyph name="Eacute" xMin="197" yMin="0" xMax="1102" yMax="1899">
      <component glyphName="E" x="0" y="0" flags="0x4"/>
      <component glyphName="c6460" x="18" y="373" flags="0x4"/>
    </TTGlyph>
    <TTGlyph name="Ecircumflex" xMin="197" yMin="0" xMax="1102" yMax="1901">
      <component glyphName="E" x="0" y="0" flags="0x4"/>
      <component glyphName="c6470" x="18" y="373" flags="0x4"/>
    </TTGlyph>
    <TTGlyph name="Edieresis" xMin="197" yMin="0" xMax="1102" yMax="1870">
      <component glyphName="E" x="0" y="0" flags="0x4"/>
      <component glyphName="c6459" x="18" y="373" flags="0x4"/>
    </TTGlyph>
    <TTGlyph name="Egrave" xMin="197" yMin="0" xMax="1102" yMax="1899">
      <component glyphName="E" x="0" y="0" flags="0x4"/>
      <component glyphName="c6468" x="18" y="373" flags="0x4"/>
    </TTGlyph>
    <TTGlyph name="Eth" xMin="8" yMin="0" xMax="1102" yMax="1493">
      <contour>
        <pt x="436" y="1493" on="1"/>
        <pt x="778" y="1493" on="0"/>
        <pt x="1102" y="1129" on="0"/>
        <pt x="1102" y="745" on="1"/>
        <pt x="1102" y="363" on="0"/>
        <pt x="777" y="0" on="0"/>
        <pt x="436" y="0" on="1"/>
        <pt x="133" y="0" on="1"/>
        <pt x="133" y="709" on="1"/>
        <pt x="8" y="709" on="1"/>
        <pt x="8" y="858" on="1"/>
        <pt x="133" y="858" on="1"/>
        <pt x="133" y="1493" on="1"/>
      </contour>
      <contour>
        <pt x="436" y="166" on="1"/>
        <pt x="691" y="166" on="0"/>
        <pt x="893" y="417" on="0"/>
        <pt x="893" y="745" on="1"/>
        <pt x="893" y="1076" on="0"/>
        <pt x="692" y="1327" on="0"/>
        <pt x="436" y="1327" on="1"/>
        <pt x="340" y="1327" on="1"/>
        <pt x="340" y="858" on="1"/>
        <pt x="604" y="858" on="1"/>
        <pt x="604" y="709" on="1"/>
        <pt x="340" y="709" on="1"/>
        <pt x="340" y="166" on="1"/>
      </contour>
    </TTGlyph>
    <TTGlyph name="Euro" xMin="37" yMin="-29" xMax="1061" yMax="1520">
      <contour>
        <pt x="211" y="948" on="1"/>
        <pt x="259" y="1231" on="0"/>
        <pt x="533" y="1520" on="0"/>
        <pt x="756" y="1520" on="1"/>
        <pt x="840" y="1520" on="0"/>
        <pt x="987" y="1480" on="0"/>
        <pt x="1061" y="1438" on="1"/>
        <pt x="1061" y="1231" on="1"/>
        <pt x="995" y="1292" on="0"/>
        <pt x="836" y="1360" on="0"/>
        <pt x="758" y="1360" on="1"/>
        <pt x="612" y="1360" on="0"/>
        <pt x="438" y="1152" on="0"/>
        <pt x="414" y="948" on="1"/>
        <pt x="895" y="948" on="1"/>
        <pt x="846" y="840" on="1"/>
        <pt x="404" y="840" on="1"/>
        <pt x="402" y="820" on="0"/>
        <pt x="401" y="775" on="0"/>
        <pt x="401" y="729" on="1"/>
        <pt x="401" y="714" on="0"/>
        <pt x="402" y="676" on="0"/>
        <pt x="403" y="653" on="1"/>
        <pt x="764" y="653" on="1"/>
        <pt x="715" y="543" on="1"/>
        <pt x="414" y="543" on="1"/>
        <pt x="437" y="340" on="0"/>
        <pt x="611" y="131" on="0"/>
        <pt x="758" y="131" on="1"/>
        <pt x="837" y="131" on="0"/>
        <pt x="994" y="198" on="0"/>
        <pt x="1061" y="260" on="1"/>
        <pt x="1061" y="53" on="1"/>
        <pt x="989" y="11" on="0"/>
        <pt x="841" y="-29" on="0"/>
        <pt x="756" y="-29" on="1"/>
        <pt x="530" y="-29" on="0"/>
        <pt x="255" y="259" on="0"/>
        <pt x="211" y="543" on="1"/>
        <pt x="37" y="543" on="1"/>
        <pt x="86" y="653" on="1"/>
        <pt x="203" y="653" on="1"/>
        <pt x="202" y="665" on="0"/>
        <pt x="201" y="685" on="1"/>
        <pt x="199" y="730" on="0"/>
        <pt x="199" y="745" on="1"/>
        <pt x="199" y="763" on="0"/>
        <pt x="201" y="810" on="1"/>
        <pt x="202" y="829" on="0"/>
        <pt x="203" y="840" on="1"/>
        <pt x="37" y="840" on="1"/>
        <pt x="86" y="948" on="1"/>
      </contour>
    </TTGlyph>
    <TTGlyph name="F" xMin="233" yMin="0" xMax="1112" yMax="1493">
      <contour>
        <pt x="233" y="1493" on="1"/>
        <pt x="1112" y="1493" on="1"/>
        <pt x="1112" y="1323" on="1"/>
        <pt x="436" y="1323" on="1"/>
        <pt x="436" y="883" on="1"/>
        <pt x="1049" y="883" on="1"/>
        <pt x="1049" y="713" on="1"/>
        <pt x="436" y="713" on="1"/>
        <pt x="436" y="0" on="1"/>
        <pt x="233" y="0" on="1"/>
      </contour>
    </TTGlyph>
    <TTGlyph name="G" xMin="102" yMin="-29" xMax="1104" yMax="1520">
      <contour>
        <pt x="1104" y="123" on="1"/>
        <pt x="1023" y="48" on="0"/>
        <pt x="820" y="-29" on="0"/>
        <pt x="702" y="-29" on="1"/>
        <pt x="418" y="-29" on="0"/>
        <pt x="102" y="378" on="0"/>
        <pt x="102" y="745" on="1"/>
        <pt x="102" y="1111" on="0"/>
        <pt x="422" y="1520" on="0"/>
        <pt x="707" y="1520" on="1"/>
        <pt x="801" y="1520" on="0"/>
        <pt x="973" y="1467" on="0"/>
        <pt x="1053" y="1413" on="1"/>
        <pt x="1053" y="1206" on="1"/>
        <pt x="972" y="1283" on="0"/>
        <pt x="802" y="1356" on="0"/>
        <pt x="707" y="1356" on="1"/>
        <pt x="510" y="1356" on="0"/>
        <pt x="313" y="1051" on="0"/>
        <pt x="313" y="745" on="1"/>
        <pt x="313" y="434" on="0"/>
        <pt x="504" y="135" on="0"/>
        <pt x="702" y="135" on="1"/>
        <pt x="769" y="135" on="0"/>
        <pt x="870" y="166" on="0"/>
        <pt x="911" y="199" on="1"/>
        <pt x="911" y="600" on="1"/>
        <pt x="694" y="600" on="1"/>
        <pt x="694" y="766" on="1"/>
        <pt x="1104" y="766" on="1"/>
      </contour>
    </TTGlyph>
    <TTGlyph name="Gbreve" xMin="102" yMin="-29" xMax="1104" yMax="1901">
      <component glyphName="G" x="0" y="0" flags="0x4"/>
      <component glyphName="c6475" x="0" y="373" flags="0x4"/>
    </TTGlyph>
    <TTGlyph name="H" xMin="137" yMin="0" xMax="1096" yMax="1493">
      <contour>
        <pt x="137" y="1493" on="1"/>
        <pt x="340" y="1493" on="1"/>
        <pt x="340" y="881" on="1"/>
        <pt x="893" y="881" on="1"/>
        <pt x="893" y="1493" on="1"/>
        <pt x="1096" y="1493" on="1"/>
        <pt x="1096" y="0" on="1"/>
        <pt x="893" y="0" on="1"/>
        <pt x="893" y="711" on="1"/>
        <pt x="340" y="711" on="1"/>
        <pt x="340" y="0" on="1"/>
        <pt x="137" y="0" on="1"/>
      </contour>
    </TTGlyph>
    <TTGlyph name="I" xMin="201" yMin="0" xMax="1030" yMax="1493">
      <contour>
        <pt x="201" y="1493" on="1"/>
        <pt x="1030" y="1493" on="1"/>
        <pt x="1030" y="1323" on="1"/>
        <pt x="717" y="1323" on="1"/>
        <pt x="717" y="170" on="1"/>
        <pt x="1030" y="170" on="1"/>
        <pt x="1030" y="0" on="1"/>
        <pt x="201" y="0" on="1"/>
        <pt x="201" y="170" on="1"/>
        <pt x="514" y="170" on="1"/>
        <pt x="514" y="1323" on="1"/>
        <pt x="201" y="1323" on="1"/>
      </contour>
    </TTGlyph>
    <TTGlyph name="Iacute" xMin="201" yMin="0" xMax="1030" yMax="1899">
      <component glyphName="I" x="0" y="0" flags="0x4"/>
      <component glyphName="c6460" x="0" y="373" flags="0x4"/>
    </TTGlyph>
    <TTGlyph name="Icircumflex" xMin="201" yMin="0" xMax="1030" yMax="1901">
      <component glyphName="I" x="0" y="0" flags="0x4"/>
      <component glyphName="c6470" x="0" y="373" flags="0x4"/>
    </TTGlyph>
    <TTGlyph name="Idieresis" xMin="201" yMin="0" xMax="1030" yMax="1870">
      <component glyphName="I" x="0" y="0" flags="0x4"/>
      <component glyphName="c6459" x="0" y="373" flags="0x4"/>
    </TTGlyph>
    <TTGlyph name="Idotaccent" xMin="201" yMin="0" xMax="1030" yMax="1872">
      <component glyphName="I" x="0" y="0" flags="0x4"/>
      <component glyphName="c6476" x="0" y="373" flags="0x4"/>
    </TTGlyph>
    <TTGlyph name="Igrave" xMin="201" yMin="0" xMax="1030" yMax="1899">
      <component glyphName="I" x="0" y="0" flags="0x4"/>
      <component glyphName="c6468" x="0" y="373" flags="0x4"/>
    </TTGlyph>
    <TTGlyph name="J" xMin="109" yMin="-29" xMax="956" yMax="1493">
      <contour>
        <pt x="109" y="61" on="1"/>
        <pt x="109" y="297" on="1"/>
        <pt x="200" y="216" on="0"/>
        <pt x="394" y="135" on="0"/>
        <pt x="498" y="135" on="1"/>
        <pt x="641" y="135" on="0"/>
        <pt x="754" y="284" on="0"/>
        <pt x="754" y="487" on="1"/>
        <pt x="754" y="1323" on="1"/>
        <pt x="373" y="1323" on="1"/>
        <pt x="373" y="1493" on="1"/>
        <pt x="956" y="1493" on="1"/>
        <pt x="956" y="487" on="1"/>
        <pt x="956" y="205" on="0"/>
        <pt x="745" y="-29" on="0"/>
        <pt x="498" y="-29" on="1"/>
        <pt x="402" y="-29" on="0"/>
        <pt x="212" y="15" on="0"/>
      </contour>
    </TTGlyph>
    <TTGlyph name="K" xMin="137" yMin="0" xMax="1225" yMax="1493">
      <contour>
        <pt x="137" y="1493" on="1"/>
        <pt x="340" y="1493" on="1"/>
        <pt x="340" y="829" on="1"/>
        <pt x="971" y="1493" on="1"/>
        <pt x="1208" y="1493" on="1"/>
        <pt x="627" y="883" on="1"/>
        <pt x="1225" y="0" on="1"/>
        <pt x="981" y="0" on="1"/>
        <pt x="494" y="748" on="1"/>
        <pt x="340" y="584" on="1"/>
        <pt x="340" y="0" on="1"/>
        <pt x="137" y="0" on="1"/>
      </contour>
    </TTGlyph>
    <TTGlyph name="L" xMin="215" yMin="0" xMax="1139" yMax="1493">
      <contour>
        <pt x="215" y="1493" on="1"/>
        <pt x="418" y="1493" on="1"/>
        <pt x="418" y="170" on="1"/>
        <pt x="1139" y="170" on="1"/>
        <pt x="1139" y="0" on="1"/>
        <pt x="215" y="0" on="1"/>
      </contour>
    </TTGlyph>
    <TTGlyph name="Lslash" xMin="-10" yMin="0" xMax="1139" yMax="1493">
      <contour>
        <pt x="215" y="1493" on="1"/>
        <pt x="418" y="1493" on="1"/>
        <pt x="418" y="877" on="1"/>
        <pt x="733" y="1096" on="1"/>
        <pt x="811" y="985" on="1"/>
        <pt x="418" y="711" on="1"/>
        <pt x="418" y="170" on="1"/>
        <pt x="1139" y="170" on="1"/>
        <pt x="1139" y="0" on="1"/>
        <pt x="215" y="0" on="1"/>
        <pt x="215" y="571" on="1"/>
        <pt x="70" y="465" on="1"/>
        <pt x="-10" y="575" on="1"/>
        <pt x="215" y="733" on="1"/>
      </contour>
    </TTGlyph>
    <TTGlyph name="M" xMin="86" yMin="0" xMax="1145" yMax="1493">
      <contour>
        <pt x="86" y="1493" on="1"/>
        <pt x="356" y="1493" on="1"/>
        <pt x="614" y="733" on="1"/>
        <pt x="874" y="1493" on="1"/>
        <pt x="1145" y="1493" on="1"/>
        <pt x="1145" y="0" on="1"/>
        <pt x="958" y="0" on="1"/>
        <pt x="958" y="1319" on="1"/>
        <pt x="692" y="532" on="1"/>
        <pt x="539" y="532" on="1"/>
        <pt x="272" y="1319" on="1"/>
        <pt x="272" y="0" on="1"/>
        <pt x="86" y="0" on="1"/>
      </contour>
    </TTGlyph>
    <TTGlyph name="N" xMin="139" yMin="0" xMax="1094" yMax="1493">
      <contour>
        <pt x="139" y="1493" on="1"/>
        <pt x="395" y="1493" on="1"/>
        <pt x="899" y="264" on="1"/>
        <pt x="899" y="1493" on="1"/>
        <pt x="1094" y="1493" on="1"/>
        <pt x="1094" y="0" on="1"/>
        <pt x="838" y="0" on="1"/>
        <pt x="334" y="1229" on="1"/>
        <pt x="334" y="0" on="1"/>
        <pt x="139" y="0" on="1"/>
      </contour>
    </TTGlyph>
    <TTGlyph name="Ntilde" xMin="139" yMin="0" xMax="1094" yMax="1886">
      <component glyphName="N" x="0" y="0" flags="0x4"/>
      <component glyphName="c6461" x="-18" y="373" flags="0x4"/>
    </TTGlyph>
    <TTGlyph name="O" xMin="117" yMin="-29" xMax="1116" yMax="1520">
      <contour>
        <pt x="905" y="745" on="1"/>
        <pt x="905" y="1074" on="0"/>
        <pt x="770" y="1356" on="0"/>
        <pt x="616" y="1356" on="1"/>
        <pt x="463" y="1356" on="0"/>
        <pt x="328" y="1074" on="0"/>
        <pt x="328" y="745" on="1"/>
        <pt x="328" y="417" on="0"/>
        <pt x="463" y="135" on="0"/>
        <pt x="616" y="135" on="1"/>
        <pt x="770" y="135" on="0"/>
        <pt x="905" y="416" on="0"/>
      </contour>
      <contour>
        <pt x="1116" y="745" on="1"/>
        <pt x="1116" y="355" on="0"/>
        <pt x="869" y="-29" on="0"/>
        <pt x="616" y="-29" on="1"/>
        <pt x="363" y="-29" on="0"/>
        <pt x="117" y="353" on="0"/>
        <pt x="117" y="745" on="1"/>
        <pt x="117" y="1136" on="0"/>
        <pt x="364" y="1520" on="0"/>
        <pt x="616" y="1520" on="1"/>
        <pt x="869" y="1520" on="0"/>
        <pt x="1116" y="1136" on="0"/>
      </contour>
    </TTGlyph>
    <TTGlyph name="OE" xMin="72" yMin="0" xMax="1217" yMax="1493">
      <contour>
        <pt x="1217" y="170" on="1"/>
        <pt x="1217" y="0" on="1"/>
        <pt x="612" y="0" on="1"/>
        <pt x="317" y="0" on="0"/>
        <pt x="72" y="333" on="0"/>
        <pt x="72" y="745" on="1"/>
        <pt x="72" y="1162" on="0"/>
        <pt x="316" y="1493" on="0"/>
        <pt x="612" y="1493" on="1"/>
        <pt x="1206" y="1493" on="1"/>
        <pt x="1206" y="1323" on="1"/>
        <pt x="848" y="1323" on="1"/>
        <pt x="848" y="881" on="1"/>
        <pt x="1176" y="881" on="1"/>
        <pt x="1176" y="711" on="1"/>
        <pt x="848" y="711" on="1"/>
        <pt x="848" y="170" on="1"/>
      </contour>
      <contour>
        <pt x="590" y="1323" on="1"/>
        <pt x="413" y="1323" on="0"/>
        <pt x="274" y="1093" on="0"/>
        <pt x="274" y="745" on="1"/>
        <pt x="274" y="399" on="0"/>
        <pt x="413" y="170" on="0"/>
        <pt x="590" y="170" on="1"/>
        <pt x="651" y="170" on="1"/>
        <pt x="651" y="1323" on="1"/>
      </contour>
    </TTGlyph>
    <TTGlyph name="Oacute" xMin="117" yMin="-29" xMax="1116" yMax="1899">
      <component glyphName="O" x="0" y="0" flags="0x4"/>
      <component glyphName="c6460" x="0" y="373" flags="0x4"/>
    </TTGlyph>
    <TTGlyph name="Ocircumflex" xMin="117" yMin="-29" xMax="1116" yMax="1901">
      <component glyphName="O" x="0" y="0" flags="0x4"/>
      <component glyphName="c6470" x="0" y="373" flags="0x4"/>
    </TTGlyph>
    <TTGlyph name="Odieresis" xMin="117" yMin="-29" xMax="1116" yMax="1870">
      <component glyphName="O" x="0" y="0" flags="0x4"/>
      <component glyphName="c6459" x="0" y="373" flags="0x4"/>
    </TTGlyph>
    <TTGlyph name="Ograve" xMin="117" yMin="-29" xMax="1116" yMax="1899">
      <component glyphName="O" x="0" y="0" flags="0x4"/>
      <component glyphName="c6468" x="0" y="373" flags="0x4"/>
    </TTGlyph>
    <TTGlyph name="Omega" xMin="74" yMin="0" xMax="1159" yMax="1460">
      <contour>
        <pt x="74" y="0" on="1"/>
        <pt x="74" y="172" on="1"/>
        <pt x="319" y="172" on="1"/>
        <pt x="196" y="306" on="0"/>
        <pt x="86" y="594" on="0"/>
        <pt x="86" y="782" on="1"/>
        <pt x="86" y="1093" on="0"/>
        <pt x="374" y="1460" on="0"/>
        <pt x="614" y="1460" on="1"/>
        <pt x="856" y="1460" on="0"/>
        <pt x="1145" y="1094" on="0"/>
        <pt x="1145" y="782" on="1"/>
        <pt x="1145" y="594" on="0"/>
        <pt x="1034" y="305" on="0"/>
        <pt x="911" y="172" on="1"/>
        <pt x="1159" y="172" on="1"/>
        <pt x="1159" y="0" on="1"/>
        <pt x="696" y="0" on="1"/>
        <pt x="696" y="172" on="1"/>
        <pt x="816" y="248" on="0"/>
        <pt x="950" y="577" on="0"/>
        <pt x="950" y="799" on="1"/>
        <pt x="950" y="1029" on="0"/>
        <pt x="770" y="1294" on="0"/>
        <pt x="616" y="1294" on="1"/>
        <pt x="462" y="1294" on="0"/>
        <pt x="283" y="1029" on="0"/>
        <pt x="283" y="799" on="1"/>
        <pt x="283" y="577" on="0"/>
        <pt x="417" y="248" on="0"/>
        <pt x="537" y="172" on="1"/>
        <pt x="537" y="0" on="1"/>
      </contour>
    </TTGlyph>
    <TTGlyph name="Oslash" xMin="8" yMin="-70" xMax="1200" yMax="1559">
      <contour>
        <pt x="371" y="303" on="1"/>
        <pt x="401" y="225" on="0"/>
        <pt x="532" y="135" on="0"/>
        <pt x="616" y="135" on="1"/>
        <pt x="770" y="135" on="0"/>
        <pt x="905" y="416" on="0"/>

        <pt x="905" y="745" on="1"/>
        <pt x="905" y="855" on="0"/>
        <pt x="895" y="991" on="0"/>
        <pt x="885" y="1036" on="1"/>
      </contour>
      <contour>
        <pt x="338" y="471" on="1"/>
        <pt x="842" y="1190" on="1"/>
        <pt x="817" y="1271" on="0"/>
        <pt x="702" y="1356" on="0"/>
        <pt x="616" y="1356" on="1"/>
        <pt x="459" y="1356" on="0"/>
        <pt x="328" y="1064" on="0"/>
        <pt x="328" y="686" on="1"/>
        <pt x="328" y="606" on="0"/>
        <pt x="333" y="505" on="0"/>
      </contour>
      <contour>
        <pt x="1032" y="1247" on="1"/>
        <pt x="1073" y="1166" on="0"/>
        <pt x="1116" y="908" on="0"/>
        <pt x="1116" y="745" on="1"/>
        <pt x="1116" y="355" on="0"/>
        <pt x="869" y="-29" on="0"/>
        <pt x="616" y="-29" on="1"/>
        <pt x="495" y="-29" on="0"/>
        <pt x="315" y="52" on="0"/>
        <pt x="254" y="133" on="1"/>
        <pt x="111" y="-70" on="1"/>
        <pt x="8" y="0" on="1"/>
        <pt x="186" y="252" on="1"/>
        <pt x="154" y="325" on="0"/>
        <pt x="117" y="587" on="0"/>
        <pt x="117" y="745" on="1"/>
        <pt x="117" y="1136" on="0"/>
        <pt x="364" y="1520" on="0"/>
        <pt x="616" y="1520" on="1"/>
        <pt x="731" y="1520" on="0"/>
        <pt x="904" y="1438" on="0"/>
        <pt x="961" y="1358" on="1"/>
        <pt x="1100" y="1559" on="1"/>
        <pt x="1200" y="1485" on="1"/>
      </contour>
    </TTGlyph>
    <TTGlyph name="Otilde" xMin="117" yMin="-29" xMax="1116" yMax="1886">
      <component glyphName="O" x="0" y="0" flags="0x4"/>
      <component glyphName="c6461" x="0" y="373" flags="0x4"/>
    </TTGlyph>
    <TTGlyph name="P" xMin="197" yMin="0" xMax="1141" yMax="1493">
      <contour>
        <pt x="399" y="1327" on="1"/>
        <pt x="399" y="766" on="1"/>
        <pt x="633" y="766" on="1"/>
        <pt x="773" y="766" on="0"/>
        <pt x="930" y="914" on="0"/>
        <pt x="930" y="1047" on="1"/>
        <pt x="930" y="1180" on="0"/>
        <pt x="774" y="1327" on="0"/>
        <pt x="633" y="1327" on="1"/>
      </contour>
      <contour>
        <pt x="197" y="1493" on="1"/>
        <pt x="633" y="1493" on="1"/>
        <pt x="883" y="1493" on="0"/>
        <pt x="1141" y="1266" on="0"/>
        <pt x="1141" y="1047" on="1"/>
        <pt x="1141" y="826" on="0"/>
        <pt x="884" y="600" on="0"/>
        <pt x="633" y="600" on="1"/>
        <pt x="399" y="600" on="1"/>
        <pt x="399" y="0" on="1"/>
        <pt x="197" y="0" on="1"/>
      </contour>
    </TTGlyph>
    <TTGlyph name="Q" xMin="117" yMin="-270" xMax="1116" yMax="1520">
      <contour>
        <pt x="655" y="-27" on="1"/>
        <pt x="648" y="-27" on="0"/>
        <pt x="622" y="-29" on="0"/>
        <pt x="614" y="-29" on="1"/>
        <pt x="364" y="-29" on="0"/>
        <pt x="117" y="355" on="0"/>
        <pt x="117" y="745" on="1"/>
        <pt x="117" y="1136" on="0"/>
        <pt x="364" y="1520" on="0"/>
        <pt x="616" y="1520" on="1"/>
        <pt x="869" y="1520" on="0"/>
        <pt x="1116" y="1136" on="0"/>
        <pt x="1116" y="745" on="1"/>
        <pt x="1116" y="451" on="0"/>
        <pt x="979" y="92" on="0"/>
        <pt x="840" y="20" on="1"/>
        <pt x="1040" y="-170" on="1"/>
        <pt x="889" y="-270" on="1"/>
      </contour>
      <contour>
        <pt x="905" y="745" on="1"/>
        <pt x="905" y="1074" on="0"/>
        <pt x="770" y="1356" on="0"/>
        <pt x="616" y="1356" on="1"/>
        <pt x="463" y="1356" on="0"/>
        <pt x="328" y="1074" on="0"/>
        <pt x="328" y="745" on="1"/>
        <pt x="328" y="417" on="0"/>
        <pt x="463" y="135" on="0"/>
        <pt x="616" y="135" on="1"/>
        <pt x="770" y="135" on="0"/>
        <pt x="905" y="416" on="0"/>
      </contour>
    </TTGlyph>
    <TTGlyph name="R" xMin="143" yMin="0" xMax="1233" yMax="1493">
      <contour>
        <pt x="760" y="705" on="1"/>
        <pt x="838" y="685" on="0"/>
        <pt x="948" y="574" on="0"/>
        <pt x="1030" y="408" on="1"/>
        <pt x="1233" y="0" on="1"/>
        <pt x="1016" y="0" on="1"/>
        <pt x="838" y="377" on="1"/>
        <pt x="761" y="538" on="0"/>
        <pt x="638" y="631" on="0"/>
        <pt x="539" y="631" on="1"/>
        <pt x="346" y="631" on="1"/>
        <pt x="346" y="0" on="1"/>
        <pt x="143" y="0" on="1"/>
        <pt x="143" y="1493" on="1"/>
        <pt x="559" y="1493" on="1"/>
        <pt x="805" y="1493" on="0"/>
        <pt x="1067" y="1271" on="0"/>
        <pt x="1067" y="1061" on="1"/>
        <pt x="1067" y="913" on="0"/>
        <pt x="906" y="726" on="0"/>
      </contour>
      <contour>
        <pt x="346" y="1327" on="1"/>
        <pt x="346" y="797" on="1"/>
        <pt x="567" y="797" on="1"/>
        <pt x="712" y="797" on="0"/>
        <pt x="854" y="927" on="0"/>
        <pt x="854" y="1061" on="1"/>
        <pt x="854" y="1190" on="0"/>
        <pt x="703" y="1327" on="0"/>
        <pt x="559" y="1327" on="1"/>
      </contour>
    </TTGlyph>
    <TTGlyph name="S" xMin="139" yMin="-29" xMax="1098" yMax="1520">
      <contour>
        <pt x="1012" y="1442" on="1"/>
        <pt x="1012" y="1237" on="1"/>
        <pt x="920" y="1296" on="0"/>
        <pt x="735" y="1356" on="0"/>
        <pt x="641" y="1356" on="1"/>
        <pt x="498" y="1356" on="0"/>
        <pt x="332" y="1223" on="0"/>
        <pt x="332" y="1110" on="1"/>
        <pt x="332" y="1011" on="0"/>
        <pt x="441" y="907" on="0"/>
        <pt x="590" y="872" on="1"/>
        <pt x="696" y="848" on="1"/>
        <pt x="906" y="799" on="0"/>
        <pt x="1098" y="589" on="0"/>
        <pt x="1098" y="408" on="1"/>
        <pt x="1098" y="195" on="0"/>
        <pt x="834" y="-29" on="0"/>
        <pt x="582" y="-29" on="1"/>
        <pt x="477" y="-29" on="0"/>
        <pt x="265" y="16" on="0"/>
        <pt x="158" y="61" on="1"/>
        <pt x="158" y="276" on="1"/>
        <pt x="273" y="203" on="0"/>
        <pt x="478" y="135" on="0"/>
        <pt x="582" y="135" on="1"/>
        <pt x="735" y="135" on="0"/>
        <pt x="905" y="272" on="0"/>
        <pt x="905" y="395" on="1"/>
        <pt x="905" y="507" on="0"/>
        <pt x="788" y="625" on="0"/>
        <pt x="643" y="657" on="1"/>
        <pt x="535" y="682" on="1"/>
        <pt x="327" y="729" on="0"/>
        <pt x="139" y="919" on="0"/>
        <pt x="139" y="1079" on="1"/>
        <pt x="139" y="1279" on="0"/>
        <pt x="408" y="1520" on="0"/>
        <pt x="631" y="1520" on="1"/>
        <pt x="717" y="1520" on="0"/>
        <pt x="907" y="1481" on="0"/>
      </contour>
    </TTGlyph>
    <TTGlyph name="Scaron" xMin="139" yMin="-29" xMax="1098" yMax="1901">
      <component glyphName="S" x="0" y="0" flags="0x4"/>
      <component glyphName="c6472" x="0" y="373" flags="0x4"/>
    </TTGlyph>
    <TTGlyph name="Scedilla" xMin="139" yMin="-395" xMax="1098" yMax="1520">
      <component glyphName="S" x="0" y="0" flags="0x4"/>
      <component glyphName="cedilla" x="0" y="0" flags="0x4"/>
    </TTGlyph>
    <TTGlyph name="T" xMin="47" yMin="0" xMax="1186" yMax="1493">
      <contour>
        <pt x="47" y="1493" on="1"/>
        <pt x="1186" y="1493" on="1"/>
        <pt x="1186" y="1323" on="1"/>
        <pt x="719" y="1323" on="1"/>
        <pt x="719" y="0" on="1"/>
        <pt x="516" y="0" on="1"/>
        <pt x="516" y="1323" on="1"/>
        <pt x="47" y="1323" on="1"/>
      </contour>
    </TTGlyph>
    <TTGlyph name="Thorn" xMin="201" yMin="0" xMax="1165" yMax="1493">
      <contour>
        <pt x="403" y="1057" on="1"/>
        <pt x="403" y="532" on="1"/>
        <pt x="637" y="532" on="1"/>
        <pt x="795" y="532" on="0"/>
        <pt x="952" y="664" on="0"/>
        <pt x="952" y="795" on="1"/>
        <pt x="952" y="926" on="0"/>
        <pt x="795" y="1057" on="0"/>
        <pt x="637" y="1057" on="1"/>
      </contour>
      <contour>
        <pt x="201" y="1493" on="1"/>
        <pt x="403" y="1493" on="1"/>
        <pt x="403" y="1223" on="1"/>
        <pt x="657" y="1223" on="1"/>
        <pt x="917" y="1223" on="0"/>
        <pt x="1165" y="1013" on="0"/>
        <pt x="1165" y="795" on="1"/>
        <pt x="1165" y="576" on="0"/>
        <pt x="917" y="367" on="0"/>
        <pt x="657" y="367" on="1"/>
        <pt x="403" y="367" on="1"/>
        <pt x="403" y="0" on="1"/>
        <pt x="201" y="0" on="1"/>
      </contour>
    </TTGlyph>
    <TTGlyph name="U" xMin="147" yMin="-29" xMax="1085" yMax="1493">
      <contour>
        <pt x="147" y="573" on="1"/>
        <pt x="147" y="1493" on="1"/>
        <pt x="350" y="1493" on="1"/>
        <pt x="350" y="481" on="1"/>
        <pt x="350" y="372" on="0"/>
        <pt x="362" y="279" on="0"/>
        <pt x="377" y="254" on="1"/>
        <pt x="409" y="195" on="0"/>
        <pt x="530" y="135" on="0"/>
        <pt x="616" y="135" on="1"/>
        <pt x="703" y="135" on="0"/>
        <pt x="823" y="195" on="0"/>
        <pt x="856" y="254" on="1"/>
        <pt x="871" y="279" on="0"/>
        <pt x="883" y="371" on="0"/>
        <pt x="883" y="479" on="1"/>
        <pt x="883" y="573" on="1"/>
        <pt x="883" y="1493" on="1"/>
        <pt x="1085" y="1493" on="1"/>
        <pt x="1085" y="573" on="1"/>
        <pt x="1085" y="344" on="0"/>
        <pt x="1028" y="151" on="0"/>
        <pt x="958" y="88" on="1"/>
        <pt x="892" y="29" on="0"/>
        <pt x="722" y="-29" on="0"/>
        <pt x="616" y="-29" on="1"/>
        <pt x="511" y="-29" on="0"/>
        <pt x="341" y="29" on="0"/>
        <pt x="274" y="88" on="1"/>
        <pt x="205" y="150" on="0"/>
        <pt x="147" y="347" on="0"/>
      </contour>
    </TTGlyph>
    <TTGlyph name="Uacute" xMin="147" yMin="-29" xMax="1085" yMax="1899">
      <component glyphName="U" x="0" y="0" flags="0x4"/>
      <component glyphName="c6460" x="0" y="373" flags="0x4"/>
    </TTGlyph>
    <TTGlyph name="Ucircumflex" xMin="147" yMin="-29" xMax="1085" yMax="1901">
      <component glyphName="U" x="0" y="0" flags="0x4"/>
      <component glyphName="c6470" x="0" y="373" flags="0x4"/>
    </TTGlyph>
    <TTGlyph name="Udieresis" xMin="147" yMin="-29" xMax="1085" yMax="1870">
      <component glyphName="U" x="0" y="0" flags="0x4"/>
      <component glyphName="c6459" x="0" y="373" flags="0x4"/>
    </TTGlyph>
    <TTGlyph name="Ugrave" xMin="147" yMin="-29" xMax="1085" yMax="1899">
      <component glyphName="U" x="0" y="0" flags="0x4"/>
      <component glyphName="c6468" x="0" y="373" flags="0x4"/>
    </TTGlyph>
    <TTGlyph name="V" xMin="57" yMin="0" xMax="1176" yMax="1493">
      <contour>
        <pt x="616" y="170" on="1"/>
        <pt x="967" y="1493" on="1"/>
        <pt x="1176" y="1493" on="1"/>
        <pt x="739" y="0" on="1"/>
        <pt x="494" y="0" on="1"/>
        <pt x="57" y="1493" on="1"/>
        <pt x="266" y="1493" on="1"/>
      </contour>
    </TTGlyph>
    <TTGlyph name="W" xMin="0" yMin="0" xMax="1233" yMax="1493">
      <contour>
        <pt x="0" y="1493" on="1"/>
        <pt x="197" y="1493" on="1"/>
        <pt x="340" y="281" on="1"/>
        <pt x="510" y="1083" on="1"/>
        <pt x="721" y="1083" on="1"/>
        <pt x="893" y="279" on="1"/>
        <pt x="1036" y="1493" on="1"/>
        <pt x="1233" y="1493" on="1"/>
        <pt x="1010" y="0" on="1"/>
        <pt x="819" y="0" on="1"/>
        <pt x="616" y="887" on="1"/>
        <pt x="414" y="0" on="1"/>
        <pt x="223" y="0" on="1"/>
      </contour>
    </TTGlyph>
    <TTGlyph name="X" xMin="18" yMin="0" xMax="1214" yMax="1493">
      <contour>
        <pt x="86" y="1493" on="1"/>
        <pt x="303" y="1493" on="1"/>
        <pt x="631" y="930" on="1"/>
        <pt x="965" y="1493" on="1"/>
        <pt x="1182" y="1493" on="1"/>
        <pt x="735" y="791" on="1"/>
        <pt x="1214" y="0" on="1"/>
        <pt x="997" y="0" on="1"/>
        <pt x="631" y="643" on="1"/>
        <pt x="236" y="0" on="1"/>
        <pt x="18" y="0" on="1"/>
        <pt x="518" y="791" on="1"/>
      </contour>
    </TTGlyph>
    <TTGlyph name="Y" xMin="37" yMin="0" xMax="1196" yMax="1493">
      <contour>
        <pt x="37" y="1493" on="1"/>
        <pt x="252" y="1493" on="1"/>
        <pt x="616" y="834" on="1"/>
        <pt x="979" y="1493" on="1"/>
        <pt x="1196" y="1493" on="1"/>
        <pt x="717" y="670" on="1"/>
        <pt x="717" y="0" on="1"/>
        <pt x="514" y="0" on="1"/>
        <pt x="514" y="670" on="1"/>
      </contour>
    </TTGlyph>
    <TTGlyph name="Yacute" xMin="37" yMin="0" xMax="1196" yMax="1899">
      <component glyphName="Y" x="0" y="0" flags="0x4"/>
      <component glyphName="c6460" x="0" y="373" flags="0x4"/>
    </TTGlyph>
    <TTGlyph name="Ydieresis" xMin="37" yMin="0" xMax="1196" yMax="1870">
      <component glyphName="Y" x="0" y="0" flags="0x4"/>
      <component glyphName="c6459" x="0" y="373" flags="0x4"/>
    </TTGlyph>
    <TTGlyph name="Z" xMin="156" yMin="0" xMax="1169" yMax="1493">
      <contour>
        <pt x="178" y="1493" on="1"/>
        <pt x="1147" y="1493" on="1"/>
        <pt x="1147" y="1339" on="1"/>
        <pt x="367" y="170" on="1"/>
        <pt x="1169" y="170" on="1"/>
        <pt x="1169" y="0" on="1"/>
        <pt x="156" y="0" on="1"/>
        <pt x="156" y="154" on="1"/>
        <pt x="915" y="1323" on="1"/>
        <pt x="178" y="1323" on="1"/>
      </contour>
    </TTGlyph>
    <TTGlyph name="Zcaron" xMin="156" yMin="0" xMax="1169" yMax="1901">
      <component glyphName="Z" x="0" y="0" flags="0x4"/>
      <component glyphName="c6472" x="0" y="373" flags="0x4"/>
    </TTGlyph>
    <TTGlyph name="a" xMin="133" yMin="-29" xMax="1059" yMax="1147">
      <contour>
        <pt x="702" y="563" on="1"/>
        <pt x="641" y="563" on="1"/>
        <pt x="480" y="563" on="0"/>
        <pt x="317" y="450" on="0"/>
        <pt x="317" y="338" on="1"/>
        <pt x="317" y="237" on="0"/>
        <pt x="439" y="125" on="0"/>
        <pt x="547" y="125" on="1"/>
        <pt x="699" y="125" on="0"/>
        <pt x="873" y="336" on="0"/>
        <pt x="874" y="522" on="1"/>
        <pt x="874" y="563" on="1"/>
      </contour>
      <contour>
        <pt x="1059" y="639" on="1"/>
        <pt x="1059" y="0" on="1"/>
        <pt x="874" y="0" on="1"/>
        <pt x="874" y="166" on="1"/>
        <pt x="815" y="66" on="0"/>
        <pt x="636" y="-29" on="0"/>
        <pt x="508" y="-29" on="1"/>
        <pt x="337" y="-29" on="0"/>
        <pt x="133" y="164" on="0"/>
        <pt x="133" y="326" on="1"/>
        <pt x="133" y="513" on="0"/>
        <pt x="384" y="707" on="0"/>
        <pt x="627" y="707" on="1"/>
        <pt x="874" y="707" on="1"/>
        <pt x="874" y="736" on="1"/>
        <pt x="873" y="870" on="0"/>
        <pt x="739" y="991" on="0"/>
        <pt x="592" y="991" on="1"/>
        <pt x="498" y="991" on="0"/>
        <pt x="306" y="937" on="0"/>
        <pt x="215" y="885" on="1"/>
        <pt x="215" y="1069" on="1"/>
        <pt x="317" y="1108" on="0"/>
        <pt x="504" y="1147" on="0"/>
        <pt x="592" y="1147" on="1"/>
        <pt x="731" y="1147" on="0"/>
        <pt x="928" y="1065" on="0"/>
        <pt x="989" y="983" on="1"/>
        <pt x="1027" y="933" on="0"/>
        <pt x="1059" y="786" on="0"/>
      </contour>
    </TTGlyph>
    <TTGlyph name="aacute" xMin="133" yMin="-29" xMax="1059" yMax="1638">
      <component glyphName="a" x="0" y="0" flags="0x4"/>
      <component glyphName="acute" x="0" y="0" flags="0x4"/>
    </TTGlyph>
    <TTGlyph name="acircumflex" xMin="133" yMin="-29" xMax="1059" yMax="1638">
      <component glyphName="a" x="0" y="0" flags="0x4"/>
      <component glyphName="circumflex" x="0" y="0" flags="0x4"/>
    </TTGlyph>
    <TTGlyph name="acute" xMin="475" yMin="1262" xMax="954" yMax="1638">
      <contour>
        <pt x="756" y="1638" on="1"/>
        <pt x="954" y="1638" on="1"/>
        <pt x="629" y="1262" on="1"/>
        <pt x="475" y="1262" on="1"/>
      </contour>
    </TTGlyph>
    <TTGlyph name="adieresis" xMin="133" yMin="-29" xMax="1059" yMax="1552">
      <component glyphName="a" x="0" y="0" flags="0x4"/>
      <component glyphName="dieresis" x="0" y="0" flags="0x4"/>
    </TTGlyph>
    <TTGlyph name="ae" xMin="41" yMin="-29" xMax="1200" yMax="1147">
      <contour>
        <pt x="543" y="442" on="1"/>
        <pt x="543" y="514" on="1"/>
        <pt x="494" y="514" on="1"/>
        <pt x="325" y="514" on="0"/>
        <pt x="205" y="424" on="0"/>
        <pt x="205" y="311" on="1"/>
        <pt x="205" y="222" on="0"/>
        <pt x="294" y="125" on="0"/>
        <pt x="377" y="125" on="1"/>
        <pt x="469" y="125" on="0"/>
        <pt x="543" y="258" on="0"/>
      </contour>
      <contour>
        <pt x="1036" y="657" on="1"/>
        <pt x="1036" y="709" on="1"/>
        <pt x="1036" y="860" on="0"/>
        <pt x="959" y="993" on="0"/>
        <pt x="872" y="993" on="1"/>
        <pt x="785" y="993" on="0"/>
        <pt x="709" y="857" on="0"/>
        <pt x="709" y="700" on="1"/>
        <pt x="709" y="657" on="1"/>
      </contour>
      <contour>
        <pt x="1200" y="514" on="1"/>
        <pt x="709" y="514" on="1"/>
        <pt x="708" y="499" on="0"/>
        <pt x="707" y="464" on="0"/>
        <pt x="707" y="430" on="1"/>
        <pt x="707" y="269" on="0"/>
        <pt x="808" y="125" on="0"/>
        <pt x="920" y="125" on="1"/>
        <pt x="999" y="125" on="0"/>
        <pt x="1128" y="176" on="0"/>
        <pt x="1178" y="227" on="1"/>
        <pt x="1178" y="55" on="1"/>
        <pt x="1123" y="14" on="0"/>
        <pt x="991" y="-29" on="0"/>
        <pt x="920" y="-29" on="1"/>
        <pt x="810" y="-29" on="0"/>
        <pt x="661" y="53" on="0"/>
        <pt x="629" y="131" on="1"/>
        <pt x="590" y="51" on="0"/>
        <pt x="457" y="-29" on="0"/>
        <pt x="360" y="-29" on="1"/>
        <pt x="204" y="-29" on="0"/>
        <pt x="41" y="143" on="0"/>
        <pt x="41" y="307" on="1"/>
        <pt x="41" y="478" on="0"/>
        <pt x="241" y="657" on="0"/>
        <pt x="432" y="657" on="1"/>
        <pt x="549" y="657" on="1"/>
        <pt x="549" y="745" on="1"/>
        <pt x="549" y="865" on="0"/>
        <pt x="450" y="993" on="0"/>
        <pt x="356" y="993" on="1"/>
        <pt x="300" y="993" on="0"/>
        <pt x="168" y="950" on="0"/>
        <pt x="106" y="911" on="1"/>
        <pt x="106" y="1079" on="1"/>
        <pt x="183" y="1114" on="0"/>
        <pt x="315" y="1147" on="0"/>
        <pt x="375" y="1147" on="1"/>
        <pt x="466" y="1147" on="0"/>
        <pt x="590" y="1084" on="0"/>
        <pt x="627" y="1020" on="1"/>
        <pt x="660" y="1081" on="0"/>
        <pt x="792" y="1147" on="0"/>
        <pt x="881" y="1147" on="1"/>
        <pt x="1055" y="1147" on="0"/>
        <pt x="1200" y="910" on="0"/>
        <pt x="1200" y="604" on="1"/>
      </contour>
    </TTGlyph>
    <TTGlyph name="agrave" xMin="133" yMin="-29" xMax="1059" yMax="1638">
      <component glyphName="a" x="0" y="0" flags="0x4"/>
      <component glyphName="grave" x="0" y="0" flags="0x4"/>
    </TTGlyph>
    <TTGlyph name="ampersand" xMin="57" yMin="-29" xMax="1221" yMax="1520">
      <contour>
        <pt x="547" y="907" on="1"/>
        <pt x="963" y="348" on="1"/>
        <pt x="1002" y="397" on="0"/>
        <pt x="1040" y="547" on="0"/>
        <pt x="1040" y="651" on="1"/>
        <pt x="1040" y="683" on="0"/>
        <pt x="1037" y="753" on="1"/>
        <pt x="1036" y="760" on="1"/>
        <pt x="1200" y="760" on="1"/>
        <pt x="1200" y="721" on="1"/>
        <pt x="1200" y="560" on="0"/>
        <pt x="1126" y="317" on="0"/>
        <pt x="1051" y="229" on="1"/>
        <pt x="1221" y="0" on="1"/>
        <pt x="1008" y="0" on="1"/>
        <pt x="930" y="109" on="1"/>
        <pt x="847" y="39" on="0"/>
        <pt x="661" y="-29" on="0"/>
        <pt x="555" y="-29" on="1"/>
        <pt x="339" y="-29" on="0"/>
        <pt x="57" y="240" on="0"/>
        <pt x="57" y="444" on="1"/>
        <pt x="57" y="581" on="0"/>
        <pt x="195" y="815" on="0"/>
        <pt x="334" y="915" on="1"/>
        <pt x="284" y="987" on="0"/>
        <pt x="236" y="1125" on="0"/>
        <pt x="236" y="1196" on="1"/>
        <pt x="236" y="1346" on="0"/>
        <pt x="435" y="1520" on="0"/>
        <pt x="608" y="1520" on="1"/>
        <pt x="673" y="1520" on="0"/>
        <pt x="804" y="1496" on="0"/>
        <pt x="874" y="1473" on="1"/>
        <pt x="874" y="1290" on="1"/>
        <pt x="815" y="1329" on="0"/>
        <pt x="690" y="1366" on="0"/>
        <pt x="621" y="1366" on="1"/>
        <pt x="524" y="1366" on="0"/>
        <pt x="412" y="1275" on="0"/>
        <pt x="412" y="1198" on="1"/>
        <pt x="412" y="1139" on="0"/>
        <pt x="470" y="1010" on="0"/>
      </contour>
      <contour>
        <pt x="416" y="803" on="1"/>
        <pt x="324" y="730" on="0"/>
        <pt x="233" y="567" on="0"/>
        <pt x="233" y="475" on="1"/>
        <pt x="233" y="324" on="0"/>
        <pt x="433" y="125" on="0"/>
        <pt x="588" y="125" on="1"/>
        <pt x="630" y="125" on="0"/>
        <pt x="722" y="149" on="0"/>
        <pt x="766" y="172" on="1"/>
        <pt x="793" y="187" on="0"/>
        <pt x="828" y="210" on="0"/>
        <pt x="844" y="223" on="1"/>
      </contour>
    </TTGlyph>
    <TTGlyph name="approxequal" xMin="88" yMin="305" xMax="1145" yMax="963">
      <contour>
        <pt x="1145" y="963" on="1"/>
        <pt x="1145" y="788" on="1"/>
        <pt x="1070" y="729" on="0"/>
        <pt x="927" y="674" on="0"/>
        <pt x="848" y="674" on="1"/>
        <pt x="758" y="674" on="0"/>
        <pt x="645" y="725" on="1"/>
        <pt x="623" y="735" on="0"/>
        <pt x="612" y="739" on="1"/>
        <pt x="535" y="773" on="0"/>
        <pt x="432" y="797" on="0"/>
        <pt x="381" y="797" on="1"/>
        <pt x="302" y="797" on="0"/>
        <pt x="161" y="738" on="0"/>
        <pt x="88" y="674" on="1"/>
        <pt x="88" y="848" on="1"/>
        <pt x="166" y="908" on="0"/>
        <pt x="312" y="963" on="0"/>
        <pt x="395" y="963" on="1"/>
        <pt x="448" y="963" on="0"/>
        <pt x="548" y="941" on="0"/>
        <pt x="623" y="909" on="1"/>
        <pt x="633" y="905" on="0"/>
        <pt x="655" y="894" on="1"/>
        <pt x="771" y="840" on="0"/>
        <pt x="864" y="840" on="1"/>
        <pt x="934" y="840" on="0"/>
        <pt x="1071" y="900" on="0"/>
      </contour>
      <contour>
        <pt x="1145" y="596" on="1"/>
        <pt x="1145" y="420" on="1"/>
        <pt x="1070" y="361" on="0"/>
        <pt x="927" y="305" on="0"/>
        <pt x="848" y="305" on="1"/>
        <pt x="758" y="305" on="0"/>
        <pt x="645" y="356" on="1"/>
        <pt x="623" y="366" on="0"/>
        <pt x="612" y="371" on="1"/>
        <pt x="529" y="407" on="0"/>
        <pt x="430" y="430" on="0"/>
        <pt x="381" y="430" on="1"/>
        <pt x="303" y="430" on="0"/>
        <pt x="162" y="370" on="0"/>
        <pt x="88" y="305" on="1"/>
        <pt x="88" y="479" on="1"/>
        <pt x="167" y="541" on="0"/>
        <pt x="313" y="596" on="0"/>
        <pt x="395" y="596" on="1"/>
        <pt x="491" y="596" on="0"/>
        <pt x="621" y="541" on="1"/>
        <pt x="622" y="541" on="1"/>
        <pt x="633" y="536" on="0"/>
        <pt x="655" y="526" on="1"/>
        <pt x="771" y="471" on="0"/>
        <pt x="864" y="471" on="1"/>
        <pt x="932" y="471" on="0"/>
        <pt x="1070" y="532" on="0"/>
      </contour>
    </TTGlyph>
    <TTGlyph name="aring" xMin="133" yMin="-29" xMax="1059" yMax="1798">
      <component glyphName="a" x="0" y="0" flags="0x4"/>
      <component glyphName="ring" x="0" y="0" flags="0x4"/>
    </TTGlyph>
    <TTGlyph name="asciicircum" xMin="72" yMin="936" xMax="1161" yMax="1493">
      <contour>
        <pt x="705" y="1493" on="1"/>
        <pt x="1161" y="936" on="1"/>
        <pt x="983" y="936" on="1"/>
        <pt x="616" y="1331" on="1"/>
        <pt x="250" y="936" on="1"/>
        <pt x="72" y="936" on="1"/>
        <pt x="528" y="1493" on="1"/>
      </contour>
    </TTGlyph>
    <TTGlyph name="asciitilde" xMin="88" yMin="492" xMax="1145" yMax="780">
      <contour>
        <pt x="1145" y="780" on="1"/>
        <pt x="1145" y="606" on="1"/>
        <pt x="1070" y="547" on="0"/>
        <pt x="927" y="492" on="0"/>
        <pt x="848" y="492" on="1"/>
        <pt x="758" y="492" on="0"/>
        <pt x="645" y="543" on="1"/>
        <pt x="623" y="553" on="0"/>
        <pt x="612" y="557" on="1"/>
        <pt x="535" y="590" on="0"/>
        <pt x="432" y="614" on="0"/>
        <pt x="381" y="614" on="1"/>
        <pt x="302" y="614" on="0"/>
        <pt x="161" y="555" on="0"/>
        <pt x="88" y="492" on="1"/>
        <pt x="88" y="666" on="1"/>
        <pt x="166" y="726" on="0"/>
        <pt x="312" y="780" on="0"/>
        <pt x="395" y="780" on="1"/>
        <pt x="448" y="780" on="0"/>
        <pt x="548" y="758" on="0"/>
        <pt x="622" y="727" on="1"/>
        <pt x="634" y="722" on="0"/>
        <pt x="655" y="712" on="1"/>
        <pt x="771" y="657" on="0"/>
        <pt x="864" y="657" on="1"/>
        <pt x="934" y="657" on="0"/>
        <pt x="1071" y="718" on="0"/>
      </contour>
    </TTGlyph>
    <TTGlyph name="asterisk" xMin="166" yMin="586" xMax="1067" yMax="1520">
      <contour>
        <pt x="1067" y="1247" on="1"/>
        <pt x="709" y="1053" on="1"/>
        <pt x="1067" y="858" on="1"/>
        <pt x="1010" y="760" on="1"/>
        <pt x="674" y="963" on="1"/>
        <pt x="674" y="586" on="1"/>
        <pt x="559" y="586" on="1"/>
        <pt x="559" y="963" on="1"/>
        <pt x="223" y="760" on="1"/>
        <pt x="166" y="858" on="1"/>
        <pt x="524" y="1053" on="1"/>
        <pt x="166" y="1247" on="1"/>
        <pt x="223" y="1346" on="1"/>
        <pt x="559" y="1143" on="1"/>
        <pt x="559" y="1520" on="1"/>
        <pt x="674" y="1520" on="1"/>
        <pt x="674" y="1143" on="1"/>
        <pt x="1010" y="1346" on="1"/>
      </contour>
    </TTGlyph>
    <TTGlyph name="at" xMin="27" yMin="-319" xMax="1178" yMax="1395">
      <contour>
        <pt x="1038" y="545" on="1"/>
        <pt x="1038" y="674" on="0"/>
        <pt x="910" y="829" on="0"/>
        <pt x="803" y="829" on="1"/>
        <pt x="696" y="829" on="0"/>
        <pt x="567" y="674" on="0"/>
        <pt x="567" y="545" on="1"/>
        <pt x="567" y="415" on="0"/>
        <pt x="696" y="260" on="0"/>
        <pt x="803" y="260" on="1"/>
        <pt x="910" y="260" on="0"/>
        <pt x="1038" y="415" on="0"/>
      </contour>
      <contour>
        <pt x="1178" y="135" on="1"/>
        <pt x="1034" y="135" on="1"/>
        <pt x="1034" y="246" on="1"/>
        <pt x="997" y="183" on="0"/>
        <pt x="866" y="115" on="0"/>
        <pt x="784" y="115" on="1"/>
        <pt x="623" y="115" on="0"/>
        <pt x="412" y="357" on="0"/>
        <pt x="412" y="545" on="1"/>
        <pt x="412" y="733" on="0"/>
        <pt x="623" y="975" on="0"/>
        <pt x="784" y="975" on="1"/>
        <pt x="864" y="975" on="0"/>
        <pt x="998" y="905" on="0"/>
        <pt x="1034" y="844" on="1"/>
        <pt x="1034" y="907" on="1"/>
        <pt x="1034" y="1063" on="0"/>
        <pt x="858" y="1253" on="0"/>
        <pt x="713" y="1253" on="1"/>
        <pt x="467" y="1253" on="0"/>
        <pt x="176" y="870" on="0"/>
        <pt x="176" y="543" on="1"/>
        <pt x="176" y="214" on="0"/>
        <pt x="506" y="-176" on="0"/>
        <pt x="780" y="-176" on="1"/>
        <pt x="834" y="-176" on="0"/>
        <pt x="942" y="-156" on="0"/>
        <pt x="999" y="-135" on="1"/>
        <pt x="1047" y="-270" on="1"/>
        <pt x="984" y="-295" on="0"/>
        <pt x="861" y="-319" on="0"/>
        <pt x="803" y="-319" on="1"/>
        <pt x="446" y="-319" on="0"/>
        <pt x="27" y="147" on="0"/>
        <pt x="27" y="543" on="1"/>
        <pt x="27" y="933" on="0"/>
        <pt x="403" y="1395" on="0"/>
        <pt x="719" y="1395" on="1"/>
        <pt x="928" y="1395" on="0"/>
        <pt x="1178" y="1129" on="0"/>
        <pt x="1178" y="905" on="1"/>
      </contour>
    </TTGlyph>
    <TTGlyph name="atilde" xMin="133" yMin="-29" xMax="1059" yMax="1591">
      <component glyphName="a" x="0" y="0" flags="0x4"/>
      <component glyphName="tilde" x="0" y="0" flags="0x4"/>
    </TTGlyph>
    <TTGlyph name="b" xMin="193" yMin="-29" xMax="1112" yMax="1556">
      <contour>
        <pt x="918" y="559" on="1"/>
        <pt x="918" y="773" on="0"/>
        <pt x="782" y="991" on="0"/>
        <pt x="649" y="991" on="1"/>
        <pt x="515" y="991" on="0"/>
        <pt x="377" y="772" on="0"/>
        <pt x="377" y="559" on="1"/>
        <pt x="377" y="347" on="0"/>
        <pt x="515" y="127" on="0"/>
        <pt x="649" y="127" on="1"/>
        <pt x="782" y="127" on="0"/>
        <pt x="918" y="345" on="0"/>
      </contour>
      <contour>
        <pt x="377" y="977" on="1"/>
        <pt x="421" y="1059" on="0"/>
        <pt x="576" y="1147" on="0"/>
        <pt x="678" y="1147" on="1"/>
        <pt x="880" y="1147" on="0"/>
        <pt x="1112" y="836" on="0"/>
        <pt x="1112" y="563" on="1"/>
        <pt x="1112" y="286" on="0"/>
        <pt x="879" y="-29" on="0"/>
        <pt x="676" y="-29" on="1"/>
        <pt x="576" y="-29" on="0"/>
        <pt x="423" y="58" on="0"/>
        <pt x="377" y="141" on="1"/>
        <pt x="377" y="0" on="1"/>
        <pt x="193" y="0" on="1"/>
        <pt x="193" y="1556" on="1"/>
        <pt x="377" y="1556" on="1"/>
      </contour>
    </TTGlyph>
    <TTGlyph name="backslash" xMin="102" yMin="-190" xMax="1079" yMax="1493">
      <contour>
        <pt x="293" y="1493" on="1"/>
        <pt x="1079" y="-190" on="1"/>
        <pt x="889" y="-190" on="1"/>
        <pt x="102" y="1493" on="1"/>
      </contour>
    </TTGlyph>
    <TTGlyph name="bar" xMin="530" yMin="-483" xMax="702" yMax="1565">
      <contour>
        <pt x="702" y="1565" on="1"/>
        <pt x="702" y="-483" on="1"/>
        <pt x="530" y="-483" on="1"/>
        <pt x="530" y="1565" on="1"/>
      </contour>
    </TTGlyph>
    <TTGlyph name="braceleft" xMin="221" yMin="-334" xMax="1012" yMax="1556">
      <contour>
        <pt x="1012" y="-190" on="1"/>
        <pt x="1012" y="-334" on="1"/>
        <pt x="948" y="-334" on="1"/>
        <pt x="699" y="-334" on="0"/>
        <pt x="530" y="-186" on="0"/>
        <pt x="530" y="35" on="1"/>
        <pt x="530" y="274" on="1"/>
        <pt x="530" y="425" on="0"/>
        <pt x="423" y="541" on="0"/>
        <pt x="283" y="541" on="1"/>
        <pt x="221" y="541" on="1"/>
        <pt x="221" y="684" on="1"/>
        <pt x="283" y="684" on="1"/>
        <pt x="424" y="684" on="0"/>
        <pt x="530" y="798" on="0"/>
        <pt x="530" y="948" on="1"/>
        <pt x="530" y="1188" on="1"/>
        <pt x="530" y="1409" on="0"/>
        <pt x="699" y="1556" on="0"/>
        <pt x="948" y="1556" on="1"/>
        <pt x="1012" y="1556" on="1"/>
        <pt x="1012" y="1413" on="1"/>
        <pt x="942" y="1413" on="1"/>
        <pt x="802" y="1413" on="0"/>
        <pt x="717" y="1326" on="0"/>
        <pt x="717" y="1184" on="1"/>
        <pt x="717" y="936" on="1"/>
        <pt x="717" y="779" on="0"/>
        <pt x="626" y="637" on="0"/>
        <pt x="516" y="612" on="1"/>
        <pt x="627" y="585" on="0"/>
        <pt x="717" y="443" on="0"/>
        <pt x="717" y="287" on="1"/>
        <pt x="717" y="39" on="1"/>
        <pt x="717" y="-104" on="0"/>
        <pt x="802" y="-190" on="0"/>
        <pt x="942" y="-190" on="1"/>
      </contour>
    </TTGlyph>
    <TTGlyph name="braceright" xMin="221" yMin="-334" xMax="1012" yMax="1556">
      <contour>
        <pt x="221" y="-190" on="1"/>
        <pt x="289" y="-190" on="1"/>
        <pt x="430" y="-190" on="0"/>
        <pt x="516" y="-102" on="0"/>
        <pt x="516" y="39" on="1"/>
        <pt x="516" y="287" on="1"/>
        <pt x="516" y="443" on="0"/>
        <pt x="606" y="585" on="0"/>
        <pt x="717" y="612" on="1"/>
        <pt x="607" y="637" on="0"/>
        <pt x="516" y="779" on="0"/>
        <pt x="516" y="936" on="1"/>
        <pt x="516" y="1184" on="1"/>
        <pt x="516" y="1325" on="0"/>
        <pt x="430" y="1413" on="0"/>
        <pt x="289" y="1413" on="1"/>
        <pt x="221" y="1413" on="1"/>
        <pt x="221" y="1556" on="1"/>
        <pt x="283" y="1556" on="1"/>
        <pt x="532" y="1556" on="0"/>
        <pt x="700" y="1409" on="0"/>
        <pt x="700" y="1188" on="1"/>
        <pt x="700" y="948" on="1"/>
        <pt x="700" y="798" on="0"/>
        <pt x="807" y="684" on="0"/>
        <pt x="948" y="684" on="1"/>
        <pt x="1012" y="684" on="1"/>
        <pt x="1012" y="541" on="1"/>
        <pt x="948" y="541" on="1"/>
        <pt x="807" y="541" on="0"/>
        <pt x="700" y="425" on="0"/>
        <pt x="700" y="274" on="1"/>
        <pt x="700" y="35" on="1"/>
        <pt x="700" y="-186" on="0"/>
        <pt x="532" y="-334" on="0"/>
        <pt x="283" y="-334" on="1"/>
        <pt x="221" y="-334" on="1"/>
      </contour>
    </TTGlyph>
    <TTGlyph name="bracketleft" xMin="463" yMin="-270" xMax="887" yMax="1556">
      <contour>
        <pt x="463" y="1556" on="1"/>
        <pt x="887" y="1556" on="1"/>
        <pt x="887" y="1413" on="1"/>
        <pt x="647" y="1413" on="1"/>
        <pt x="647" y="-127" on="1"/>
        <pt x="887" y="-127" on="1"/>
        <pt x="887" y="-270" on="1"/>
        <pt x="463" y="-270" on="1"/>
      </contour>
    </TTGlyph>
    <TTGlyph name="bracketright" xMin="346" yMin="-270" xMax="770" yMax="1556">
      <contour>
        <pt x="770" y="1556" on="1"/>
        <pt x="770" y="-270" on="1"/>
        <pt x="346" y="-270" on="1"/>
        <pt x="346" y="-127" on="1"/>
        <pt x="586" y="-127" on="1"/>
        <pt x="586" y="1413" on="1"/>
        <pt x="346" y="1413" on="1"/>
        <pt x="346" y="1556" on="1"/>
      </contour>
    </TTGlyph>
    <TTGlyph name="breve" xMin="303" yMin="1321" xMax="930" yMax="1608">
      <contour>
        <pt x="303" y="1608" on="1"/>
        <pt x="422" y="1608" on="1"/>
        <pt x="433" y="1532" on="0"/>
        <pt x="529" y="1458" on="0"/>
        <pt x="616" y="1458" on="1"/>
        <pt x="701" y="1458" on="0"/>
        <pt x="797" y="1532" on="0"/>
        <pt x="811" y="1608" on="1"/>
        <pt x="930" y="1608" on="1"/>
        <pt x="919" y="1465" on="0"/>
        <pt x="761" y="1321" on="0"/>
        <pt x="616" y="1321" on="1"/>
        <pt x="472" y="1321" on="0"/>
        <pt x="314" y="1465" on="0"/>
      </contour>
    </TTGlyph>
    <TTGlyph name="brokenbar" xMin="530" yMin="-350" xMax="702" yMax="1432">
      <contour>
        <pt x="702" y="1432" on="1"/>
        <pt x="702" y="674" on="1"/>
        <pt x="530" y="674" on="1"/>
        <pt x="530" y="1432" on="1"/>
      </contour>
      <contour>
        <pt x="702" y="408" on="1"/>
        <pt x="702" y="-350" on="1"/>
        <pt x="530" y="-350" on="1"/>
        <pt x="530" y="408" on="1"/>
      </contour>
    </TTGlyph>
    <TTGlyph name="bullet" xMin="319" yMin="465" xMax="913" yMax="1057">
      <contour>
        <pt x="319" y="762" on="1"/>
        <pt x="319" y="886" on="0"/>
        <pt x="491" y="1057" on="0"/>
        <pt x="616" y="1057" on="1"/>
        <pt x="740" y="1057" on="0"/>
        <pt x="913" y="885" on="0"/>
        <pt x="913" y="762" on="1"/>
        <pt x="913" y="638" on="0"/>
        <pt x="739" y="465" on="0"/>
        <pt x="614" y="465" on="1"/>
        <pt x="490" y="465" on="0"/>
        <pt x="319" y="636" on="0"/>
      </contour>
    </TTGlyph>
    <TTGlyph name="c" xMin="195" yMin="-29" xMax="1061" yMax="1147">
      <contour>
        <pt x="1061" y="57" on="1"/>
        <pt x="987" y="14" on="0"/>
        <pt x="830" y="-29" on="0"/>
        <pt x="748" y="-29" on="1"/>
        <pt x="488" y="-29" on="0"/>
        <pt x="195" y="283" on="0"/>
        <pt x="195" y="559" on="1"/>
        <pt x="195" y="835" on="0"/>
        <pt x="488" y="1147" on="0"/>
        <pt x="748" y="1147" on="1"/>
        <pt x="829" y="1147" on="0"/>
        <pt x="983" y="1105" on="0"/>
        <pt x="1061" y="1061" on="1"/>
        <pt x="1061" y="868" on="1"/>
        <pt x="988" y="933" on="0"/>
        <pt x="841" y="991" on="0"/>
        <pt x="748" y="991" on="1"/>
        <pt x="575" y="991" on="0"/>
        <pt x="389" y="767" on="0"/>
        <pt x="389" y="559" on="1"/>
        <pt x="389" y="352" on="0"/>
        <pt x="576" y="127" on="0"/>
        <pt x="748" y="127" on="1"/>
        <pt x="844" y="127" on="0"/>
        <pt x="996" y="186" on="0"/>
        <pt x="1061" y="248" on="1"/>
      </contour>
    </TTGlyph>
    <TTGlyph name="c6459" xMin="319" yMin="1294" xMax="913" yMax="1497">
      <contour>
        <pt x="319" y="1497" on="1"/>
        <pt x="522" y="1497" on="1"/>
        <pt x="522" y="1294" on="1"/>
        <pt x="319" y="1294" on="1"/>
      </contour>
      <contour>
        <pt x="711" y="1497" on="1"/>
        <pt x="913" y="1497" on="1"/>
        <pt x="913" y="1294" on="1"/>
        <pt x="711" y="1294" on="1"/>
      </contour>
    </TTGlyph>
    <TTGlyph name="c6460" xMin="475" yMin="1262" xMax="858" yMax="1526">
      <contour>
        <pt x="672" y="1526" on="1"/>
        <pt x="858" y="1526" on="1"/>
        <pt x="629" y="1262" on="1"/>
        <pt x="475" y="1262" on="1"/>
      </contour>
    </TTGlyph>
    <TTGlyph name="c6461" xMin="287" yMin="1294" xMax="946" yMax="1513">
      <contour>
        <pt x="612" y="1337" on="1"/>
        <pt x="555" y="1370" on="1"/>
        <pt x="530" y="1384" on="0"/>
        <pt x="499" y="1395" on="0"/>
        <pt x="487" y="1395" on="1"/>
        <pt x="452" y="1395" on="0"/>
        <pt x="412" y="1345" on="0"/>
        <pt x="412" y="1300" on="1"/>
        <pt x="412" y="1294" on="1"/>
        <pt x="287" y="1294" on="1"/>
        <pt x="287" y="1395" on="0"/>
        <pt x="390" y="1513" on="0"/>
        <pt x="475" y="1513" on="1"/>
        <pt x="511" y="1513" on="0"/>
        <pt x="572" y="1497" on="0"/>
        <pt x="621" y="1470" on="1"/>
        <pt x="678" y="1440" on="1"/>
        <pt x="700" y="1427" on="0"/>
        <pt x="735" y="1415" on="0"/>
        <pt x="750" y="1415" on="1"/>
        <pt x="781" y="1415" on="0"/>
        <pt x="821" y="1466" on="0"/>
        <pt x="821" y="1507" on="1"/>
        <pt x="821" y="1513" on="1"/>
        <pt x="946" y="1513" on="1"/>
        <pt x="944" y="1413" on="0"/>
        <pt x="842" y="1294" on="0"/>
        <pt x="758" y="1294" on="1"/>
        <pt x="724" y="1294" on="0"/>
        <pt x="664" y="1310" on="0"/>
      </contour>
    </TTGlyph>
    <TTGlyph name="c6468" xMin="377" yMin="1262" xMax="758" yMax="1526">
      <contour>
        <pt x="561" y="1526" on="1"/>
        <pt x="758" y="1262" on="1"/>
        <pt x="604" y="1262" on="1"/>
        <pt x="377" y="1526" on="1"/>
      </contour>
    </TTGlyph>
    <TTGlyph name="c6470" xMin="311" yMin="1262" xMax="922" yMax="1528">
      <contour>
        <pt x="522" y="1528" on="1"/>
        <pt x="711" y="1528" on="1"/>
        <pt x="922" y="1262" on="1"/>
        <pt x="782" y="1262" on="1"/>
        <pt x="616" y="1440" on="1"/>
        <pt x="451" y="1262" on="1"/>
        <pt x="311" y="1262" on="1"/>
      </contour>
    </TTGlyph>
    <TTGlyph name="c6472" xMin="311" yMin="1262" xMax="922" yMax="1528">
      <contour>
        <pt x="522" y="1262" on="1"/>
        <pt x="311" y="1528" on="1"/>
        <pt x="451" y="1528" on="1"/>
        <pt x="616" y="1350" on="1"/>
        <pt x="782" y="1528" on="1"/>
        <pt x="922" y="1528" on="1"/>
        <pt x="711" y="1262" on="1"/>
      </contour>
    </TTGlyph>
    <TTGlyph name="c6475" xMin="303" yMin="1286" xMax="930" yMax="1528">
      <contour>
        <pt x="303" y="1528" on="1"/>
        <pt x="422" y="1528" on="1"/>
        <pt x="434" y="1474" on="0"/>
        <pt x="534" y="1417" on="0"/>
        <pt x="616" y="1417" on="1"/>
        <pt x="699" y="1417" on="0"/>
        <pt x="796" y="1472" on="0"/>
        <pt x="811" y="1528" on="1"/>
        <pt x="930" y="1528" on="1"/>
        <pt x="919" y="1409" on="0"/>
        <pt x="760" y="1286" on="0"/>
        <pt x="616" y="1286" on="1"/>
        <pt x="472" y="1286" on="0"/>
        <pt x="314" y="1408" on="0"/>
      </contour>
    </TTGlyph>
    <TTGlyph name="c6476" xMin="514" yMin="1294" xMax="719" yMax="1499">
      <contour>
        <pt x="514" y="1499" on="1"/>
        <pt x="719" y="1499" on="1"/>
        <pt x="719" y="1294" on="1"/>
        <pt x="514" y="1294" on="1"/>
      </contour>
    </TTGlyph>
    <TTGlyph name="c6477" xMin="27" yMin="504" xMax="1114" yMax="874">
      <contour>
        <pt x="51" y="504" on="1"/>
        <pt x="27" y="612" on="1"/>
        <pt x="1087" y="874" on="1"/>
        <pt x="1114" y="766" on="1"/>
      </contour>
    </TTGlyph>
    <TTGlyph name="c6478" xMin="268" yMin="668" xMax="909" yMax="1503">
      <contour>
        <pt x="631" y="1503" on="1"/>
        <pt x="793" y="1503" on="1"/>
        <pt x="793" y="965" on="1"/>
        <pt x="909" y="965" on="1"/>
        <pt x="909" y="854" on="1"/>
        <pt x="793" y="854" on="1"/>
        <pt x="793" y="668" on="1"/>
        <pt x="655" y="668" on="1"/>
        <pt x="655" y="854" on="1"/>
        <pt x="268" y="854" on="1"/>
        <pt x="268" y="975" on="1"/>
      </contour>
      <contour>
        <pt x="655" y="1378" on="1"/>
        <pt x="381" y="965" on="1"/>
        <pt x="655" y="965" on="1"/>
      </contour>
    </TTGlyph>
    <TTGlyph name="cacute" xMin="195" yMin="-29" xMax="1061" yMax="1638">
      <component glyphName="c" x="0" y="0" flags="0x4"/>
      <component glyphName="acute" x="90" y="0" flags="0x4"/>
    </TTGlyph>
    <TTGlyph name="caron" xMin="297" yMin="1262" xMax="936" yMax="1638">
      <contour>
        <pt x="543" y="1262" on="1"/>
        <pt x="297" y="1638" on="1"/>
        <pt x="436" y="1638" on="1"/>
        <pt x="616" y="1393" on="1"/>
        <pt x="797" y="1638" on="1"/>
        <pt x="936" y="1638" on="1"/>
        <pt x="690" y="1262" on="1"/>
      </contour>
    </TTGlyph>
    <TTGlyph name="ccaron" xMin="195" yMin="-29" xMax="1061" yMax="1638">
      <component glyphName="c" x="0" y="0" flags="0x4"/>
      <component glyphName="caron" x="90" y="0" flags="0x4"/>
    </TTGlyph>
    <TTGlyph name="ccedilla" xMin="195" yMin="-395" xMax="1061" yMax="1147">
      <component glyphName="c" x="0" y="0" flags="0x4"/>
      <component glyphName="cedilla" x="104" y="0" flags="0x4"/>
    </TTGlyph>
    <TTGlyph name="cedilla" xMin="395" yMin="-395" xMax="809" yMax="0">
      <contour>
        <pt x="700" y="0" on="1"/>
        <pt x="756" y="-62" on="0"/>
        <pt x="809" y="-167" on="0"/>
        <pt x="809" y="-215" on="1"/>
        <pt x="809" y="-304" on="0"/>
        <pt x="689" y="-395" on="0"/>
        <pt x="571" y="-395" on="1"/>
        <pt x="526" y="-395" on="0"/>
        <pt x="439" y="-383" on="0"/>
        <pt x="395" y="-371" on="1"/>
        <pt x="395" y="-240" on="1"/>
        <pt x="429" y="-257" on="0"/>
        <pt x="504" y="-272" on="0"/>
        <pt x="551" y="-272" on="1"/>
        <pt x="609" y="-272" on="0"/>
        <pt x="670" y="-224" on="0"/>
        <pt x="670" y="-178" on="1"/>
        <pt x="670" y="-148" on="0"/>
        <pt x="626" y="-61" on="0"/>
        <pt x="582" y="0" on="1"/>
      </contour>
    </TTGlyph>
    <TTGlyph name="cent" xMin="213" yMin="-313" xMax="1061" yMax="1432">
      <contour>
        <pt x="1061" y="1077" on="1"/>
        <pt x="1061" y="905" on="1"/>
        <pt x="994" y="945" on="0"/>
        <pt x="864" y="989" on="0"/>
        <pt x="801" y="993" on="1"/>
        <pt x="801" y="123" on="1"/>
        <pt x="864" y="128" on="0"/>
        <pt x="995" y="173" on="0"/>
        <pt x="1061" y="213" on="1"/>
        <pt x="1061" y="41" on="1"/>
        <pt x="988" y="10" on="0"/>
        <pt x="858" y="-24" on="0"/>
        <pt x="801" y="-27" on="1"/>
        <pt x="801" y="-313" on="1"/>
        <pt x="698" y="-313" on="1"/>
        <pt x="698" y="-27" on="1"/>
        <pt x="473" y="-5" on="0"/>
        <pt x="213" y="308" on="0"/>
        <pt x="213" y="559" on="1"/>
        <pt x="213" y="809" on="0"/>
        <pt x="476" y="1126" on="0"/>
        <pt x="698" y="1145" on="1"/>
        <pt x="698" y="1432" on="1"/>
        <pt x="801" y="1432" on="1"/>
        <pt x="801" y="1145" on="1"/>
        <pt x="858" y="1142" on="0"/>
        <pt x="988" y="1108" on="0"/>
      </contour>
      <contour>
        <pt x="698" y="127" on="1"/>
        <pt x="698" y="991" on="1"/>
        <pt x="566" y="979" on="0"/>
        <pt x="406" y="743" on="0"/>
        <pt x="406" y="559" on="1"/>
        <pt x="406" y="375" on="0"/>
        <pt x="566" y="140" on="0"/>
      </contour>
    </TTGlyph>
    <TTGlyph name="circumflex" xMin="297" yMin="1262" xMax="936" yMax="1638">
      <contour>
        <pt x="543" y="1638" on="1"/>
        <pt x="690" y="1638" on="1"/>
        <pt x="936" y="1262" on="1"/>
        <pt x="797" y="1262" on="1"/>
        <pt x="616" y="1507" on="1"/>
        <pt x="436" y="1262" on="1"/>
        <pt x="297" y="1262" on="1"/>
      </contour>
    </TTGlyph>
    <TTGlyph name="colon" xMin="489" yMin="0" xMax="741" yMax="1063">
      <contour>
        <pt x="489" y="1063" on="1"/>
        <pt x="741" y="1063" on="1"/>
        <pt x="741" y="760" on="1"/>
        <pt x="489" y="760" on="1"/>
      </contour>
      <contour>
        <pt x="489" y="305" on="1"/>
        <pt x="741" y="305" on="1"/>
        <pt x="741" y="0" on="1"/>
        <pt x="489" y="0" on="1"/>
      </contour>
    </TTGlyph>
    <TTGlyph name="comma" xMin="403" yMin="-287" xMax="754" yMax="303">
      <contour>
        <pt x="502" y="303" on="1"/>
        <pt x="754" y="303" on="1"/>
        <pt x="754" y="96" on="1"/>
        <pt x="557" y="-287" on="1"/>
        <pt x="403" y="-287" on="1"/>
        <pt x="502" y="96" on="1"/>
      </contour>
    </TTGlyph>
    <TTGlyph name="copyright" xMin="0" yMin="125" xMax="1233" yMax="1358">
      <contour>
        <pt x="864" y="1071" on="1"/>
        <pt x="864" y="963" on="1"/>
        <pt x="806" y="991" on="0"/>
        <pt x="695" y="1018" on="0"/>
        <pt x="637" y="1018" on="1"/>
        <pt x="520" y="1018" on="0"/>
        <pt x="385" y="869" on="0"/>
        <pt x="385" y="741" on="1"/>
        <pt x="385" y="609" on="0"/>
        <pt x="525" y="467" on="0"/>
        <pt x="655" y="467" on="1"/>
        <pt x="711" y="467" on="0"/>
        <pt x="814" y="492" on="0"/>
        <pt x="864" y="518" on="1"/>
        <pt x="864" y="414" on="1"/>
        <pt x="812" y="391" on="0"/>
        <pt x="698" y="369" on="0"/>
        <pt x="637" y="369" on="1"/>
        <pt x="457" y="369" on="0"/>
        <pt x="250" y="569" on="0"/>
        <pt x="250" y="741" on="1"/>
        <pt x="250" y="914" on="0"/>
        <pt x="458" y="1116" on="0"/>
        <pt x="637" y="1116" on="1"/>
        <pt x="698" y="1116" on="0"/>
        <pt x="812" y="1094" on="0"/>
      </contour>
      <contour>
        <pt x="616" y="1255" on="1"/>
        <pt x="510" y="1255" on="0"/>
        <pt x="329" y="1181" on="0"/>
        <pt x="254" y="1106" on="1"/>
        <pt x="179" y="1031" on="0"/>
        <pt x="102" y="847" on="0"/>
        <pt x="102" y="741" on="1"/>
        <pt x="102" y="637" on="0"/>
        <pt x="179" y="454" on="0"/>
        <pt x="254" y="379" on="1"/>
        <pt x="330" y="303" on="0"/>
        <pt x="511" y="227" on="0"/>
        <pt x="616" y="227" on="1"/>
        <pt x="722" y="227" on="0"/>
        <pt x="903" y="303" on="0"/>
        <pt x="979" y="379" on="1"/>
        <pt x="1055" y="455" on="0"/>
        <pt x="1130" y="636" on="0"/>
        <pt x="1130" y="741" on="1"/>
        <pt x="1130" y="847" on="0"/>
        <pt x="1054" y="1031" on="0"/>
        <pt x="979" y="1106" on="1"/>
        <pt x="904" y="1181" on="0"/>
        <pt x="723" y="1255" on="0"/>
      </contour>
      <contour>
        <pt x="616" y="1358" on="1"/>
        <pt x="743" y="1358" on="0"/>
        <pt x="961" y="1268" on="0"/>
        <pt x="1051" y="1178" on="1"/>
        <pt x="1141" y="1087" on="0"/>
        <pt x="1233" y="867" on="0"/>
        <pt x="1233" y="741" on="1"/>
        <pt x="1233" y="616" on="0"/>
        <pt x="1142" y="398" on="0"/>
        <pt x="1051" y="307" on="1"/>
        <pt x="960" y="216" on="0"/>
        <pt x="742" y="125" on="0"/>
        <pt x="616" y="125" on="1"/>
        <pt x="491" y="125" on="0"/>
        <pt x="273" y="216" on="0"/>
        <pt x="182" y="307" on="1"/>
        <pt x="91" y="398" on="0"/>
        <pt x="0" y="616" on="0"/>
        <pt x="0" y="741" on="1"/>
        <pt x="0" y="867" on="0"/>
        <pt x="92" y="1087" on="0"/>
        <pt x="182" y="1178" on="1"/>
        <pt x="272" y="1268" on="0"/>
        <pt x="490" y="1358" on="0"/>
      </contour>
    </TTGlyph>
    <TTGlyph name="currency" xMin="205" yMin="195" xMax="1100" yMax="1090">
      <contour>
        <pt x="868" y="643" on="1"/>
        <pt x="868" y="733" on="0"/>
        <pt x="744" y="856" on="0"/>
        <pt x="653" y="856" on="1"/>
        <pt x="563" y="856" on="0"/>
        <pt x="438" y="733" on="0"/>
        <pt x="438" y="643" on="1"/>
        <pt x="438" y="551" on="0"/>
        <pt x="563" y="426" on="0"/>
        <pt x="653" y="426" on="1"/>
        <pt x="744" y="426" on="0"/>
        <pt x="868" y="552" on="0"/>
      </contour>
      <contour>
        <pt x="844" y="924" on="1"/>
        <pt x="1010" y="1090" on="1"/>
        <pt x="1100" y="997" on="1"/>
        <pt x="934" y="831" on="1"/>
        <pt x="964" y="782" on="0"/>
        <pt x="993" y="689" on="0"/>
        <pt x="993" y="641" on="1"/>
        <pt x="993" y="591" on="0"/>
        <pt x="963" y="500" on="0"/>
        <pt x="932" y="455" on="1"/>
        <pt x="1100" y="289" on="1"/>
        <pt x="1006" y="195" on="1"/>
        <pt x="840" y="362" on="1"/>
        <pt x="794" y="331" on="0"/>
        <pt x="703" y="301" on="0"/>
        <pt x="653" y="301" on="1"/>
        <pt x="605" y="301" on="0"/>
        <pt x="509" y="330" on="0"/>
        <pt x="461" y="358" on="1"/>
        <pt x="297" y="195" on="1"/>
        <pt x="205" y="285" on="1"/>
        <pt x="371" y="451" on="1"/>
        <pt x="340" y="502" on="0"/>
        <pt x="311" y="595" on="0"/>
        <pt x="311" y="641" on="1"/>
        <pt x="311" y="691" on="0"/>
        <pt x="342" y="784" on="0"/>
        <pt x="373" y="829" on="1"/>
        <pt x="205" y="995" on="1"/>
        <pt x="299" y="1090" on="1"/>
        <pt x="465" y="922" on="1"/>
        <pt x="511" y="953" on="0"/>
        <pt x="602" y="983" on="0"/>
        <pt x="653" y="983" on="1"/>
        <pt x="699" y="983" on="0"/>
        <pt x="793" y="954" on="0"/>
      </contour>
    </TTGlyph>
    <TTGlyph name="d" xMin="123" yMin="-29" xMax="1042" yMax="1556">
      <contour>
        <pt x="858" y="977" on="1"/>
        <pt x="858" y="1556" on="1"/>
        <pt x="1042" y="1556" on="1"/>
        <pt x="1042" y="0" on="1"/>
        <pt x="858" y="0" on="1"/>
        <pt x="858" y="141" on="1"/>
        <pt x="812" y="58" on="0"/>
        <pt x="659" y="-29" on="0"/>
        <pt x="559" y="-29" on="1"/>
        <pt x="356" y="-29" on="0"/>
        <pt x="123" y="286" on="0"/>
        <pt x="123" y="563" on="1"/>
        <pt x="123" y="836" on="0"/>
        <pt x="357" y="1147" on="0"/>
        <pt x="559" y="1147" on="1"/>
        <pt x="660" y="1147" on="0"/>
        <pt x="814" y="1060" on="0"/>
      </contour>
      <contour>
        <pt x="317" y="559" on="1"/>
        <pt x="317" y="345" on="0"/>
        <pt x="453" y="127" on="0"/>
        <pt x="586" y="127" on="1"/>
        <pt x="719" y="127" on="0"/>
        <pt x="858" y="347" on="0"/>
        <pt x="858" y="559" on="1"/>
        <pt x="858" y="772" on="0"/>
        <pt x="719" y="991" on="0"/>
        <pt x="586" y="991" on="1"/>
        <pt x="453" y="991" on="0"/>
        <pt x="317" y="773" on="0"/>
      </contour>
    </TTGlyph>
    <TTGlyph name="dagger" xMin="162" yMin="-197" xMax="1071" yMax="1493">
      <contour>
        <pt x="528" y="1493" on="1"/>
        <pt x="705" y="1493" on="1"/>
        <pt x="705" y="1073" on="1"/>
        <pt x="1071" y="1073" on="1"/>
        <pt x="1071" y="920" on="1"/>
        <pt x="705" y="920" on="1"/>
        <pt x="705" y="-197" on="1"/>
        <pt x="528" y="-197" on="1"/>
        <pt x="528" y="920" on="1"/>
        <pt x="162" y="920" on="1"/>
        <pt x="162" y="1073" on="1"/>
        <pt x="528" y="1073" on="1"/>
      </contour>
    </TTGlyph>
    <TTGlyph name="daggerdbl" xMin="162" yMin="-197" xMax="1071" yMax="1493">
      <contour>
        <pt x="1071" y="223" on="1"/>
        <pt x="705" y="223" on="1"/>
        <pt x="705" y="-197" on="1"/>
        <pt x="528" y="-197" on="1"/>
        <pt x="528" y="223" on="1"/>
        <pt x="162" y="223" on="1"/>
        <pt x="162" y="377" on="1"/>
        <pt x="528" y="377" on="1"/>
        <pt x="528" y="920" on="1"/>
        <pt x="162" y="920" on="1"/>
        <pt x="162" y="1073" on="1"/>
        <pt x="528" y="1073" on="1"/>
        <pt x="528" y="1493" on="1"/>
        <pt x="705" y="1493" on="1"/>
        <pt x="705" y="1073" on="1"/>
        <pt x="1071" y="1073" on="1"/>
        <pt x="1071" y="920" on="1"/>
        <pt x="705" y="920" on="1"/>
        <pt x="705" y="377" on="1"/>
        <pt x="1071" y="377" on="1"/>
      </contour>
    </TTGlyph>
    <TTGlyph name="dcroat" xMin="123" yMin="-29" xMax="1233" yMax="1556">
      <contour>
        <pt x="858" y="977" on="1"/>
        <pt x="858" y="1286" on="1"/>
        <pt x="553" y="1286" on="1"/>
        <pt x="553" y="1407" on="1"/>
        <pt x="858" y="1407" on="1"/>
        <pt x="858" y="1556" on="1"/>
        <pt x="1042" y="1556" on="1"/>
        <pt x="1042" y="1407" on="1"/>
        <pt x="1233" y="1407" on="1"/>
        <pt x="1233" y="1286" on="1"/>
        <pt x="1042" y="1286" on="1"/>
        <pt x="1042" y="0" on="1"/>
        <pt x="858" y="0" on="1"/>
        <pt x="858" y="141" on="1"/>
        <pt x="812" y="58" on="0"/>
        <pt x="659" y="-29" on="0"/>
        <pt x="559" y="-29" on="1"/>
        <pt x="356" y="-29" on="0"/>
        <pt x="123" y="286" on="0"/>
        <pt x="123" y="563" on="1"/>
        <pt x="123" y="836" on="0"/>
        <pt x="357" y="1147" on="0"/>
        <pt x="559" y="1147" on="1"/>
        <pt x="660" y="1147" on="0"/>
        <pt x="814" y="1060" on="0"/>
      </contour>
      <contour>
        <pt x="317" y="559" on="1"/>
        <pt x="317" y="345" on="0"/>
        <pt x="453" y="127" on="0"/>
        <pt x="586" y="127" on="1"/>
        <pt x="719" y="127" on="0"/>
        <pt x="858" y="347" on="0"/>
        <pt x="858" y="559" on="1"/>
        <pt x="858" y="772" on="0"/>
        <pt x="719" y="991" on="0"/>
        <pt x="586" y="991" on="1"/>
        <pt x="453" y="991" on="0"/>
        <pt x="317" y="773" on="0"/>
      </contour>
    </TTGlyph>
    <TTGlyph name="degree" xMin="299" yMin="885" xMax="934" yMax="1520">
      <contour>
        <pt x="616" y="1520" on="1"/>
        <pt x="681" y="1520" on="0"/>
        <pt x="798" y="1471" on="0"/>
        <pt x="842" y="1425" on="1"/>
        <pt x="887" y="1380" on="0"/>
        <pt x="934" y="1266" on="0"/>
        <pt x="934" y="1200" on="1"/>
        <pt x="934" y="1068" on="0"/>
        <pt x="748" y="885" on="0"/>
        <pt x="614" y="885" on="1"/>
        <pt x="479" y="885" on="0"/>
        <pt x="299" y="1065" on="0"/>
        <pt x="299" y="1200" on="1"/>
        <pt x="299" y="1334" on="0"/>
        <pt x="483" y="1520" on="0"/>
      </contour>
      <contour>
        <pt x="616" y="1391" on="1"/>
        <pt x="537" y="1391" on="0"/>
        <pt x="426" y="1280" on="0"/>
        <pt x="426" y="1200" on="1"/>
        <pt x="426" y="1120" on="0"/>
        <pt x="535" y="1012" on="0"/>
        <pt x="614" y="1012" on="1"/>
        <pt x="694" y="1012" on="0"/>
        <pt x="807" y="1122" on="0"/>
        <pt x="807" y="1200" on="1"/>
        <pt x="807" y="1279" on="0"/>
        <pt x="695" y="1391" on="0"/>
      </contour>
    </TTGlyph>
    <TTGlyph name="dieresis" xMin="319" yMin="1350" xMax="913" yMax="1552">
      <contour>
        <pt x="319" y="1552" on="1"/>
        <pt x="522" y="1552" on="1"/>
        <pt x="522" y="1350" on="1"/>
        <pt x="319" y="1350" on="1"/>
      </contour>
      <contour>
        <pt x="711" y="1552" on="1"/>
        <pt x="913" y="1552" on="1"/>
        <pt x="913" y="1350" on="1"/>
        <pt x="711" y="1350" on="1"/>
      </contour>
    </TTGlyph>
    <TTGlyph name="divide" xMin="88" yMin="150" xMax="1145" yMax="1135">
      <contour>
        <pt x="494" y="395" on="1"/>
        <pt x="739" y="395" on="1"/>
        <pt x="739" y="150" on="1"/>
        <pt x="494" y="150" on="1"/>
      </contour>
      <contour>
        <pt x="494" y="1135" on="1"/>
        <pt x="739" y="1135" on="1"/>
        <pt x="739" y="889" on="1"/>
        <pt x="494" y="889" on="1"/>
      </contour>
      <contour>
        <pt x="88" y="727" on="1"/>
        <pt x="1145" y="727" on="1"/>
        <pt x="1145" y="557" on="1"/>
        <pt x="88" y="557" on="1"/>
      </contour>
    </TTGlyph>
    <TTGlyph name="dollar" xMin="190" yMin="-301" xMax="1114" yMax="1556">
      <contour>
        <pt x="692" y="580" on="1"/>
        <pt x="692" y="146" on="1"/>
        <pt x="802" y="149" on="0"/>
        <pt x="926" y="265" on="0"/>
        <pt x="926" y="365" on="1"/>
        <pt x="926" y="458" on="0"/>
        <pt x="814" y="561" on="0"/>
      </contour>
      <contour>
        <pt x="592" y="770" on="1"/>
        <pt x="592" y="1183" on="1"/>
        <pt x="488" y="1179" on="0"/>
        <pt x="371" y="1067" on="0"/>
        <pt x="371" y="973" on="1"/>
        <pt x="371" y="887" on="0"/>
        <pt x="480" y="787" on="0"/>
      </contour>
      <contour>
        <pt x="692" y="-301" on="1"/>
        <pt x="592" y="-301" on="1"/>
        <pt x="591" y="0" on="1"/>
        <pt x="489" y="5" on="0"/>
        <pt x="288" y="51" on="0"/>
        <pt x="190" y="92" on="1"/>
        <pt x="190" y="272" on="1"/>
        <pt x="290" y="210" on="0"/>
        <pt x="493" y="144" on="0"/>
        <pt x="592" y="142" on="1"/>
        <pt x="592" y="600" on="1"/>
        <pt x="392" y="631" on="0"/>
        <pt x="190" y="813" on="0"/>
        <pt x="190" y="963" on="1"/>
        <pt x="190" y="1120" on="0"/>
        <pt x="401" y="1307" on="0"/>
        <pt x="592" y="1321" on="1"/>
        <pt x="592" y="1556" on="1"/>
        <pt x="692" y="1556" on="1"/>
        <pt x="693" y="1321" on="1"/>
        <pt x="772" y="1316" on="0"/>
        <pt x="934" y="1286" on="0"/>
        <pt x="1018" y="1260" on="1"/>
        <pt x="1018" y="1087" on="1"/>
        <pt x="933" y="1130" on="0"/>
        <pt x="772" y="1177" on="0"/>
        <pt x="692" y="1181" on="1"/>
        <pt x="692" y="750" on="1"/>
        <pt x="898" y="719" on="0"/>
        <pt x="1114" y="525" on="0"/>
        <pt x="1114" y="371" on="1"/>
        <pt x="1114" y="217" on="0"/>
        <pt x="881" y="11" on="0"/>
        <pt x="693" y="2" on="1"/>
      </contour>
    </TTGlyph>
    <TTGlyph name="dotaccent" xMin="514" yMin="1348" xMax="719" yMax="1552">
      <contour>
        <pt x="514" y="1552" on="1"/>
        <pt x="719" y="1552" on="1"/>
        <pt x="719" y="1348" on="1"/>
        <pt x="514" y="1348" on="1"/>
      </contour>
    </TTGlyph>
    <TTGlyph name="dotlessi" xMin="178" yMin="0" xMax="1092" yMax="1120">
      <contour>
        <pt x="256" y="1120" on="1"/>
        <pt x="727" y="1120" on="1"/>
        <pt x="727" y="143" on="1"/>
        <pt x="1092" y="143" on="1"/>
        <pt x="1092" y="0" on="1"/>
        <pt x="178" y="0" on="1"/>
        <pt x="178" y="143" on="1"/>
        <pt x="543" y="143" on="1"/>
        <pt x="543" y="977" on="1"/>
        <pt x="256" y="977" on="1"/>
      </contour>
    </TTGlyph>
    <TTGlyph name="e" xMin="123" yMin="-29" xMax="1112" yMax="1147">
      <contour>
        <pt x="1112" y="606" on="1"/>
        <pt x="1112" y="516" on="1"/>
        <pt x="315" y="516" on="1"/>
        <pt x="315" y="510" on="1"/>
        <pt x="315" y="327" on="0"/>
        <pt x="506" y="127" on="0"/>
        <pt x="680" y="127" on="1"/>
        <pt x="768" y="127" on="0"/>
        <pt x="960" y="183" on="0"/>
        <pt x="1069" y="240" on="1"/>
        <pt x="1069" y="57" on="1"/>
        <pt x="964" y="14" on="0"/>
        <pt x="769" y="-29" on="0"/>
        <pt x="678" y="-29" on="1"/>
        <pt x="417" y="-29" on="0"/>
        <pt x="123" y="284" on="0"/>
        <pt x="123" y="559" on="1"/>
        <pt x="123" y="827" on="0"/>
        <pt x="411" y="1147" on="0"/>
        <pt x="651" y="1147" on="1"/>
        <pt x="865" y="1147" on="0"/>
        <pt x="1112" y="857" on="0"/>
      </contour>
      <contour>
        <pt x="928" y="660" on="1"/>
        <pt x="924" y="822" on="0"/>
        <pt x="779" y="991" on="0"/>
        <pt x="643" y="991" on="1"/>
        <pt x="510" y="991" on="0"/>
        <pt x="338" y="815" on="0"/>
        <pt x="322" y="659" on="1"/>
      </contour>
    </TTGlyph>
    <TTGlyph name="eacute" xMin="123" yMin="-29" xMax="1112" yMax="1638">
      <component glyphName="e" x="0" y="0" flags="0x4"/>
      <component glyphName="acute" x="14" y="0" flags="0x4"/>
    </TTGlyph>
    <TTGlyph name="ecircumflex" xMin="123" yMin="-29" xMax="1112" yMax="1638">
      <component glyphName="e" x="0" y="0" flags="0x4"/>
      <component glyphName="circumflex" x="14" y="0" flags="0x4"/>
    </TTGlyph>
    <TTGlyph name="edieresis" xMin="123" yMin="-29" xMax="1112" yMax="1552">
      <component glyphName="e" x="0" y="0" flags="0x4"/>
      <component glyphName="dieresis" x="14" y="0" flags="0x4"/>
    </TTGlyph>
    <TTGlyph name="egrave" xMin="123" yMin="-29" xMax="1112" yMax="1638">
      <component glyphName="e" x="0" y="0" flags="0x4"/>
      <component glyphName="grave" x="14" y="0" flags="0x4"/>
    </TTGlyph>
    <TTGlyph name="eight" xMin="131" yMin="-29" xMax="1102" yMax="1520">
      <contour>
        <pt x="616" y="709" on="1"/>
        <pt x="481" y="709" on="0"/>
        <pt x="334" y="558" on="0"/>
        <pt x="334" y="420" on="1"/>
        <pt x="334" y="282" on="0"/>
        <pt x="483" y="129" on="0"/>
        <pt x="616" y="129" on="1"/>
        <pt x="752" y="129" on="0"/>
        <pt x="899" y="280" on="0"/>
        <pt x="899" y="420" on="1"/>
        <pt x="899" y="557" on="0"/>
        <pt x="750" y="709" on="0"/>
      </contour>
      <contour>
        <pt x="440" y="793" on="1"/>
        <pt x="311" y="826" on="0"/>
        <pt x="166" y="1006" on="0"/>
        <pt x="166" y="1133" on="1"/>
        <pt x="166" y="1311" on="0"/>
        <pt x="408" y="1520" on="0"/>
        <pt x="616" y="1520" on="1"/>
        <pt x="825" y="1520" on="0"/>
        <pt x="1067" y="1311" on="0"/>
        <pt x="1067" y="1133" on="1"/>
        <pt x="1067" y="1006" on="0"/>
        <pt x="922" y="826" on="0"/>
        <pt x="793" y="793" on="1"/>
        <pt x="943" y="760" on="0"/>
        <pt x="1102" y="560" on="0"/>
        <pt x="1102" y="401" on="1"/>
        <pt x="1102" y="199" on="0"/>
        <pt x="844" y="-29" on="0"/>
        <pt x="616" y="-29" on="1"/>
        <pt x="388" y="-29" on="0"/>
        <pt x="131" y="198" on="0"/>
        <pt x="131" y="399" on="1"/>
        <pt x="131" y="559" on="0"/>
        <pt x="290" y="760" on="0"/>
      </contour>
      <contour>
        <pt x="367" y="1114" on="1"/>
        <pt x="367" y="994" on="0"/>
        <pt x="495" y="868" on="0"/>
        <pt x="616" y="868" on="1"/>
        <pt x="738" y="868" on="0"/>
        <pt x="866" y="994" on="0"/>
        <pt x="866" y="1114" on="1"/>
        <pt x="866" y="1236" on="0"/>
        <pt x="739" y="1364" on="0"/>
        <pt x="616" y="1364" on="1"/>
        <pt x="495" y="1364" on="0"/>
        <pt x="367" y="1235" on="0"/>
      </contour>
    </TTGlyph>
    <TTGlyph name="ellipsis" xMin="80" yMin="0" xMax="1151" yMax="305">
      <contour>
        <pt x="80" y="305" on="1"/>
        <pt x="332" y="305" on="1"/>
        <pt x="332" y="0" on="1"/>
        <pt x="80" y="0" on="1"/>
      </contour>
      <contour>
        <pt x="899" y="305" on="1"/>
        <pt x="1151" y="305" on="1"/>
        <pt x="1151" y="0" on="1"/>
        <pt x="899" y="0" on="1"/>
      </contour>
      <contour>
        <pt x="489" y="305" on="1"/>
        <pt x="741" y="305" on="1"/>
        <pt x="741" y="0" on="1"/>
        <pt x="489" y="0" on="1"/>
      </contour>
    </TTGlyph>
    <TTGlyph name="emdash" xMin="0" yMin="492" xMax="1233" yMax="633">
      <contour>
        <pt x="0" y="633" on="1"/>
        <pt x="1233" y="633" on="1"/>
        <pt x="1233" y="492" on="1"/>
        <pt x="0" y="492" on="1"/>
      </contour>
    </TTGlyph>
    <TTGlyph name="endash" xMin="0" yMin="492" xMax="1233" yMax="633">
      <contour>
        <pt x="0" y="633" on="1"/>
        <pt x="1233" y="633" on="1"/>
        <pt x="1233" y="492" on="1"/>
        <pt x="0" y="492" on="1"/>
      </contour>
    </TTGlyph>
    <TTGlyph name="equal" xMin="88" yMin="352" xMax="1145" yMax="930">
      <contour>
        <pt x="88" y="524" on="1"/>
        <pt x="1145" y="524" on="1"/>
        <pt x="1145" y="352" on="1"/>
        <pt x="88" y="352" on="1"/>
      </contour>
      <contour>
        <pt x="88" y="930" on="1"/>
        <pt x="1145" y="930" on="1"/>
        <pt x="1145" y="760" on="1"/>
        <pt x="88" y="760" on="1"/>
      </contour>
    </TTGlyph>
    <TTGlyph name="eth" xMin="137" yMin="-29" xMax="1096" yMax="1556">
      <contour>
        <pt x="717" y="1327" on="1"/>
        <pt x="914" y="1115" on="0"/>
        <pt x="1096" y="735" on="0"/>
        <pt x="1096" y="535" on="1"/>
        <pt x="1096" y="267" on="0"/>
        <pt x="845" y="-29" on="0"/>
        <pt x="616" y="-29" on="1"/>
        <pt x="388" y="-29" on="0"/>
        <pt x="137" y="267" on="0"/>
        <pt x="137" y="535" on="1"/>
        <pt x="137" y="800" on="0"/>
        <pt x="388" y="1096" on="0"/>
        <pt x="612" y="1096" on="1"/>
        <pt x="646" y="1096" on="0"/>
        <pt x="681" y="1094" on="0"/>
        <pt x="696" y="1092" on="1"/>
        <pt x="663" y="1137" on="0"/>
        <pt x="591" y="1226" on="0"/>
        <pt x="553" y="1270" on="1"/>
        <pt x="274" y="1178" on="1"/>
        <pt x="244" y="1276" on="1"/>
        <pt x="481" y="1356" on="1"/>
        <pt x="299" y="1556" on="1"/>
        <pt x="518" y="1556" on="1"/>
        <pt x="645" y="1411" on="1"/>
        <pt x="934" y="1505" on="1"/>
        <pt x="967" y="1407" on="1"/>
      </contour>
      <contour>
        <pt x="793" y="918" on="1"/>
        <pt x="758" y="931" on="0"/>
        <pt x="676" y="944" on="0"/>
        <pt x="631" y="944" on="1"/>
        <pt x="485" y="944" on="0"/>
        <pt x="332" y="734" on="0"/>
        <pt x="332" y="535" on="1"/>
        <pt x="332" y="339" on="0"/>
        <pt x="480" y="127" on="0"/>
        <pt x="616" y="127" on="1"/>
        <pt x="753" y="127" on="0"/>
        <pt x="901" y="339" on="0"/>
        <pt x="901" y="535" on="1"/>
        <pt x="901" y="645" on="0"/>
        <pt x="843" y="848" on="0"/>
      </contour>
    </TTGlyph>
    <TTGlyph name="exclam" xMin="516" yMin="0" xMax="719" yMax="1493">
      <contour>
        <pt x="516" y="1493" on="1"/>
        <pt x="719" y="1493" on="1"/>
        <pt x="719" y="838" on="1"/>
        <pt x="698" y="481" on="1"/>
        <pt x="537" y="481" on="1"/>
        <pt x="516" y="838" on="1"/>
      </contour>
      <contour>
        <pt x="516" y="254" on="1"/>
        <pt x="719" y="254" on="1"/>
        <pt x="719" y="0" on="1"/>
        <pt x="516" y="0" on="1"/>
      </contour>
    </TTGlyph>
    <TTGlyph name="exclamdown" xMin="516" yMin="0" xMax="719" yMax="1493">
      <contour>
        <pt x="516" y="1239" on="1"/>
        <pt x="516" y="1493" on="1"/>
        <pt x="719" y="1493" on="1"/>
        <pt x="719" y="1239" on="1"/>
      </contour>
      <contour>
        <pt x="516" y="0" on="1"/>
        <pt x="516" y="655" on="1"/>
        <pt x="537" y="1012" on="1"/>
        <pt x="698" y="1012" on="1"/>
        <pt x="719" y="655" on="1"/>
        <pt x="719" y="0" on="1"/>
      </contour>
    </TTGlyph>
    <TTGlyph name="f" xMin="195" yMin="0" xMax="1063" yMax="1556">
      <contour>
        <pt x="1063" y="1556" on="1"/>
        <pt x="1063" y="1403" on="1"/>
        <pt x="854" y="1403" on="1"/>
        <pt x="755" y="1403" on="0"/>
        <pt x="678" y="1322" on="0"/>
        <pt x="678" y="1219" on="1"/>
        <pt x="678" y="1120" on="1"/>
        <pt x="1063" y="1120" on="1"/>
        <pt x="1063" y="977" on="1"/>
        <pt x="678" y="977" on="1"/>
        <pt x="678" y="0" on="1"/>
        <pt x="494" y="0" on="1"/>
        <pt x="494" y="977" on="1"/>
        <pt x="195" y="977" on="1"/>
        <pt x="195" y="1120" on="1"/>
        <pt x="494" y="1120" on="1"/>
        <pt x="494" y="1198" on="1"/>
        <pt x="494" y="1382" on="0"/>
        <pt x="663" y="1556" on="0"/>
        <pt x="842" y="1556" on="1"/>
      </contour>
    </TTGlyph>
    <TTGlyph name="fi" xMin="35" yMin="0" xMax="1079" yMax="1556">
      <contour>
        <pt x="895" y="1554" on="1"/>
        <pt x="1079" y="1554" on="1"/>
        <pt x="1079" y="1321" on="1"/>
        <pt x="895" y="1321" on="1"/>
      </contour>
      <contour>
        <pt x="776" y="1556" on="1"/>
        <pt x="776" y="1403" on="1"/>
        <pt x="596" y="1403" on="1"/>
        <pt x="497" y="1403" on="0"/>
        <pt x="420" y="1322" on="0"/>
        <pt x="420" y="1219" on="1"/>
        <pt x="420" y="1118" on="1"/>
        <pt x="1079" y="1118" on="1"/>
        <pt x="1079" y="0" on="1"/>
        <pt x="895" y="0" on="1"/>
        <pt x="895" y="977" on="1"/>
        <pt x="420" y="977" on="1"/>
        <pt x="420" y="0" on="1"/>
        <pt x="236" y="0" on="1"/>
        <pt x="236" y="977" on="1"/>
        <pt x="35" y="977" on="1"/>
        <pt x="35" y="1120" on="1"/>
        <pt x="236" y="1120" on="1"/>
        <pt x="236" y="1198" on="1"/>
        <pt x="236" y="1382" on="0"/>
        <pt x="405" y="1556" on="0"/>
        <pt x="584" y="1556" on="1"/>
      </contour>
    </TTGlyph>
    <TTGlyph name="five" xMin="143" yMin="-29" xMax="1069" yMax="1493">
      <contour>
        <pt x="207" y="1493" on="1"/>
        <pt x="963" y="1493" on="1"/>
        <pt x="963" y="1323" on="1"/>
        <pt x="391" y="1323" on="1"/>
        <pt x="391" y="956" on="1"/>
        <pt x="434" y="972" on="0"/>
        <pt x="521" y="987" on="0"/>
        <pt x="565" y="987" on="1"/>
        <pt x="797" y="987" on="0"/>
        <pt x="1069" y="713" on="0"/>
        <pt x="1069" y="479" on="1"/>
        <pt x="1069" y="243" on="0"/>
        <pt x="784" y="-29" on="0"/>
        <pt x="537" y="-29" on="1"/>
        <pt x="418" y="-29" on="0"/>
        <pt x="221" y="3" on="0"/>
        <pt x="143" y="35" on="1"/>
        <pt x="143" y="240" on="1"/>
        <pt x="235" y="190" on="0"/>
        <pt x="421" y="141" on="0"/>
        <pt x="518" y="141" on="1"/>
        <pt x="685" y="141" on="0"/>
        <pt x="866" y="317" on="0"/>
        <pt x="866" y="479" on="1"/>
        <pt x="866" y="639" on="0"/>
        <pt x="679" y="817" on="0"/>
        <pt x="512" y="817" on="1"/>
        <pt x="431" y="817" on="0"/>
        <pt x="277" y="780" on="0"/>
        <pt x="207" y="743" on="1"/>
      </contour>
    </TTGlyph>
    <TTGlyph name="fl" xMin="35" yMin="0" xMax="1079" yMax="1556">
      <contour>
        <pt x="1079" y="1556" on="1"/>
        <pt x="1079" y="0" on="1"/>
        <pt x="895" y="0" on="1"/>
        <pt x="895" y="1403" on="1"/>
        <pt x="596" y="1403" on="1"/>
        <pt x="497" y="1403" on="0"/>
        <pt x="420" y="1322" on="0"/>
        <pt x="420" y="1219" on="1"/>
        <pt x="420" y="1118" on="1"/>
        <pt x="713" y="1118" on="1"/>
        <pt x="713" y="977" on="1"/>
        <pt x="420" y="977" on="1"/>
        <pt x="420" y="0" on="1"/>
        <pt x="236" y="0" on="1"/>
        <pt x="236" y="977" on="1"/>
        <pt x="35" y="977" on="1"/>
        <pt x="35" y="1120" on="1"/>
        <pt x="236" y="1120" on="1"/>
        <pt x="236" y="1198" on="1"/>
        <pt x="236" y="1382" on="0"/>
        <pt x="405" y="1556" on="0"/>
        <pt x="584" y="1556" on="1"/>
      </contour>
    </TTGlyph>
    <TTGlyph name="florin" xMin="0" yMin="-426" xMax="1200" yMax="1556">
      <contour>
        <pt x="1200" y="1520" on="1"/>
        <pt x="1200" y="1356" on="1"/>
        <pt x="1164" y="1384" on="0"/>
        <pt x="1082" y="1413" on="0"/>
        <pt x="1038" y="1413" on="1"/>
        <pt x="936" y="1413" on="0"/>
        <pt x="821" y="1289" on="0"/>
        <pt x="803" y="1159" on="1"/>
        <pt x="758" y="848" on="1"/>
        <pt x="1061" y="848" on="1"/>
        <pt x="1061" y="705" on="1"/>
        <pt x="733" y="705" on="1"/>
        <pt x="633" y="70" on="1"/>
        <pt x="590" y="-196" on="0"/>
        <pt x="391" y="-426" on="0"/>
        <pt x="205" y="-426" on="1"/>
        <pt x="148" y="-426" on="0"/>
        <pt x="46" y="-405" on="0"/>
        <pt x="0" y="-383" on="1"/>
        <pt x="0" y="-219" on="1"/>
        <pt x="49" y="-250" on="0"/>
        <pt x="149" y="-283" on="0"/>
        <pt x="197" y="-283" on="1"/>
        <pt x="293" y="-283" on="0"/>
        <pt x="414" y="-133" on="0"/>
        <pt x="440" y="18" on="1"/>
        <pt x="557" y="705" on="1"/>
        <pt x="305" y="705" on="1"/>
        <pt x="305" y="848" on="1"/>
        <pt x="580" y="848" on="1"/>
        <pt x="629" y="1178" on="1"/>
        <pt x="655" y="1355" on="0"/>
        <pt x="853" y="1556" on="0"/>
        <pt x="1001" y="1556" on="1"/>
        <pt x="1050" y="1556" on="0"/>
        <pt x="1149" y="1538" on="0"/>
      </contour>
    </TTGlyph>
    <TTGlyph name="four" xMin="102" yMin="0" xMax="1135" yMax="1493">
      <contour>
        <pt x="735" y="1309" on="1"/>
        <pt x="264" y="520" on="1"/>
        <pt x="735" y="520" on="1"/>
      </contour>
      <contour>
        <pt x="702" y="1493" on="1"/>
        <pt x="936" y="1493" on="1"/>
        <pt x="936" y="520" on="1"/>
        <pt x="1135" y="520" on="1"/>
        <pt x="1135" y="356" on="1"/>
        <pt x="936" y="356" on="1"/>
        <pt x="936" y="0" on="1"/>
        <pt x="735" y="0" on="1"/>
        <pt x="735" y="356" on="1"/>
        <pt x="102" y="356" on="1"/>
        <pt x="102" y="547" on="1"/>
      </contour>
    </TTGlyph>
    <TTGlyph name="fraction" xMin="102" yMin="-190" xMax="1079" yMax="1493">
      <contour>
        <pt x="889" y="1493" on="1"/>
        <pt x="1079" y="1493" on="1"/>
        <pt x="293" y="-190" on="1"/>
        <pt x="102" y="-190" on="1"/>
      </contour>
    </TTGlyph>
    <TTGlyph name="g" xMin="123" yMin="-440" xMax="1042" yMax="1147">
      <contour>
        <pt x="858" y="569" on="1"/>
        <pt x="858" y="776" on="0"/>
        <pt x="723" y="991" on="0"/>
        <pt x="594" y="991" on="1"/>
        <pt x="459" y="991" on="0"/>
        <pt x="317" y="776" on="0"/>
        <pt x="317" y="569" on="1"/>
        <pt x="317" y="362" on="0"/>
        <pt x="460" y="145" on="0"/>
        <pt x="596" y="145" on="1"/>
        <pt x="723" y="145" on="0"/>
        <pt x="858" y="363" on="0"/>
      </contour>
      <contour>
        <pt x="1042" y="72" on="1"/>
        <pt x="1042" y="-180" on="0"/>
        <pt x="804" y="-440" on="0"/>
        <pt x="573" y="-440" on="1"/>
        <pt x="497" y="-440" on="0"/>
        <pt x="331" y="-412" on="0"/>
        <pt x="248" y="-385" on="1"/>
        <pt x="248" y="-203" on="1"/>
        <pt x="346" y="-249" on="0"/>
        <pt x="506" y="-293" on="0"/>
        <pt x="573" y="-293" on="1"/>
        <pt x="722" y="-293" on="0"/>
        <pt x="858" y="-131" on="0"/>
        <pt x="858" y="45" on="1"/>
        <pt x="858" y="53" on="1"/>
        <pt x="858" y="178" on="1"/>
        <pt x="814" y="84" on="0"/>
        <pt x="662" y="-8" on="0"/>
        <pt x="553" y="-8" on="1"/>
        <pt x="357" y="-8" on="0"/>
        <pt x="123" y="306" on="0"/>
        <pt x="123" y="569" on="1"/>
        <pt x="123" y="833" on="0"/>
        <pt x="357" y="1147" on="0"/>
        <pt x="553" y="1147" on="1"/>
        <pt x="661" y="1147" on="0"/>
        <pt x="811" y="1061" on="0"/>
        <pt x="858" y="971" on="1"/>
        <pt x="858" y="1116" on="1"/>
        <pt x="1042" y="1116" on="1"/>
      </contour>
    </TTGlyph>
    <TTGlyph name="gbreve" xMin="123" yMin="-440" xMax="1042" yMax="1608">
      <component glyphName="g" x="0" y="0" flags="0x4"/>
      <component glyphName="breve" x="0" y="0" flags="0x4"/>
    </TTGlyph>
    <TTGlyph name="germandbls" xMin="188" yMin="-29" xMax="1149" yMax="1556">
      <contour>
        <pt x="188" y="1137" on="1"/>
        <pt x="188" y="1350" on="0"/>
        <pt x="398" y="1556" on="0"/>
        <pt x="614" y="1556" on="1"/>
        <pt x="818" y="1556" on="0"/>
        <pt x="1028" y="1335" on="0"/>
        <pt x="1030" y="1119" on="1"/>
        <pt x="875" y="1105" on="0"/>
        <pt x="707" y="981" on="0"/>
        <pt x="707" y="881" on="1"/>
        <pt x="707" y="832" on="0"/>
        <pt x="762" y="755" on="0"/>
        <pt x="829" y="713" on="1"/>
        <pt x="887" y="676" on="1"/>
        <pt x="1038" y="583" on="0"/>
        <pt x="1149" y="419" on="0"/>
        <pt x="1149" y="303" on="1"/>
        <pt x="1149" y="149" on="0"/>
        <pt x="925" y="-29" on="0"/>
        <pt x="729" y="-29" on="1"/>
        <pt x="660" y="-29" on="0"/>
        <pt x="525" y="-4" on="0"/>
        <pt x="459" y="20" on="1"/>
        <pt x="459" y="184" on="1"/>
        <pt x="535" y="153" on="0"/>
        <pt x="668" y="123" on="0"/>
        <pt x="727" y="123" on="1"/>
        <pt x="835" y="123" on="0"/>
        <pt x="963" y="220" on="0"/>
        <pt x="963" y="301" on="1"/>
        <pt x="963" y="372" on="0"/>
        <pt x="898" y="467" on="0"/>
        <pt x="778" y="541" on="1"/>
        <pt x="711" y="580" on="1"/>
        <pt x="619" y="636" on="0"/>
        <pt x="528" y="769" on="0"/>
        <pt x="528" y="848" on="1"/>
        <pt x="528" y="976" on="0"/>
        <pt x="690" y="1147" on="0"/>
        <pt x="846" y="1182" on="1"/>
        <pt x="844" y="1289" on="0"/>
        <pt x="723" y="1403" on="0"/>
        <pt x="610" y="1403" on="1"/>
        <pt x="489" y="1403" on="0"/>
        <pt x="375" y="1272" on="0"/>
        <pt x="375" y="1133" on="1"/>
        <pt x="375" y="0" on="1"/>
        <pt x="188" y="0" on="1"/>
      </contour>
    </TTGlyph>
    <TTGlyph name="grave" xMin="279" yMin="1262" xMax="758" yMax="1638">
      <contour>
        <pt x="477" y="1638" on="1"/>
        <pt x="758" y="1262" on="1"/>
        <pt x="604" y="1262" on="1"/>
        <pt x="279" y="1638" on="1"/>
      </contour>
    </TTGlyph>
    <TTGlyph name="greater" xMin="88" yMin="141" xMax="1145" yMax="1143">
      <contour>
        <pt x="88" y="961" on="1"/>
        <pt x="88" y="1143" on="1"/>
        <pt x="1145" y="725" on="1"/>
        <pt x="1145" y="559" on="1"/>
        <pt x="88" y="141" on="1"/>
        <pt x="88" y="324" on="1"/>
        <pt x="938" y="641" on="1"/>
      </contour>
    </TTGlyph>
    <TTGlyph name="greaterequal" xMin="88" yMin="0" xMax="1145" yMax="1087">
      <contour>
        <pt x="88" y="438" on="1"/>
        <pt x="891" y="672" on="1"/>
        <pt x="88" y="903" on="1"/>
        <pt x="88" y="1087" on="1"/>
        <pt x="1145" y="756" on="1"/>
        <pt x="1145" y="588" on="1"/>
        <pt x="88" y="256" on="1"/>
      </contour>
      <contour>
        <pt x="88" y="170" on="1"/>
        <pt x="1145" y="170" on="1"/>
        <pt x="1145" y="0" on="1"/>
        <pt x="88" y="0" on="1"/>
      </contour>
    </TTGlyph>
    <TTGlyph name="guillemotleft" xMin="119" yMin="141" xMax="1042" yMax="1059">
      <contour>
        <pt x="588" y="1059" on="1"/>
        <pt x="588" y="868" on="1"/>
        <pt x="287" y="600" on="1"/>
        <pt x="588" y="332" on="1"/>
        <pt x="588" y="141" on="1"/>
        <pt x="119" y="559" on="1"/>
        <pt x="119" y="641" on="1"/>
      </contour>
      <contour>
        <pt x="1042" y="1059" on="1"/>
        <pt x="1042" y="868" on="1"/>
        <pt x="741" y="600" on="1"/>
        <pt x="1042" y="332" on="1"/>
        <pt x="1042" y="141" on="1"/>
        <pt x="573" y="559" on="1"/>
        <pt x="573" y="641" on="1"/>
      </contour>
    </TTGlyph>
    <TTGlyph name="guillemotright" xMin="193" yMin="141" xMax="1116" yMax="1059">
      <contour>
        <pt x="647" y="1059" on="1"/>
        <pt x="1116" y="641" on="1"/>
        <pt x="1116" y="559" on="1"/>
        <pt x="647" y="141" on="1"/>
        <pt x="647" y="332" on="1"/>
        <pt x="948" y="600" on="1"/>
        <pt x="647" y="868" on="1"/>
      </contour>
      <contour>
        <pt x="193" y="1059" on="1"/>
        <pt x="662" y="641" on="1"/>
        <pt x="662" y="559" on="1"/>
        <pt x="193" y="141" on="1"/>
        <pt x="193" y="332" on="1"/>
        <pt x="494" y="600" on="1"/>
        <pt x="193" y="868" on="1"/>
      </contour>
    </TTGlyph>
    <TTGlyph name="guilsinglleft" xMin="346" yMin="141" xMax="815" yMax="1059">
      <contour>
        <pt x="815" y="1059" on="1"/>
        <pt x="815" y="868" on="1"/>
        <pt x="514" y="600" on="1"/>
        <pt x="815" y="332" on="1"/>
        <pt x="815" y="141" on="1"/>
        <pt x="346" y="559" on="1"/>
        <pt x="346" y="641" on="1"/>
      </contour>
    </TTGlyph>
    <TTGlyph name="guilsinglright" xMin="420" yMin="141" xMax="889" yMax="1059">
      <contour>
        <pt x="420" y="1059" on="1"/>
        <pt x="889" y="641" on="1"/>
        <pt x="889" y="559" on="1"/>
        <pt x="420" y="141" on="1"/>
        <pt x="420" y="332" on="1"/>
        <pt x="721" y="600" on="1"/>
        <pt x="420" y="868" on="1"/>
      </contour>
    </TTGlyph>
    <TTGlyph name="h" xMin="195" yMin="0" xMax="1051" yMax="1556">
      <contour>
        <pt x="1051" y="694" on="1"/>
        <pt x="1051" y="0" on="1"/>
        <pt x="866" y="0" on="1"/>
        <pt x="866" y="694" on="1"/>
        <pt x="866" y="845" on="0"/>
        <pt x="760" y="987" on="0"/>
        <pt x="647" y="987" on="1"/>
        <pt x="518" y="987" on="0"/>
        <pt x="379" y="804" on="0"/>
        <pt x="379" y="633" on="1"/>
        <pt x="379" y="0" on="1"/>
        <pt x="195" y="0" on="1"/>
        <pt x="195" y="1556" on="1"/>
        <pt x="379" y="1556" on="1"/>
        <pt x="379" y="952" on="1"/>
        <pt x="428" y="1048" on="0"/>
        <pt x="596" y="1147" on="0"/>
        <pt x="711" y="1147" on="1"/>
        <pt x="882" y="1147" on="0"/>
        <pt x="1051" y="922" on="0"/>
      </contour>
    </TTGlyph>
    <TTGlyph name="hungarumlaut" xMin="344" yMin="1262" xMax="1047" yMax="1638">
      <contour>
        <pt x="535" y="1638" on="1"/>
        <pt x="705" y="1638" on="1"/>
        <pt x="481" y="1262" on="1"/>
        <pt x="344" y="1262" on="1"/>
      </contour>
      <contour>
        <pt x="868" y="1638" on="1"/>
        <pt x="1047" y="1638" on="1"/>
        <pt x="799" y="1262" on="1"/>
        <pt x="664" y="1262" on="1"/>
      </contour>
    </TTGlyph>
    <TTGlyph name="hyphen" xMin="356" yMin="479" xMax="877" yMax="643">
      <contour>
        <pt x="356" y="643" on="1"/>
        <pt x="877" y="643" on="1"/>
        <pt x="877" y="479" on="1"/>
        <pt x="356" y="479" on="1"/>
      </contour>
    </TTGlyph>
    <TTGlyph name="i" xMin="178" yMin="0" xMax="1092" yMax="1556">
      <contour>
        <pt x="256" y="1120" on="1"/>
        <pt x="727" y="1120" on="1"/>
        <pt x="727" y="143" on="1"/>
        <pt x="1092" y="143" on="1"/>
        <pt x="1092" y="0" on="1"/>
        <pt x="178" y="0" on="1"/>
        <pt x="178" y="143" on="1"/>
        <pt x="543" y="143" on="1"/>
        <pt x="543" y="977" on="1"/>
        <pt x="256" y="977" on="1"/>
      </contour>
      <contour>
        <pt x="543" y="1556" on="1"/>
        <pt x="727" y="1556" on="1"/>
        <pt x="727" y="1323" on="1"/>
        <pt x="543" y="1323" on="1"/>
      </contour>
    </TTGlyph>
    <TTGlyph name="iacute" xMin="178" yMin="0" xMax="1092" yMax="1638">
      <component glyphName="dotlessi" x="0" y="0" flags="0x4"/>
      <component glyphName="acute" x="0" y="0" flags="0x4"/>
    </TTGlyph>
    <TTGlyph name="icircumflex" xMin="178" yMin="0" xMax="1092" yMax="1638">
      <component glyphName="dotlessi" x="0" y="0" flags="0x4"/>
      <component glyphName="circumflex" x="0" y="0" flags="0x4"/>
    </TTGlyph>
    <TTGlyph name="idieresis" xMin="178" yMin="0" xMax="1092" yMax="1552">
      <component glyphName="dotlessi" x="0" y="0" flags="0x4"/>
      <component glyphName="dieresis" x="0" y="0" flags="0x4"/>
    </TTGlyph>
    <TTGlyph name="igrave" xMin="178" yMin="0" xMax="1092" yMax="1638">
      <component glyphName="dotlessi" x="0" y="0" flags="0x4"/>
      <component glyphName="grave" x="0" y="0" flags="0x4"/>
    </TTGlyph>
    <TTGlyph name="infinity" xMin="41" yMin="250" xMax="1192" yMax="1008">
      <contour>
        <pt x="694" y="627" on="1"/>
        <pt x="751" y="491" on="0"/>
        <pt x="842" y="391" on="0"/>
        <pt x="903" y="391" on="1"/>
        <pt x="974" y="391" on="0"/>
        <pt x="1065" y="525" on="0"/>
        <pt x="1065" y="633" on="1"/>
        <pt x="1065" y="740" on="0"/>
        <pt x="981" y="868" on="0"/>
        <pt x="911" y="868" on="1"/>
        <pt x="845" y="868" on="0"/>
        <pt x="740" y="751" on="0"/>
      </contour>
      <contour>
        <pt x="537" y="635" on="1"/>
        <pt x="481" y="769" on="0"/>
        <pt x="389" y="868" on="0"/>
        <pt x="328" y="868" on="1"/>
        <pt x="257" y="868" on="0"/>
        <pt x="166" y="735" on="0"/>
        <pt x="166" y="629" on="1"/>
        <pt x="166" y="520" on="0"/>
        <pt x="249" y="391" on="0"/>
        <pt x="317" y="391" on="1"/>
        <pt x="384" y="391" on="0"/>
        <pt x="490" y="509" on="0"/>
      </contour>
      <contour>
        <pt x="616" y="764" on="1"/>
        <pt x="663" y="881" on="0"/>
        <pt x="810" y="1008" on="0"/>
        <pt x="901" y="1008" on="1"/>
        <pt x="1020" y="1008" on="0"/>
        <pt x="1192" y="789" on="0"/>
        <pt x="1192" y="629" on="1"/>
        <pt x="1192" y="462" on="0"/>
        <pt x="1029" y="250" on="0"/>
        <pt x="903" y="250" on="1"/>
        <pt x="820" y="250" on="0"/>
        <pt x="692" y="350" on="0"/>
        <pt x="614" y="481" on="1"/>
        <pt x="549" y="357" on="0"/>
        <pt x="417" y="250" on="0"/>
        <pt x="332" y="250" on="1"/>
        <pt x="207" y="250" on="0"/>
        <pt x="41" y="464" on="0"/>
        <pt x="41" y="629" on="1"/>
        <pt x="41" y="802" on="0"/>
        <pt x="198" y="1008" on="0"/>
        <pt x="330" y="1008" on="1"/>
        <pt x="424" y="1008" on="0"/>
        <pt x="560" y="893" on="0"/>
      </contour>
    </TTGlyph>
    <TTGlyph name="integral" xMin="129" yMin="-371" xMax="1100" yMax="1550">
      <contour>
        <pt x="393" y="-262" on="1"/>
        <pt x="499" y="-262" on="0"/>
        <pt x="513" y="426" on="1"/>
        <pt x="515" y="534" on="0"/>
        <pt x="516" y="591" on="1"/>
        <pt x="528" y="1106" on="0"/>
        <pt x="718" y="1550" on="0"/>
        <pt x="920" y="1550" on="1"/>
        <pt x="1000" y="1550" on="0"/>
        <pt x="1100" y="1466" on="0"/>
        <pt x="1100" y="1401" on="1"/>
        <pt x="1100" y="1347" on="0"/>
        <pt x="1036" y="1284" on="0"/>
        <pt x="981" y="1284" on="1"/>
        <pt x="939" y="1284" on="0"/>
        <pt x="882" y="1322" on="0"/>
        <pt x="871" y="1357" on="1"/>
        <pt x="865" y="1372" on="0"/>
        <pt x="856" y="1444" on="0"/>
        <pt x="840" y="1444" on="1"/>
        <pt x="733" y="1444" on="0"/>
        <pt x="719" y="825" on="1"/>
        <pt x="715" y="632" on="0"/>
        <pt x="711" y="522" on="1"/>
        <pt x="694" y="43" on="0"/>
        <pt x="505" y="-371" on="0"/>
        <pt x="309" y="-371" on="1"/>
        <pt x="230" y="-371" on="0"/>
        <pt x="129" y="-288" on="0"/>
        <pt x="129" y="-223" on="1"/>
        <pt x="129" y="-167" on="0"/>
        <pt x="197" y="-104" on="0"/>
        <pt x="258" y="-104" on="1"/>
        <pt x="291" y="-104" on="0"/>
        <pt x="339" y="-133" on="0"/>
        <pt x="354" y="-161" on="1"/>
        <pt x="363" y="-178" on="0"/>
        <pt x="374" y="-262" on="0"/>
      </contour>
    </TTGlyph>
    <TTGlyph name="j" xMin="186" yMin="-426" xMax="784" yMax="1556">
      <contour>
        <pt x="600" y="-20" on="1"/>
        <pt x="600" y="977" on="1"/>
        <pt x="283" y="977" on="1"/>
        <pt x="283" y="1120" on="1"/>
        <pt x="784" y="1120" on="1"/>
        <pt x="784" y="-20" on="1"/>
        <pt x="784" y="-215" on="0"/>
        <pt x="605" y="-426" on="0"/>
        <pt x="440" y="-426" on="1"/>
        <pt x="186" y="-426" on="1"/>
        <pt x="186" y="-270" on="1"/>
        <pt x="420" y="-270" on="1"/>
        <pt x="510" y="-270" on="0"/>
        <pt x="600" y="-145" on="0"/>
      </contour>
      <contour>
        <pt x="600" y="1556" on="1"/>
        <pt x="784" y="1556" on="1"/>
        <pt x="784" y="1323" on="1"/>
        <pt x="600" y="1323" on="1"/>
      </contour>
    </TTGlyph>
    <TTGlyph name="k" xMin="236" yMin="0" xMax="1202" yMax="1556">
      <contour>
        <pt x="236" y="1556" on="1"/>
        <pt x="426" y="1556" on="1"/>
        <pt x="426" y="655" on="1"/>
        <pt x="909" y="1120" on="1"/>
        <pt x="1133" y="1120" on="1"/>
        <pt x="692" y="698" on="1"/>
        <pt x="1202" y="0" on="1"/>
        <pt x="977" y="0" on="1"/>
        <pt x="563" y="578" on="1"/>
        <pt x="426" y="449" on="1"/>
        <pt x="426" y="0" on="1"/>
        <pt x="236" y="0" on="1"/>
      </contour>
    </TTGlyph>
    <TTGlyph name="l" xMin="160" yMin="0" xMax="1034" yMax="1567">
      <contour>
        <pt x="639" y="406" on="1"/>
        <pt x="639" y="282" on="0"/>
        <pt x="730" y="156" on="0"/>
        <pt x="819" y="156" on="1"/>
        <pt x="1034" y="156" on="1"/>
        <pt x="1034" y="0" on="1"/>
        <pt x="801" y="0" on="1"/>
        <pt x="636" y="0" on="0"/>
        <pt x="455" y="212" on="0"/>
        <pt x="455" y="406" on="1"/>
        <pt x="455" y="1423" on="1"/>
        <pt x="160" y="1423" on="1"/>
        <pt x="160" y="1567" on="1"/>
        <pt x="639" y="1567" on="1"/>
      </contour>
    </TTGlyph>
    <TTGlyph name="less" xMin="88" yMin="141" xMax="1145" yMax="1143">
      <contour>
        <pt x="1145" y="961" on="1"/>
        <pt x="295" y="641" on="1"/>
        <pt x="1145" y="324" on="1"/>
        <pt x="1145" y="141" on="1"/>
        <pt x="88" y="559" on="1"/>
        <pt x="88" y="725" on="1"/>
        <pt x="1145" y="1143" on="1"/>
      </contour>
    </TTGlyph>
    <TTGlyph name="lessequal" xMin="86" yMin="0" xMax="1143" yMax="1087">
      <contour>
        <pt x="1143" y="438" on="1"/>
        <pt x="1143" y="256" on="1"/>
        <pt x="86" y="588" on="1"/>
        <pt x="86" y="756" on="1"/>
        <pt x="1143" y="1087" on="1"/>
        <pt x="1143" y="903" on="1"/>
        <pt x="342" y="672" on="1"/>
      </contour>
      <contour>
        <pt x="1143" y="170" on="1"/>
        <pt x="1143" y="0" on="1"/>
        <pt x="86" y="0" on="1"/>
        <pt x="86" y="170" on="1"/>
      </contour>
    </TTGlyph>
    <TTGlyph name="logicalnot" xMin="88" yMin="371" xMax="1145" yMax="862">
      <contour>
        <pt x="88" y="862" on="1"/>
        <pt x="1145" y="862" on="1"/>
        <pt x="1145" y="371" on="1"/>
        <pt x="977" y="371" on="1"/>
        <pt x="977" y="690" on="1"/>
        <pt x="88" y="690" on="1"/>
      </contour>
    </TTGlyph>
    <TTGlyph name="lozenge" xMin="117" yMin="-477" xMax="1116" yMax="1653">
      <contour>
        <pt x="616" y="1409" on="1"/>
        <pt x="231" y="592" on="1"/>
        <pt x="616" y="-233" on="1"/>
        <pt x="1001" y="592" on="1"/>
      </contour>
      <contour>
        <pt x="616" y="1653" on="1"/>
        <pt x="1116" y="592" on="1"/>
        <pt x="616" y="-477" on="1"/>
        <pt x="117" y="592" on="1"/>
      </contour>
    </TTGlyph>
    <TTGlyph name="lslash" xMin="76" yMin="0" xMax="1034" yMax="1567">
      <contour>
        <pt x="639" y="406" on="1"/>
        <pt x="639" y="282" on="0"/>
        <pt x="730" y="156" on="0"/>
        <pt x="819" y="156" on="1"/>
        <pt x="1034" y="156" on="1"/>
        <pt x="1034" y="0" on="1"/>
        <pt x="801" y="0" on="1"/>
        <pt x="636" y="0" on="0"/>
        <pt x="455" y="212" on="0"/>
        <pt x="455" y="406" on="1"/>
        <pt x="455" y="698" on="1"/>
        <pt x="156" y="489" on="1"/>
        <pt x="76" y="600" on="1"/>
        <pt x="455" y="864" on="1"/>
        <pt x="455" y="1423" on="1"/>
        <pt x="160" y="1423" on="1"/>
        <pt x="160" y="1567" on="1"/>
        <pt x="639" y="1567" on="1"/>
        <pt x="639" y="989" on="1"/>
        <pt x="954" y="1208" on="1"/>
        <pt x="1034" y="1098" on="1"/>
        <pt x="639" y="823" on="1"/>
      </contour>
    </TTGlyph>
    <TTGlyph name="m" xMin="109" yMin="0" xMax="1135" yMax="1147">
      <contour>
        <pt x="676" y="1006" on="1"/>
        <pt x="710" y="1078" on="0"/>
        <pt x="815" y="1147" on="0"/>
        <pt x="889" y="1147" on="1"/>
        <pt x="1024" y="1147" on="0"/>
        <pt x="1135" y="938" on="0"/>
        <pt x="1135" y="649" on="1"/>
        <pt x="1135" y="0" on="1"/>
        <pt x="967" y="0" on="1"/>
        <pt x="967" y="641" on="1"/>
        <pt x="967" y="878" on="0"/>
        <pt x="914" y="993" on="0"/>
        <pt x="844" y="993" on="1"/>
        <pt x="764" y="993" on="0"/>
        <pt x="705" y="870" on="0"/>
        <pt x="705" y="641" on="1"/>
        <pt x="705" y="0" on="1"/>
        <pt x="537" y="0" on="1"/>
        <pt x="537" y="641" on="1"/>
        <pt x="537" y="881" on="0"/>
        <pt x="480" y="993" on="0"/>
        <pt x="406" y="993" on="1"/>
        <pt x="333" y="993" on="0"/>
        <pt x="276" y="870" on="0"/>
        <pt x="276" y="641" on="1"/>
        <pt x="276" y="0" on="1"/>
        <pt x="109" y="0" on="1"/>
        <pt x="109" y="1120" on="1"/>
        <pt x="276" y="1120" on="1"/>
        <pt x="276" y="1024" on="1"/>
        <pt x="309" y="1084" on="0"/>
        <pt x="408" y="1147" on="0"/>
        <pt x="471" y="1147" on="1"/>
        <pt x="547" y="1147" on="0"/>
        <pt x="648" y="1077" on="0"/>
      </contour>
    </TTGlyph>
    <TTGlyph name="macron" xMin="317" yMin="1378" xMax="915" yMax="1526">
      <contour>
        <pt x="317" y="1526" on="1"/>
        <pt x="915" y="1526" on="1"/>
        <pt x="915" y="1378" on="1"/>
        <pt x="317" y="1378" on="1"/>
      </contour>
    </TTGlyph>
    <TTGlyph name="minus" xMin="88" yMin="557" xMax="1145" yMax="727">
      <contour>
        <pt x="88" y="727" on="1"/>
        <pt x="1145" y="727" on="1"/>
        <pt x="1145" y="557" on="1"/>
        <pt x="88" y="557" on="1"/>
      </contour>
    </TTGlyph>
    <TTGlyph name="mu" xMin="195" yMin="-428" xMax="1182" yMax="1120">
      <contour>
        <pt x="195" y="-428" on="1"/>
        <pt x="195" y="1120" on="1"/>
        <pt x="379" y="1120" on="1"/>
        <pt x="379" y="424" on="1"/>
        <pt x="379" y="282" on="0"/>
        <pt x="499" y="131" on="0"/>
        <pt x="610" y="131" on="1"/>
        <pt x="737" y="131" on="0"/>
        <pt x="866" y="301" on="0"/>
        <pt x="866" y="467" on="1"/>
        <pt x="866" y="1120" on="1"/>
        <pt x="1051" y="1120" on="1"/>
        <pt x="1051" y="256" on="1"/>
        <pt x="1051" y="197" on="0"/>
        <pt x="1083" y="141" on="0"/>
        <pt x="1116" y="141" on="1"/>
        <pt x="1125" y="141" on="0"/>
        <pt x="1154" y="151" on="0"/>
        <pt x="1182" y="164" on="1"/>
        <pt x="1182" y="16" on="1"/>
        <pt x="1144" y="-7" on="0"/>
        <pt x="1076" y="-29" on="0"/>
        <pt x="1042" y="-29" on="1"/>
        <pt x="980" y="-29" on="0"/>
        <pt x="905" y="50" on="0"/>
        <pt x="893" y="129" on="1"/>
        <pt x="847" y="49" on="0"/>
        <pt x="714" y="-29" on="0"/>
        <pt x="625" y="-29" on="1"/>
        <pt x="533" y="-29" on="0"/>
        <pt x="406" y="47" on="0"/>
        <pt x="362" y="127" on="1"/>
        <pt x="362" y="-428" on="1"/>
      </contour>
    </TTGlyph>
    <TTGlyph name="multiply" xMin="150" yMin="174" xMax="1083" yMax="1108">
      <contour>
        <pt x="150" y="293" on="1"/>
        <pt x="500" y="641" on="1"/>
        <pt x="150" y="991" on="1"/>
        <pt x="266" y="1108" on="1"/>
        <pt x="616" y="758" on="1"/>
        <pt x="967" y="1108" on="1"/>
        <pt x="1083" y="991" on="1"/>
        <pt x="733" y="641" on="1"/>
        <pt x="1081" y="293" on="1"/>
        <pt x="965" y="174" on="1"/>
        <pt x="616" y="524" on="1"/>
        <pt x="268" y="174" on="1"/>
      </contour>
    </TTGlyph>
    <TTGlyph name="n" xMin="195" yMin="0" xMax="1051" yMax="1147">
      <contour>
        <pt x="1051" y="694" on="1"/>
        <pt x="1051" y="0" on="1"/>
        <pt x="866" y="0" on="1"/>
        <pt x="866" y="694" on="1"/>
        <pt x="866" y="845" on="0"/>
        <pt x="760" y="987" on="0"/>
        <pt x="647" y="987" on="1"/>
        <pt x="518" y="987" on="0"/>
        <pt x="379" y="804" on="0"/>
        <pt x="379" y="633" on="1"/>
        <pt x="379" y="0" on="1"/>
        <pt x="195" y="0" on="1"/>
        <pt x="195" y="1120" on="1"/>
        <pt x="379" y="1120" on="1"/>
        <pt x="379" y="952" on="1"/>
        <pt x="428" y="1048" on="0"/>
        <pt x="596" y="1147" on="0"/>
        <pt x="711" y="1147" on="1"/>
        <pt x="882" y="1147" on="0"/>
        <pt x="1051" y="922" on="0"/>
      </contour>
    </TTGlyph>
    <TTGlyph name="nine" xMin="127" yMin="-29" xMax="1094" yMax="1520">
      <contour>
        <pt x="596" y="662" on="1"/>
        <pt x="725" y="662" on="0"/>
        <pt x="872" y="848" on="0"/>
        <pt x="872" y="1012" on="1"/>
        <pt x="872" y="1176" on="0"/>
        <pt x="725" y="1362" on="0"/>
        <pt x="596" y="1362" on="1"/>
        <pt x="462" y="1362" on="0"/>
        <pt x="326" y="1185" on="0"/>
        <pt x="326" y="1012" on="1"/>
        <pt x="326" y="838" on="0"/>
        <pt x="461" y="662" on="0"/>
      </contour>
      <contour>
        <pt x="236" y="31" on="1"/>
        <pt x="236" y="217" on="1"/>
        <pt x="299" y="180" on="0"/>
        <pt x="441" y="141" on="0"/>
        <pt x="518" y="141" on="1"/>
        <pt x="710" y="141" on="0"/>
        <pt x="907" y="430" on="0"/>
        <pt x="907" y="711" on="1"/>
        <pt x="860" y="611" on="0"/>
        <pt x="690" y="504" on="0"/>
        <pt x="580" y="504" on="1"/>
        <pt x="364" y="504" on="0"/>
        <pt x="127" y="770" on="0"/>
        <pt x="127" y="1014" on="1"/>
        <pt x="127" y="1255" on="0"/>
        <pt x="370" y="1520" on="0"/>
        <pt x="592" y="1520" on="1"/>
        <pt x="852" y="1520" on="0"/>
        <pt x="1094" y="1146" on="0"/>
        <pt x="1094" y="745" on="1"/>
        <pt x="1094" y="368" on="0"/>
        <pt x="803" y="-29" on="0"/>
        <pt x="526" y="-29" on="1"/>
        <pt x="453" y="-29" on="0"/>
        <pt x="305" y="2" on="0"/>
      </contour>
    </TTGlyph>
    <TTGlyph name="notequal" xMin="88" yMin="37" xMax="1145" yMax="1245">
      <contour>
        <pt x="88" y="930" on="1"/>
        <pt x="735" y="930" on="1"/>
        <pt x="981" y="1245" on="1"/>
        <pt x="1106" y="1143" on="1"/>
        <pt x="942" y="930" on="1"/>
        <pt x="1145" y="930" on="1"/>
        <pt x="1145" y="760" on="1"/>
        <pt x="811" y="760" on="1"/>
        <pt x="627" y="524" on="1"/>
        <pt x="1145" y="524" on="1"/>
        <pt x="1145" y="352" on="1"/>
        <pt x="498" y="352" on="1"/>
        <pt x="250" y="37" on="1"/>
        <pt x="125" y="141" on="1"/>
        <pt x="289" y="352" on="1"/>
        <pt x="88" y="352" on="1"/>
        <pt x="88" y="524" on="1"/>
        <pt x="418" y="524" on="1"/>
        <pt x="602" y="760" on="1"/>
        <pt x="88" y="760" on="1"/>
      </contour>
    </TTGlyph>
    <TTGlyph name="ntilde" xMin="195" yMin="0" xMax="1051" yMax="1591">
      <component glyphName="n" x="0" y="0" flags="0x4"/>
      <component glyphName="tilde" x="0" y="0" flags="0x4"/>
    </TTGlyph>
    <TTGlyph name="numbersign" xMin="2" yMin="0" xMax="1229" yMax="1470">
      <contour>
        <pt x="684" y="1470" on="1"/>
        <pt x="580" y="1055" on="1"/>
        <pt x="825" y="1055" on="1"/>
        <pt x="930" y="1470" on="1"/>
        <pt x="1090" y="1470" on="1"/>
        <pt x="985" y="1055" on="1"/>
        <pt x="1229" y="1055" on="1"/>
        <pt x="1229" y="901" on="1"/>
        <pt x="948" y="901" on="1"/>
        <pt x="864" y="567" on="1"/>
        <pt x="1114" y="567" on="1"/>
        <pt x="1114" y="414" on="1"/>
        <pt x="825" y="414" on="1"/>
        <pt x="721" y="0" on="1"/>
        <pt x="561" y="0" on="1"/>
        <pt x="666" y="414" on="1"/>
        <pt x="420" y="414" on="1"/>
        <pt x="315" y="0" on="1"/>
        <pt x="156" y="0" on="1"/>
        <pt x="260" y="414" on="1"/>
        <pt x="2" y="414" on="1"/>
        <pt x="2" y="567" on="1"/>
        <pt x="299" y="567" on="1"/>
        <pt x="383" y="901" on="1"/>
        <pt x="117" y="901" on="1"/>
        <pt x="117" y="1055" on="1"/>
        <pt x="420" y="1055" on="1"/>
        <pt x="524" y="1470" on="1"/>
      </contour>
      <contour>
        <pt x="788" y="901" on="1"/>
        <pt x="543" y="901" on="1"/>
        <pt x="459" y="567" on="1"/>
        <pt x="705" y="567" on="1"/>
      </contour>
    </TTGlyph>
    <TTGlyph name="o" xMin="137" yMin="-29" xMax="1096" yMax="1147">
      <contour>
        <pt x="616" y="991" on="1"/>
        <pt x="476" y="991" on="0"/>
        <pt x="332" y="773" on="0"/>
        <pt x="332" y="559" on="1"/>
        <pt x="332" y="346" on="0"/>
        <pt x="476" y="127" on="0"/>
        <pt x="616" y="127" on="1"/>
        <pt x="757" y="127" on="0"/>
        <pt x="901" y="346" on="0"/>
        <pt x="901" y="559" on="1"/>
        <pt x="901" y="773" on="0"/>
        <pt x="757" y="991" on="0"/>
      </contour>
      <contour>
        <pt x="616" y="1147" on="1"/>
        <pt x="849" y="1147" on="0"/>
        <pt x="1096" y="845" on="0"/>
        <pt x="1096" y="559" on="1"/>
        <pt x="1096" y="272" on="0"/>
        <pt x="850" y="-29" on="0"/>
        <pt x="616" y="-29" on="1"/>
        <pt x="383" y="-29" on="0"/>
        <pt x="137" y="272" on="0"/>
        <pt x="137" y="559" on="1"/>
        <pt x="137" y="845" on="0"/>
        <pt x="383" y="1147" on="0"/>
      </contour>
    </TTGlyph>
    <TTGlyph name="oacute" xMin="137" yMin="-29" xMax="1096" yMax="1638">
      <component glyphName="o" x="0" y="0" flags="0x4"/>
      <component glyphName="acute" x="0" y="0" flags="0x4"/>
    </TTGlyph>
    <TTGlyph name="ocircumflex" xMin="137" yMin="-29" xMax="1096" yMax="1638">
      <component glyphName="o" x="0" y="0" flags="0x4"/>
      <component glyphName="circumflex" x="0" y="0" flags="0x4"/>
    </TTGlyph>
    <TTGlyph name="odieresis" xMin="137" yMin="-29" xMax="1096" yMax="1552">
      <component glyphName="o" x="0" y="0" flags="0x4"/>
      <component glyphName="dieresis" x="0" y="0" flags="0x4"/>
    </TTGlyph>
    <TTGlyph name="oe" xMin="14" yMin="-29" xMax="1210" yMax="1147">
      <contour>
        <pt x="1047" y="657" on="1"/>
        <pt x="1047" y="668" on="0"/>
        <pt x="1049" y="706" on="0"/>
        <pt x="1049" y="715" on="1"/>
        <pt x="1049" y="860" on="0"/>
        <pt x="969" y="995" on="0"/>
        <pt x="883" y="995" on="1"/>
        <pt x="796" y="995" on="0"/>
        <pt x="719" y="858" on="0"/>
        <pt x="719" y="700" on="1"/>
        <pt x="719" y="657" on="1"/>
      </contour>
      <contour>
        <pt x="373" y="123" on="1"/>
        <pt x="475" y="123" on="0"/>
        <pt x="557" y="291" on="0"/>
        <pt x="557" y="530" on="1"/>
        <pt x="557" y="821" on="0"/>
        <pt x="477" y="995" on="0"/>
        <pt x="373" y="995" on="1"/>
        <pt x="270" y="995" on="0"/>
        <pt x="190" y="828" on="0"/>
        <pt x="190" y="559" on="1"/>
        <pt x="190" y="290" on="0"/>
        <pt x="270" y="123" on="0"/>
      </contour>
      <contour>
        <pt x="1210" y="514" on="1"/>
        <pt x="719" y="514" on="1"/>
        <pt x="719" y="430" on="1"/>
        <pt x="719" y="267" on="0"/>
        <pt x="818" y="123" on="0"/>
        <pt x="930" y="123" on="1"/>
        <pt x="1010" y="123" on="0"/>
        <pt x="1141" y="176" on="0"/>
        <pt x="1188" y="227" on="1"/>
        <pt x="1188" y="55" on="1"/>
        <pt x="1129" y="12" on="0"/>
        <pt x="1004" y="-29" on="0"/>
        <pt x="930" y="-29" on="1"/>
        <pt x="832" y="-29" on="0"/>
        <pt x="685" y="38" on="0"/>
        <pt x="637" y="104" on="1"/>
        <pt x="585" y="36" on="0"/>
        <pt x="457" y="-29" on="0"/>
        <pt x="373" y="-29" on="1"/>
        <pt x="184" y="-29" on="0"/>
        <pt x="14" y="247" on="0"/>
        <pt x="14" y="559" on="1"/>
        <pt x="14" y="871" on="0"/>
        <pt x="184" y="1147" on="0"/>
        <pt x="373" y="1147" on="1"/>
        <pt x="462" y="1147" on="0"/>
        <pt x="590" y="1085" on="0"/>
        <pt x="637" y="1020" on="1"/>
        <pt x="674" y="1082" on="0"/>
        <pt x="804" y="1147" on="0"/>
        <pt x="891" y="1147" on="1"/>
        <pt x="1066" y="1147" on="0"/>
        <pt x="1210" y="910" on="0"/>
        <pt x="1210" y="604" on="1"/>
      </contour>
    </TTGlyph>
    <TTGlyph name="ogonek" xMin="420" yMin="-395" xMax="793" yMax="0">
      <contour>
        <pt x="528" y="0" on="1"/>
        <pt x="647" y="0" on="1"/>
        <pt x="602" y="-61" on="0"/>
        <pt x="559" y="-149" on="0"/>
        <pt x="559" y="-180" on="1"/>
        <pt x="559" y="-226" on="0"/>
        <pt x="614" y="-272" on="0"/>
        <pt x="668" y="-272" on="1"/>
        <pt x="700" y="-272" on="0"/>
        <pt x="762" y="-257" on="0"/>
        <pt x="793" y="-242" on="1"/>
        <pt x="793" y="-375" on="1"/>
        <pt x="755" y="-385" on="0"/>
        <pt x="687" y="-395" on="0"/>
        <pt x="657" y="-395" on="1"/>
        <pt x="535" y="-395" on="0"/>
        <pt x="420" y="-308" on="0"/>
        <pt x="420" y="-215" on="1"/>
        <pt x="420" y="-167" on="0"/>
        <pt x="473" y="-62" on="0"/>
      </contour>
    </TTGlyph>
    <TTGlyph name="ograve" xMin="137" yMin="-29" xMax="1096" yMax="1638">
      <component glyphName="o" x="0" y="0" flags="0x4"/>
      <component glyphName="grave" x="0" y="0" flags="0x4"/>
    </TTGlyph>
    <TTGlyph name="one" xMin="246" yMin="0" xMax="1094" yMax="1493">
      <contour>
        <pt x="270" y="170" on="1"/>
        <pt x="584" y="170" on="1"/>
        <pt x="584" y="1311" on="1"/>
        <pt x="246" y="1235" on="1"/>
        <pt x="246" y="1419" on="1"/>
        <pt x="582" y="1493" on="1"/>
        <pt x="784" y="1493" on="1"/>
        <pt x="784" y="170" on="1"/>
        <pt x="1094" y="170" on="1"/>
        <pt x="1094" y="0" on="1"/>
        <pt x="270" y="0" on="1"/>
      </contour>
    </TTGlyph>
    <TTGlyph name="onehalf" xMin="27" yMin="-270" xMax="1114" yMax="1659">
      <component glyphName="onesuperior" x="-258" y="156" flags="0x4"/>
      <component glyphName="c6477" x="0" y="0" flags="0x4"/>
      <component glyphName="twosuperior" x="201" y="-938" flags="0x4"/>
    </TTGlyph>
    <TTGlyph name="onequarter" xMin="27" yMin="-270" xMax="1114" yMax="1659">
      <component glyphName="onesuperior" x="-258" y="156" flags="0x4"/>
      <component glyphName="c6477" x="0" y="0" flags="0x4"/>
      <component glyphName="c6478" x="184" y="-938" flags="0x4"/>
    </TTGlyph>
    <TTGlyph name="onesuperior" xMin="344" yMin="668" xMax="915" yMax="1503">
      <contour>
        <pt x="362" y="778" on="1"/>
        <pt x="567" y="778" on="1"/>
        <pt x="567" y="1389" on="1"/>
        <pt x="344" y="1348" on="1"/>
        <pt x="344" y="1464" on="1"/>
        <pt x="573" y="1503" on="1"/>
        <pt x="711" y="1503" on="1"/>
        <pt x="711" y="778" on="1"/>
        <pt x="915" y="778" on="1"/>
        <pt x="915" y="668" on="1"/>
        <pt x="362" y="668" on="1"/>
      </contour>
    </TTGlyph>
    <TTGlyph name="ordfeminine" xMin="270" yMin="469" xMax="961" yMax="1520">
      <contour>
        <pt x="684" y="1104" on="1"/>
        <pt x="540" y="1104" on="0"/>
        <pt x="416" y="1036" on="0"/>
        <pt x="416" y="958" on="1"/>
        <pt x="416" y="894" on="0"/>
        <pt x="503" y="817" on="0"/>
        <pt x="575" y="817" on="1"/>
        <pt x="680" y="817" on="0"/>
        <pt x="811" y="960" on="0"/>
        <pt x="811" y="1075" on="1"/>
        <pt x="811" y="1104" on="1"/>
      </contour>
      <contour>
        <pt x="954" y="1165" on="1"/>
        <pt x="954" y="717" on="1"/>
        <pt x="811" y="717" on="1"/>
        <pt x="811" y="829" on="1"/>
        <pt x="762" y="764" on="0"/>
        <pt x="631" y="698" on="0"/>
        <pt x="549" y="698" on="1"/>
        <pt x="420" y="698" on="0"/>
        <pt x="270" y="834" on="0"/>
        <pt x="270" y="950" on="1"/>
        <pt x="270" y="1079" on="0"/>
        <pt x="457" y="1219" on="0"/>
        <pt x="629" y="1219" on="1"/>
        <pt x="811" y="1219" on="1"/>
        <pt x="811" y="1223" on="1"/>
        <pt x="811" y="1313" on="0"/>
        <pt x="692" y="1405" on="0"/>
        <pt x="575" y="1405" on="1"/>
        <pt x="524" y="1405" on="0"/>
        <pt x="399" y="1370" on="0"/>
        <pt x="332" y="1337" on="1"/>
        <pt x="332" y="1464" on="1"/>
        <pt x="400" y="1492" on="0"/>
        <pt x="535" y="1520" on="0"/>
        <pt x="598" y="1520" on="1"/>
        <pt x="782" y="1520" on="0"/>
        <pt x="954" y="1348" on="0"/>
      </contour>
      <contour>
        <pt x="293" y="592" on="1"/>
        <pt x="961" y="592" on="1"/>
        <pt x="961" y="469" on="1"/>
        <pt x="293" y="469" on="1"/>
      </contour>
    </TTGlyph>
    <TTGlyph name="ordmasculine" xMin="244" yMin="469" xMax="989" yMax="1520">
      <contour>
        <pt x="616" y="1403" on="1"/>
        <pt x="514" y="1403" on="0"/>
        <pt x="399" y="1247" on="0"/>
        <pt x="399" y="1108" on="1"/>
        <pt x="399" y="969" on="0"/>
        <pt x="514" y="815" on="0"/>
        <pt x="616" y="815" on="1"/>
        <pt x="717" y="815" on="0"/>
        <pt x="834" y="972" on="0"/>
        <pt x="834" y="1108" on="1"/>
        <pt x="834" y="1247" on="0"/>
        <pt x="719" y="1403" on="0"/>
      </contour>
      <contour>
        <pt x="616" y="1520" on="1"/>
        <pt x="786" y="1520" on="0"/>
        <pt x="989" y="1296" on="0"/>
        <pt x="989" y="1108" on="1"/>
        <pt x="989" y="921" on="0"/>
        <pt x="787" y="698" on="0"/>
        <pt x="616" y="698" on="1"/>
        <pt x="446" y="698" on="0"/>
        <pt x="244" y="921" on="0"/>
        <pt x="244" y="1108" on="1"/>
        <pt x="244" y="1296" on="0"/>
        <pt x="447" y="1520" on="0"/>
      </contour>
      <contour>
        <pt x="276" y="592" on="1"/>
        <pt x="952" y="592" on="1"/>
        <pt x="952" y="469" on="1"/>
        <pt x="276" y="469" on="1"/>
      </contour>
    </TTGlyph>
    <TTGlyph name="oslash" xMin="47" yMin="-96" xMax="1174" yMax="1212">
      <contour>
        <pt x="877" y="780" on="1"/>
        <pt x="414" y="221" on="1"/>
        <pt x="450" y="174" on="0"/>
        <pt x="551" y="127" on="0"/>
        <pt x="616" y="127" on="1"/>
        <pt x="757" y="127" on="0"/>
        <pt x="901" y="346" on="0"/>
        <pt x="901" y="559" on="1"/>
        <pt x="901" y="611" on="0"/>
        <pt x="889" y="722" on="0"/>
      </contour>
      <contour>
        <pt x="817" y="897" on="1"/>
        <pt x="782" y="945" on="0"/>
        <pt x="683" y="991" on="0"/>
        <pt x="616" y="991" on="1"/>
        <pt x="477" y="991" on="0"/>
        <pt x="328" y="777" on="0"/>
        <pt x="328" y="575" on="1"/>
        <pt x="328" y="527" on="0"/>
        <pt x="342" y="411" on="0"/>
        <pt x="356" y="340" on="1"/>
      </contour>
      <contour>
        <pt x="217" y="180" on="1"/>
        <pt x="178" y="251" on="0"/>
        <pt x="137" y="446" on="0"/>
        <pt x="137" y="559" on="1"/>
        <pt x="137" y="845" on="0"/>
        <pt x="383" y="1147" on="0"/>
        <pt x="616" y="1147" on="1"/>
        <pt x="716" y="1147" on="0"/>
        <pt x="874" y="1092" on="0"/>
        <pt x="934" y="1036" on="1"/>
        <pt x="1081" y="1212" on="1"/>
        <pt x="1174" y="1135" on="1"/>
        <pt x="1010" y="940" on="1"/>
        <pt x="1052" y="874" on="0"/>
        <pt x="1096" y="681" on="0"/>
        <pt x="1096" y="559" on="1"/>
        <pt x="1096" y="272" on="0"/>
        <pt x="850" y="-29" on="0"/>
        <pt x="616" y="-29" on="1"/>
        <pt x="513" y="-29" on="0"/>
        <pt x="356" y="30" on="0"/>
        <pt x="299" y="90" on="1"/>
        <pt x="139" y="-96" on="1"/>
        <pt x="47" y="-20" on="1"/>
      </contour>
    </TTGlyph>
    <TTGlyph name="otilde" xMin="137" yMin="-29" xMax="1096" yMax="1591">
      <component glyphName="o" x="0" y="0" flags="0x4"/>
      <component glyphName="tilde" x="0" y="0" flags="0x4"/>
    </TTGlyph>
    <TTGlyph name="p" xMin="190" yMin="-426" xMax="1108" yMax="1147">
      <contour>
        <pt x="375" y="141" on="1"/>
        <pt x="375" y="-426" on="1"/>
        <pt x="190" y="-426" on="1"/>
        <pt x="190" y="1120" on="1"/>
        <pt x="375" y="1120" on="1"/>
        <pt x="375" y="977" on="1"/>
        <pt x="421" y="1060" on="0"/>
        <pt x="574" y="1147" on="0"/>
        <pt x="674" y="1147" on="1"/>
        <pt x="877" y="1147" on="0"/>
        <pt x="1108" y="833" on="0"/>
        <pt x="1108" y="555" on="1"/>
        <pt x="1108" y="282" on="0"/>
        <pt x="876" y="-29" on="0"/>
        <pt x="674" y="-29" on="1"/>
        <pt x="572" y="-29" on="0"/>
        <pt x="419" y="58" on="0"/>
      </contour>
      <contour>
        <pt x="915" y="559" on="1"/>
        <pt x="915" y="773" on="0"/>
        <pt x="780" y="991" on="0"/>
        <pt x="647" y="991" on="1"/>
        <pt x="513" y="991" on="0"/>
        <pt x="375" y="772" on="0"/>
        <pt x="375" y="559" on="1"/>
        <pt x="375" y="347" on="0"/>
        <pt x="513" y="127" on="0"/>
        <pt x="647" y="127" on="1"/>
        <pt x="780" y="127" on="0"/>
        <pt x="915" y="345" on="0"/>
      </contour>
    </TTGlyph>
    <TTGlyph name="paragraph" xMin="106" yMin="-197" xMax="1030" yMax="1493">
      <contour>
        <pt x="582" y="1493" on="1"/>
        <pt x="1030" y="1493" on="1"/>
        <pt x="1030" y="-197" on="1"/>
        <pt x="889" y="-197" on="1"/>
        <pt x="889" y="1370" on="1"/>
        <pt x="698" y="1370" on="1"/>
        <pt x="698" y="-197" on="1"/>
        <pt x="557" y="-197" on="1"/>
        <pt x="557" y="649" on="1"/>
        <pt x="342" y="666" on="0"/>
        <pt x="106" y="887" on="0"/>
        <pt x="106" y="1071" on="1"/>
        <pt x="106" y="1261" on="0"/>
        <pt x="367" y="1493" on="0"/>
      </contour>
    </TTGlyph>
    <TTGlyph name="parenleft" xMin="426" yMin="-270" xMax="885" yMax="1554">
      <contour>
        <pt x="885" y="1554" on="1"/>
        <pt x="752" y="1326" on="0"/>
        <pt x="621" y="873" on="0"/>
        <pt x="621" y="643" on="1"/>
        <pt x="621" y="414" on="0"/>
        <pt x="752" y="-40" on="0"/>
        <pt x="885" y="-270" on="1"/>
        <pt x="725" y="-270" on="1"/>
        <pt x="574" y="-32" on="0"/>
        <pt x="426" y="419" on="0"/>
        <pt x="426" y="643" on="1"/>
        <pt x="426" y="866" on="0"/>
        <pt x="574" y="1318" on="0"/>
        <pt x="725" y="1554" on="1"/>
      </contour>
    </TTGlyph>
    <TTGlyph name="parenright" xMin="348" yMin="-270" xMax="807" yMax="1554">
      <contour>
        <pt x="348" y="1554" on="1"/>
        <pt x="508" y="1554" on="1"/>
        <pt x="659" y="1318" on="0"/>
        <pt x="807" y="866" on="0"/>
        <pt x="807" y="643" on="1"/>
        <pt x="807" y="418" on="0"/>
        <pt x="659" y="-34" on="0"/>
        <pt x="508" y="-270" on="1"/>
        <pt x="348" y="-270" on="1"/>
        <pt x="481" y="-38" on="0"/>
        <pt x="612" y="416" on="0"/>
        <pt x="612" y="643" on="1"/>
        <pt x="612" y="871" on="0"/>
        <pt x="481" y="1325" on="0"/>
      </contour>
    </TTGlyph>
    <TTGlyph name="partialdiff" xMin="190" yMin="-25" xMax="1047" yMax="1325">
      <contour>
        <pt x="842" y="621" on="1"/>
        <pt x="857" y="708" on="0"/>
        <pt x="872" y="871" on="0"/>
        <pt x="872" y="946" on="1"/>
        <pt x="872" y="1075" on="0"/>
        <pt x="799" y="1206" on="0"/>
        <pt x="727" y="1206" on="1"/>
        <pt x="672" y="1206" on="0"/>
        <pt x="528" y="1090" on="0"/>
        <pt x="492" y="1090" on="1"/>
        <pt x="456" y="1090" on="0"/>
        <pt x="408" y="1134" on="0"/>
        <pt x="408" y="1165" on="1"/>
        <pt x="408" y="1227" on="0"/>
        <pt x="552" y="1325" on="0"/>
        <pt x="653" y="1325" on="1"/>
        <pt x="833" y="1325" on="0"/>
        <pt x="1047" y="1015" on="0"/>
        <pt x="1047" y="752" on="1"/>
        <pt x="1047" y="417" on="0"/>
        <pt x="758" y="-25" on="0"/>
        <pt x="545" y="-25" on="1"/>
        <pt x="393" y="-25" on="0"/>
        <pt x="190" y="191" on="0"/>
        <pt x="190" y="354" on="1"/>
        <pt x="190" y="552" on="0"/>
        <pt x="411" y="809" on="0"/>
        <pt x="573" y="809" on="1"/>
        <pt x="674" y="809" on="0"/>
        <pt x="804" y="718" on="0"/>
      </contour>
      <contour>
        <pt x="793" y="494" on="1"/>
        <pt x="793" y="610" on="0"/>
        <pt x="706" y="735" on="0"/>
        <pt x="627" y="735" on="1"/>
        <pt x="518" y="735" on="0"/>
        <pt x="377" y="477" on="0"/>
        <pt x="377" y="270" on="1"/>
        <pt x="377" y="154" on="0"/>
        <pt x="463" y="31" on="0"/>
        <pt x="543" y="31" on="1"/>
        <pt x="652" y="31" on="0"/>
        <pt x="793" y="291" on="0"/>
      </contour>
    </TTGlyph>
    <TTGlyph name="percent" xMin="33" yMin="0" xMax="1200" yMax="1432">
      <contour>
        <pt x="696" y="319" on="1"/>
        <pt x="696" y="241" on="0"/>
        <pt x="801" y="135" on="0"/>
        <pt x="879" y="135" on="1"/>
        <pt x="956" y="135" on="0"/>
        <pt x="1063" y="242" on="0"/>
        <pt x="1063" y="319" on="1"/>
        <pt x="1063" y="396" on="0"/>
        <pt x="955" y="504" on="0"/>
        <pt x="879" y="504" on="1"/>
        <pt x="801" y="504" on="0"/>
        <pt x="696" y="398" on="0"/>
      </contour>
      <contour>
        <pt x="561" y="319" on="1"/>
        <pt x="561" y="454" on="0"/>
        <pt x="745" y="639" on="0"/>
        <pt x="879" y="639" on="1"/>
        <pt x="943" y="639" on="0"/>
        <pt x="1058" y="591" on="0"/>
        <pt x="1104" y="545" on="1"/>
        <pt x="1150" y="498" on="0"/>
        <pt x="1200" y="382" on="0"/>
        <pt x="1200" y="319" on="1"/>
        <pt x="1200" y="186" on="0"/>
        <pt x="1014" y="0" on="0"/>
        <pt x="879" y="0" on="1"/>
        <pt x="743" y="0" on="0"/>
        <pt x="561" y="183" on="0"/>
      </contour>
      <contour>
        <pt x="121" y="465" on="1"/>
        <pt x="86" y="561" on="1"/>
        <pt x="1128" y="979" on="1"/>
        <pt x="1169" y="883" on="1"/>
      </contour>
      <contour>
        <pt x="168" y="1112" on="1"/>
        <pt x="168" y="1033" on="0"/>
        <pt x="273" y="928" on="0"/>
        <pt x="352" y="928" on="1"/>
        <pt x="429" y="928" on="0"/>
        <pt x="537" y="1035" on="0"/>
        <pt x="537" y="1112" on="1"/>
        <pt x="537" y="1189" on="0"/>
        <pt x="429" y="1296" on="0"/>
        <pt x="352" y="1296" on="1"/>
        <pt x="275" y="1296" on="0"/>
        <pt x="168" y="1190" on="0"/>
      </contour>
      <contour>
        <pt x="33" y="1112" on="1"/>
        <pt x="33" y="1247" on="0"/>
        <pt x="217" y="1432" on="0"/>
        <pt x="352" y="1432" on="1"/>
        <pt x="416" y="1432" on="0"/>
        <pt x="533" y="1384" on="0"/>
        <pt x="578" y="1339" on="1"/>
        <pt x="623" y="1294" on="0"/>
        <pt x="672" y="1177" on="0"/>
        <pt x="672" y="1112" on="1"/>
        <pt x="672" y="978" on="0"/>
        <pt x="486" y="793" on="0"/>
        <pt x="352" y="793" on="1"/>
        <pt x="217" y="793" on="0"/>
        <pt x="33" y="977" on="0"/>
      </contour>
    </TTGlyph>
    <TTGlyph name="period" xMin="489" yMin="0" xMax="741" yMax="305">
      <contour>
        <pt x="489" y="305" on="1"/>
        <pt x="741" y="305" on="1"/>
        <pt x="741" y="0" on="1"/>
        <pt x="489" y="0" on="1"/>
      </contour>
    </TTGlyph>
    <TTGlyph name="periodcentered" xMin="489" yMin="559" xMax="741" yMax="864">
      <contour>
        <pt x="489" y="864" on="1"/>
        <pt x="741" y="864" on="1"/>
        <pt x="741" y="559" on="1"/>
        <pt x="489" y="559" on="1"/>
      </contour>
    </TTGlyph>
    <TTGlyph name="periodcentered#1" xMin="489" yMin="559" xMax="741" yMax="864">
      <contour>
        <pt x="489" y="864" on="1"/>
        <pt x="741" y="864" on="1"/>
        <pt x="741" y="559" on="1"/>
        <pt x="489" y="559" on="1"/>
      </contour>
    </TTGlyph>
    <TTGlyph name="perthousand" xMin="0" yMin="0" xMax="1233" yMax="1432">
      <contour>
        <pt x="72" y="567" on="1"/>
        <pt x="35" y="664" on="1"/>
        <pt x="1079" y="1079" on="1"/>
        <pt x="1118" y="983" on="1"/>
      </contour>
      <contour>
        <pt x="166" y="289" on="1"/>
        <pt x="166" y="218" on="0"/>
        <pt x="261" y="121" on="0"/>
        <pt x="330" y="121" on="1"/>
        <pt x="398" y="121" on="0"/>
        <pt x="496" y="220" on="0"/>
        <pt x="496" y="289" on="1"/>
        <pt x="496" y="356" on="0"/>
        <pt x="397" y="455" on="0"/>
        <pt x="330" y="455" on="1"/>
        <pt x="261" y="455" on="0"/>
        <pt x="166" y="358" on="0"/>
      </contour>
      <contour>
        <pt x="45" y="289" on="1"/>
        <pt x="45" y="410" on="0"/>
        <pt x="210" y="575" on="0"/>
        <pt x="330" y="575" on="1"/>
        <pt x="450" y="575" on="0"/>
        <pt x="616" y="409" on="0"/>
        <pt x="616" y="289" on="1"/>
        <pt x="616" y="168" on="0"/>
        <pt x="449" y="0" on="0"/>
        <pt x="330" y="0" on="1"/>
        <pt x="209" y="0" on="0"/>
        <pt x="45" y="166" on="0"/>
      </contour>
      <contour>
        <pt x="121" y="1145" on="1"/>
        <pt x="121" y="1076" on="0"/>
        <pt x="218" y="979" on="0"/>
        <pt x="287" y="979" on="1"/>
        <pt x="356" y="979" on="0"/>
        <pt x="453" y="1076" on="0"/>
        <pt x="453" y="1145" on="1"/>
        <pt x="453" y="1212" on="0"/>
        <pt x="354" y="1311" on="0"/>
        <pt x="287" y="1311" on="1"/>
        <pt x="218" y="1311" on="0"/>
        <pt x="121" y="1214" on="0"/>
      </contour>
      <contour>
        <pt x="0" y="1145" on="1"/>
        <pt x="0" y="1265" on="0"/>
        <pt x="166" y="1432" on="0"/>
        <pt x="287" y="1432" on="1"/>
        <pt x="407" y="1432" on="0"/>
        <pt x="573" y="1265" on="0"/>
        <pt x="573" y="1145" on="1"/>
        <pt x="573" y="1024" on="0"/>
        <pt x="407" y="856" on="0"/>
        <pt x="287" y="856" on="1"/>
        <pt x="166" y="856" on="0"/>
        <pt x="0" y="1023" on="0"/>
      </contour>
      <contour>
        <pt x="780" y="289" on="1"/>
        <pt x="780" y="218" on="0"/>
        <pt x="877" y="121" on="0"/>
        <pt x="946" y="121" on="1"/>
        <pt x="1016" y="121" on="0"/>
        <pt x="1112" y="218" on="0"/>
        <pt x="1112" y="289" on="1"/>
        <pt x="1112" y="356" on="0"/>
        <pt x="1014" y="455" on="0"/>
        <pt x="946" y="455" on="1"/>
        <pt x="877" y="455" on="0"/>
        <pt x="780" y="358" on="0"/>
      </contour>
      <contour>
        <pt x="659" y="289" on="1"/>
        <pt x="659" y="409" on="0"/>
        <pt x="825" y="575" on="0"/>
        <pt x="946" y="575" on="1"/>
        <pt x="1066" y="575" on="0"/>
        <pt x="1233" y="409" on="0"/>
        <pt x="1233" y="289" on="1"/>
        <pt x="1233" y="168" on="0"/>
        <pt x="1066" y="0" on="0"/>
        <pt x="946" y="0" on="1"/>
        <pt x="825" y="0" on="0"/>
        <pt x="659" y="167" on="0"/>
      </contour>
    </TTGlyph>
    <TTGlyph name="pi" xMin="80" yMin="-39" xMax="1182" yMax="1100">
      <contour>
        <pt x="80" y="1100" on="1"/>
        <pt x="1153" y="1100" on="1"/>
        <pt x="1153" y="952" on="1"/>
        <pt x="1012" y="952" on="1"/>
        <pt x="1012" y="248" on="1"/>
        <pt x="1012" y="176" on="0"/>
        <pt x="1061" y="113" on="0"/>
        <pt x="1116" y="113" on="1"/>
        <pt x="1131" y="113" on="0"/>
        <pt x="1175" y="118" on="0"/>
        <pt x="1182" y="119" on="1"/>
        <pt x="1182" y="-14" on="1"/>
        <pt x="1147" y="-27" on="0"/>
        <pt x="1073" y="-39" on="0"/>
        <pt x="1036" y="-39" on="1"/>
        <pt x="923" y="-39" on="0"/>
        <pt x="831" y="92" on="0"/>
        <pt x="831" y="268" on="1"/>
        <pt x="831" y="952" on="1"/>
        <pt x="403" y="952" on="1"/>
        <pt x="403" y="0" on="1"/>
        <pt x="223" y="0" on="1"/>
        <pt x="223" y="952" on="1"/>
        <pt x="80" y="952" on="1"/>
      </contour>
    </TTGlyph>
    <TTGlyph name="plus" xMin="88" yMin="113" xMax="1145" yMax="1171">
      <contour>
        <pt x="700" y="1171" on="1"/>
        <pt x="700" y="727" on="1"/>
        <pt x="1145" y="727" on="1"/>
        <pt x="1145" y="557" on="1"/>
        <pt x="700" y="557" on="1"/>
        <pt x="700" y="113" on="1"/>
        <pt x="532" y="113" on="1"/>
        <pt x="532" y="557" on="1"/>
        <pt x="88" y="557" on="1"/>
        <pt x="88" y="727" on="1"/>
        <pt x="532" y="727" on="1"/>
        <pt x="532" y="1171" on="1"/>
      </contour>
    </TTGlyph>
    <TTGlyph name="plusminus" xMin="88" yMin="0" xMax="1145" yMax="1171">
      <contour>
        <pt x="88" y="170" on="1"/>
        <pt x="1145" y="170" on="1"/>
        <pt x="1145" y="0" on="1"/>
        <pt x="88" y="0" on="1"/>
      </contour>
      <contour>
        <pt x="700" y="1171" on="1"/>
        <pt x="700" y="842" on="1"/>
        <pt x="1145" y="842" on="1"/>
        <pt x="1145" y="672" on="1"/>
        <pt x="700" y="672" on="1"/>
        <pt x="700" y="340" on="1"/>
        <pt x="532" y="340" on="1"/>
        <pt x="532" y="672" on="1"/>
        <pt x="88" y="672" on="1"/>
        <pt x="88" y="842" on="1"/>
        <pt x="532" y="842" on="1"/>
        <pt x="532" y="1171" on="1"/>
      </contour>
    </TTGlyph>
    <TTGlyph name="product" xMin="152" yMin="-436" xMax="1081" yMax="1518">
      <contour>
        <pt x="152" y="-436" on="1"/>
        <pt x="152" y="1518" on="1"/>
        <pt x="1081" y="1518" on="1"/>
        <pt x="1081" y="-436" on="1"/>
        <pt x="926" y="-436" on="1"/>
        <pt x="926" y="1386" on="1"/>
        <pt x="307" y="1386" on="1"/>
        <pt x="307" y="-436" on="1"/>
      </contour>
    </TTGlyph>
    <TTGlyph name="q" xMin="137" yMin="-430" xMax="1055" yMax="1143">
      <contour>
        <pt x="332" y="555" on="1"/>
        <pt x="332" y="341" on="0"/>
        <pt x="467" y="123" on="0"/>
        <pt x="600" y="123" on="1"/>
        <pt x="733" y="123" on="0"/>
        <pt x="870" y="342" on="0"/>
        <pt x="870" y="555" on="1"/>
        <pt x="870" y="768" on="0"/>
        <pt x="733" y="987" on="0"/>
        <pt x="600" y="987" on="1"/>
        <pt x="467" y="987" on="0"/>
        <pt x="332" y="769" on="0"/>
      </contour>
      <contour>
        <pt x="870" y="139" on="1"/>
        <pt x="825" y="56" on="0"/>
        <pt x="672" y="-33" on="0"/>
        <pt x="571" y="-33" on="1"/>
        <pt x="370" y="-33" on="0"/>
        <pt x="137" y="278" on="0"/>
        <pt x="137" y="551" on="1"/>
        <pt x="137" y="829" on="0"/>
        <pt x="369" y="1143" on="0"/>
        <pt x="571" y="1143" on="1"/>
        <pt x="671" y="1143" on="0"/>
        <pt x="824" y="1056" on="0"/>
        <pt x="870" y="973" on="1"/>
        <pt x="870" y="1116" on="1"/>
        <pt x="1055" y="1116" on="1"/>
        <pt x="1055" y="-430" on="1"/>
        <pt x="870" y="-430" on="1"/>
      </contour>
    </TTGlyph>
    <TTGlyph name="question" xMin="244" yMin="0" xMax="1040" yMax="1520">
      <contour>
        <pt x="684" y="401" on="1"/>
        <pt x="494" y="401" on="1"/>
        <pt x="494" y="555" on="1"/>
        <pt x="494" y="653" on="0"/>
        <pt x="555" y="790" on="0"/>
        <pt x="639" y="872" on="1"/>
        <pt x="729" y="961" on="1"/>
        <pt x="791" y="1020" on="0"/>
        <pt x="838" y="1108" on="0"/>
        <pt x="838" y="1157" on="1"/>
        <pt x="838" y="1246" on="0"/>
        <pt x="707" y="1356" on="0"/>
        <pt x="598" y="1356" on="1"/>
        <pt x="520" y="1356" on="0"/>
        <pt x="342" y="1287" on="0"/>
        <pt x="244" y="1219" on="1"/>
        <pt x="244" y="1407" on="1"/>
        <pt x="338" y="1464" on="0"/>
        <pt x="529" y="1520" on="0"/>
        <pt x="633" y="1520" on="1"/>
        <pt x="819" y="1520" on="0"/>
        <pt x="1040" y="1328" on="0"/>
        <pt x="1040" y="1167" on="1"/>
        <pt x="1040" y="1091" on="0"/>
        <pt x="973" y="960" on="0"/>
        <pt x="879" y="868" on="1"/>
        <pt x="791" y="782" on="1"/>
        <pt x="722" y="716" on="0"/>
        <pt x="684" y="632" on="0"/>
        <pt x="684" y="571" on="1"/>
        <pt x="684" y="524" on="1"/>
      </contour>
      <contour>
        <pt x="487" y="254" on="1"/>
        <pt x="690" y="254" on="1"/>
        <pt x="690" y="0" on="1"/>
        <pt x="487" y="0" on="1"/>
      </contour>
    </TTGlyph>
    <TTGlyph name="questiondown" xMin="193" yMin="-27" xMax="989" yMax="1493">
      <contour>
        <pt x="549" y="1092" on="1"/>
        <pt x="739" y="1092" on="1"/>
        <pt x="739" y="938" on="1"/>
        <pt x="739" y="840" on="0"/>
        <pt x="678" y="703" on="0"/>
        <pt x="594" y="621" on="1"/>
        <pt x="504" y="532" on="1"/>
        <pt x="442" y="473" on="0"/>
        <pt x="395" y="385" on="0"/>
        <pt x="395" y="336" on="1"/>
        <pt x="395" y="247" on="0"/>
        <pt x="526" y="137" on="0"/>
        <pt x="635" y="137" on="1"/>
        <pt x="713" y="137" on="0"/>
        <pt x="891" y="206" on="0"/>
        <pt x="989" y="274" on="1"/>
        <pt x="989" y="86" on="1"/>
        <pt x="895" y="29" on="0"/>
        <pt x="704" y="-27" on="0"/>
        <pt x="600" y="-27" on="1"/>
        <pt x="414" y="-27" on="0"/>
        <pt x="193" y="165" on="0"/>
        <pt x="193" y="326" on="1"/>
        <pt x="193" y="402" on="0"/>
        <pt x="260" y="533" on="0"/>
        <pt x="354" y="625" on="1"/>
        <pt x="442" y="711" on="1"/>
        <pt x="509" y="775" on="0"/>
        <pt x="547" y="859" on="0"/>
        <pt x="547" y="922" on="1"/>
        <pt x="547" y="923" on="0"/>
        <pt x="547" y="927" on="1"/>
        <pt x="549" y="950" on="0"/>
        <pt x="549" y="969" on="1"/>
      </contour>
      <contour>
        <pt x="745" y="1239" on="1"/>
        <pt x="543" y="1239" on="1"/>
        <pt x="543" y="1493" on="1"/>
        <pt x="745" y="1493" on="1"/>
      </contour>
    </TTGlyph>
    <TTGlyph name="quotedbl" xMin="338" yMin="938" xMax="895" yMax="1493">
      <contour>
        <pt x="895" y="1493" on="1"/>
        <pt x="895" y="938" on="1"/>
        <pt x="721" y="938" on="1"/>
        <pt x="721" y="1493" on="1"/>
      </contour>
      <contour>
        <pt x="512" y="1493" on="1"/>
        <pt x="512" y="938" on="1"/>
        <pt x="338" y="938" on="1"/>
        <pt x="338" y="1493" on="1"/>
      </contour>
    </TTGlyph>
    <TTGlyph name="quotedblbase" xMin="211" yMin="-287" xMax="1020" yMax="303">
      <contour>
        <pt x="768" y="303" on="1"/>
        <pt x="1020" y="303" on="1"/>
        <pt x="1020" y="96" on="1"/>
        <pt x="823" y="-287" on="1"/>
        <pt x="670" y="-287" on="1"/>
        <pt x="768" y="96" on="1"/>
      </contour>
      <contour>
        <pt x="309" y="303" on="1"/>
        <pt x="561" y="303" on="1"/>
        <pt x="561" y="96" on="1"/>
        <pt x="365" y="-287" on="1"/>
        <pt x="211" y="-287" on="1"/>
        <pt x="309" y="96" on="1"/>
      </contour>
    </TTGlyph>
    <TTGlyph name="quotedblleft" xMin="211" yMin="967" xMax="1022" yMax="1556">
      <contour>
        <pt x="924" y="967" on="1"/>
        <pt x="672" y="967" on="1"/>
        <pt x="672" y="1174" on="1"/>
        <pt x="868" y="1556" on="1"/>
        <pt x="1022" y="1556" on="1"/>
        <pt x="924" y="1174" on="1"/>

      </contour>
      <contour>
        <pt x="465" y="967" on="1"/>
        <pt x="211" y="967" on="1"/>
        <pt x="211" y="1174" on="1"/>
        <pt x="410" y="1556" on="1"/>
        <pt x="563" y="1556" on="1"/>
        <pt x="465" y="1174" on="1"/>
      </contour>
    </TTGlyph>
    <TTGlyph name="quotedblright" xMin="211" yMin="967" xMax="1020" yMax="1556">
      <contour>
        <pt x="768" y="1556" on="1"/>
        <pt x="1020" y="1556" on="1"/>
        <pt x="1020" y="1350" on="1"/>
        <pt x="823" y="967" on="1"/>
        <pt x="670" y="967" on="1"/>
        <pt x="768" y="1350" on="1"/>
      </contour>
      <contour>
        <pt x="309" y="1556" on="1"/>
        <pt x="561" y="1556" on="1"/>
        <pt x="561" y="1350" on="1"/>
        <pt x="365" y="967" on="1"/>
        <pt x="211" y="967" on="1"/>
        <pt x="309" y="1350" on="1"/>
      </contour>
    </TTGlyph>
    <TTGlyph name="quoteleft" xMin="463" yMin="967" xMax="813" yMax="1556">
      <contour>
        <pt x="715" y="967" on="1"/>
        <pt x="463" y="967" on="1"/>
        <pt x="463" y="1174" on="1"/>
        <pt x="659" y="1556" on="1"/>
        <pt x="813" y="1556" on="1"/>
        <pt x="715" y="1174" on="1"/>
      </contour>
    </TTGlyph>
    <TTGlyph name="quoteright" xMin="463" yMin="967" xMax="813" yMax="1556">
      <contour>
        <pt x="561" y="1556" on="1"/>
        <pt x="813" y="1556" on="1"/>
        <pt x="813" y="1350" on="1"/>
        <pt x="616" y="967" on="1"/>
        <pt x="463" y="967" on="1"/>
        <pt x="561" y="1350" on="1"/>
      </contour>
    </TTGlyph>
    <TTGlyph name="quotesinglbase" xMin="403" yMin="-287" xMax="754" yMax="303">
      <contour>
        <pt x="502" y="303" on="1"/>
        <pt x="754" y="303" on="1"/>
        <pt x="754" y="96" on="1"/>
        <pt x="557" y="-287" on="1"/>
        <pt x="403" y="-287" on="1"/>
        <pt x="502" y="96" on="1"/>
      </contour>
    </TTGlyph>
    <TTGlyph name="quotesingle" xMin="528" yMin="938" xMax="702" yMax="1493">
      <contour>
        <pt x="702" y="1493" on="1"/>
        <pt x="702" y="938" on="1"/>
        <pt x="528" y="938" on="1"/>
        <pt x="528" y="1493" on="1"/>
      </contour>
    </TTGlyph>
    <TTGlyph name="r" xMin="362" yMin="0" xMax="1155" yMax="1147">
      <contour>
        <pt x="1155" y="889" on="1"/>
        <pt x="1096" y="935" on="0"/>
        <pt x="974" y="977" on="0"/>
        <pt x="901" y="977" on="1"/>
        <pt x="729" y="977" on="0"/>
        <pt x="547" y="761" on="0"/>
        <pt x="547" y="557" on="1"/>
        <pt x="547" y="0" on="1"/>
        <pt x="362" y="0" on="1"/>
        <pt x="362" y="1120" on="1"/>
        <pt x="547" y="1120" on="1"/>
        <pt x="547" y="901" on="1"/>
        <pt x="593" y="1020" on="0"/>
        <pt x="784" y="1147" on="0"/>
        <pt x="915" y="1147" on="1"/>
        <pt x="983" y="1147" on="0"/>
        <pt x="1101" y="1113" on="0"/>
        <pt x="1155" y="1077" on="1"/>
      </contour>
    </TTGlyph>
    <TTGlyph name="radical" xMin="59" yMin="-39" xMax="1184" yMax="1696">
      <contour>
        <pt x="100" y="733" on="1"/>
        <pt x="59" y="858" on="1"/>
        <pt x="350" y="956" on="1"/>
        <pt x="569" y="225" on="1"/>
        <pt x="1036" y="1696" on="1"/>
        <pt x="1184" y="1696" on="1"/>
        <pt x="1184" y="1565" on="1"/>
        <pt x="1137" y="1565" on="1"/>
        <pt x="631" y="-39" on="1"/>
        <pt x="504" y="-39" on="1"/>
        <pt x="258" y="786" on="1"/>
      </contour>
    </TTGlyph>
    <TTGlyph name="registered" xMin="0" yMin="125" xMax="1233" yMax="1358">
      <contour>
        <pt x="600" y="1100" on="1"/>
        <pt x="747" y="1100" on="0"/>
        <pt x="891" y="1002" on="0"/>
        <pt x="891" y="901" on="1"/>
        <pt x="891" y="830" on="0"/>
        <pt x="803" y="737" on="0"/>
        <pt x="723" y="723" on="1"/>
        <pt x="742" y="718" on="0"/>
        <pt x="800" y="651" on="0"/>
        <pt x="838" y="592" on="1"/>
        <pt x="952" y="406" on="1"/>
        <pt x="809" y="406" on="1"/>
        <pt x="702" y="580" on="1"/>
        <pt x="653" y="660" on="0"/>
        <pt x="592" y="702" on="0"/>
        <pt x="547" y="702" on="1"/>
        <pt x="492" y="702" on="1"/>
        <pt x="492" y="406" on="1"/>
        <pt x="362" y="406" on="1"/>
        <pt x="362" y="1100" on="1"/>
      </contour>
      <contour>
        <pt x="594" y="1016" on="1"/>
        <pt x="492" y="1016" on="1"/>
        <pt x="492" y="784" on="1"/>
        <pt x="594" y="784" on="1"/>
        <pt x="684" y="784" on="0"/>
        <pt x="758" y="838" on="0"/>
        <pt x="758" y="901" on="1"/>
        <pt x="758" y="963" on="0"/>
        <pt x="684" y="1016" on="0"/>
      </contour>
      <contour>
        <pt x="616" y="1358" on="1"/>
        <pt x="743" y="1358" on="0"/>
        <pt x="961" y="1268" on="0"/>
        <pt x="1051" y="1178" on="1"/>
        <pt x="1141" y="1087" on="0"/>
        <pt x="1233" y="867" on="0"/>
        <pt x="1233" y="741" on="1"/>
        <pt x="1233" y="616" on="0"/>
        <pt x="1142" y="398" on="0"/>
        <pt x="1051" y="307" on="1"/>
        <pt x="960" y="216" on="0"/>
        <pt x="742" y="125" on="0"/>
        <pt x="616" y="125" on="1"/>
        <pt x="491" y="125" on="0"/>
        <pt x="273" y="216" on="0"/>
        <pt x="182" y="307" on="1"/>
        <pt x="91" y="398" on="0"/>
        <pt x="0" y="616" on="0"/>
        <pt x="0" y="741" on="1"/>
        <pt x="0" y="867" on="0"/>
        <pt x="92" y="1087" on="0"/>
        <pt x="182" y="1178" on="1"/>
        <pt x="272" y="1268" on="0"/>
        <pt x="490" y="1358" on="0"/>
      </contour>
      <contour>
        <pt x="616" y="1255" on="1"/>
        <pt x="510" y="1255" on="0"/>
        <pt x="329" y="1181" on="0"/>
        <pt x="254" y="1106" on="1"/>
        <pt x="179" y="1031" on="0"/>
        <pt x="102" y="847" on="0"/>
        <pt x="102" y="741" on="1"/>
        <pt x="102" y="637" on="0"/>
        <pt x="179" y="454" on="0"/>
        <pt x="254" y="379" on="1"/>
        <pt x="330" y="303" on="0"/>
        <pt x="511" y="227" on="0"/>
        <pt x="616" y="227" on="1"/>
        <pt x="722" y="227" on="0"/>
        <pt x="903" y="303" on="0"/>
        <pt x="979" y="379" on="1"/>
        <pt x="1055" y="455" on="0"/>
        <pt x="1130" y="636" on="0"/>
        <pt x="1130" y="741" on="1"/>
        <pt x="1130" y="847" on="0"/>
        <pt x="1054" y="1031" on="0"/>
        <pt x="979" y="1106" on="1"/>
        <pt x="904" y="1181" on="0"/>
        <pt x="723" y="1255" on="0"/>
      </contour>
    </TTGlyph>
    <TTGlyph name="ring" xMin="342" yMin="1249" xMax="891" yMax="1798">
      <contour>
        <pt x="891" y="1524" on="1"/>
        <pt x="891" y="1409" on="0"/>
        <pt x="732" y="1249" on="0"/>
        <pt x="616" y="1249" on="1"/>
        <pt x="501" y="1249" on="0"/>
        <pt x="342" y="1409" on="0"/>
        <pt x="342" y="1524" on="1"/>
        <pt x="342" y="1639" on="0"/>
        <pt x="501" y="1798" on="0"/>
        <pt x="616" y="1798" on="1"/>
        <pt x="732" y="1798" on="0"/>
        <pt x="891" y="1639" on="0"/>
      </contour>
      <contour>
        <pt x="768" y="1524" on="1"/>
        <pt x="768" y="1587" on="0"/>
        <pt x="680" y="1675" on="0"/>
        <pt x="616" y="1675" on="1"/>
        <pt x="552" y="1675" on="0"/>
        <pt x="465" y="1588" on="0"/>
        <pt x="465" y="1524" on="1"/>
        <pt x="465" y="1459" on="0"/>
        <pt x="552" y="1372" on="0"/>
        <pt x="616" y="1372" on="1"/>
        <pt x="680" y="1372" on="0"/>
        <pt x="768" y="1460" on="0"/>
      </contour>
    </TTGlyph>
    <TTGlyph name="s" xMin="213" yMin="-29" xMax="1030" yMax="1147">
      <contour>
        <pt x="973" y="1081" on="1"/>
        <pt x="973" y="901" on="1"/>
        <pt x="894" y="947" on="0"/>
        <pt x="734" y="993" on="0"/>
        <pt x="651" y="993" on="1"/>
        <pt x="526" y="993" on="0"/>
        <pt x="403" y="912" on="0"/>
        <pt x="403" y="829" on="1"/>
        <pt x="403" y="754" on="0"/>
        <pt x="495" y="680" on="0"/>
        <pt x="678" y="645" on="1"/>
        <pt x="752" y="631" on="1"/>
        <pt x="889" y="605" on="0"/>
        <pt x="1030" y="449" on="0"/>
        <pt x="1030" y="324" on="1"/>
        <pt x="1030" y="158" on="0"/>
        <pt x="794" y="-29" on="0"/>
        <pt x="584" y="-29" on="1"/>
        <pt x="501" y="-29" on="0"/>
        <pt x="319" y="6" on="0"/>
        <pt x="213" y="41" on="1"/>
        <pt x="213" y="231" on="1"/>
        <pt x="316" y="178" on="0"/>
        <pt x="504" y="125" on="0"/>
        <pt x="588" y="125" on="1"/>
        <pt x="710" y="125" on="0"/>
        <pt x="844" y="224" on="0"/>
        <pt x="844" y="313" on="1"/>
        <pt x="844" y="441" on="0"/>
        <pt x="599" y="490" on="1"/>
        <pt x="591" y="492" on="1"/>
        <pt x="522" y="506" on="1"/>
        <pt x="363" y="537" on="0"/>
        <pt x="217" y="684" on="0"/>
        <pt x="217" y="811" on="1"/>
        <pt x="217" y="972" on="0"/>
        <pt x="435" y="1147" on="0"/>
        <pt x="637" y="1147" on="1"/>
        <pt x="727" y="1147" on="0"/>
        <pt x="893" y="1114" on="0"/>
      </contour>
    </TTGlyph>
    <TTGlyph name="scaron" xMin="213" yMin="-29" xMax="1030" yMax="1638">
      <component glyphName="s" x="0" y="0" flags="0x4"/>
      <component glyphName="caron" x="0" y="0" flags="0x4"/>
    </TTGlyph>
    <TTGlyph name="scedilla" xMin="213" yMin="-395" xMax="1030" yMax="1147">
      <component glyphName="s" x="0" y="0" flags="0x4"/>
      <component glyphName="cedilla" x="0" y="0" flags="0x4"/>
    </TTGlyph>
    <TTGlyph name="section" xMin="199" yMin="-195" xMax="1036" yMax="1520">
      <contour>
        <pt x="936" y="1462" on="1"/>
        <pt x="936" y="1298" on="1"/>
        <pt x="853" y="1337" on="0"/>
        <pt x="710" y="1376" on="0"/>
        <pt x="653" y="1376" on="1"/>
        <pt x="556" y="1376" on="0"/>
        <pt x="449" y="1296" on="0"/>
        <pt x="449" y="1225" on="1"/>
        <pt x="449" y="1135" on="0"/>
        <pt x="654" y="1020" on="1"/>
        <pt x="680" y="1005" on="0"/>
        <pt x="694" y="997" on="1"/>
        <pt x="906" y="878" on="0"/>
        <pt x="1036" y="724" on="0"/>
        <pt x="1036" y="623" on="1"/>
        <pt x="1036" y="533" on="0"/>
        <pt x="945" y="393" on="0"/>
        <pt x="852" y="340" on="1"/>
        <pt x="913" y="288" on="0"/>
        <pt x="971" y="179" on="0"/>
        <pt x="971" y="115" on="1"/>
        <pt x="971" y="-27" on="0"/>
        <pt x="767" y="-195" on="0"/>
        <pt x="594" y="-195" on="1"/>
        <pt x="521" y="-195" on="0"/>
        <pt x="366" y="-166" on="0"/>
        <pt x="279" y="-137" on="1"/>
        <pt x="279" y="27" on="1"/>
        <pt x="366" y="-12" on="0"/>
        <pt x="514" y="-51" on="0"/>
        <pt x="571" y="-51" on="1"/>
        <pt x="673" y="-51" on="0"/>
        <pt x="786" y="33" on="0"/>
        <pt x="786" y="109" on="1"/>
        <pt x="786" y="211" on="0"/>
        <pt x="565" y="334" on="1"/>
        <pt x="541" y="348" on="1"/>
        <pt x="327" y="468" on="0"/>
        <pt x="199" y="621" on="0"/>
        <pt x="199" y="723" on="1"/>
        <pt x="199" y="814" on="0"/>
        <pt x="292" y="957" on="0"/>
        <pt x="383" y="1006" on="1"/>
        <pt x="323" y="1050" on="0"/>
        <pt x="264" y="1162" on="0"/>
        <pt x="264" y="1231" on="1"/>
        <pt x="264" y="1361" on="0"/>
        <pt x="464" y="1520" on="0"/>
        <pt x="631" y="1520" on="1"/>
        <pt x="703" y="1520" on="0"/>
        <pt x="856" y="1491" on="0"/>
      </contour>
      <contour>
        <pt x="485" y="936" on="1"/>
        <pt x="423" y="891" on="0"/>
        <pt x="362" y="801" on="0"/>
        <pt x="362" y="754" on="1"/>
        <pt x="362" y="678" on="0"/>
        <pt x="503" y="543" on="0"/>
        <pt x="750" y="410" on="1"/>
        <pt x="812" y="455" on="0"/>
        <pt x="872" y="545" on="0"/>
        <pt x="872" y="592" on="1"/>
        <pt x="872" y="668" on="0"/>
        <pt x="729" y="804" on="0"/>
      </contour>
    </TTGlyph>
    <TTGlyph name="semicolon" xMin="403" yMin="-287" xMax="754" yMax="1063">
      <contour>
        <pt x="502" y="303" on="1"/>
        <pt x="754" y="303" on="1"/>
        <pt x="754" y="96" on="1"/>
        <pt x="557" y="-287" on="1"/>
        <pt x="403" y="-287" on="1"/>
        <pt x="502" y="96" on="1"/>
      </contour>
      <contour>
        <pt x="489" y="1063" on="1"/>
        <pt x="741" y="1063" on="1"/>
        <pt x="741" y="760" on="1"/>
        <pt x="489" y="760" on="1"/>
      </contour>
    </TTGlyph>
    <TTGlyph name="seven" xMin="139" yMin="0" xMax="1079" yMax="1493">
      <contour>
        <pt x="139" y="1493" on="1"/>
        <pt x="1079" y="1493" on="1"/>
        <pt x="1079" y="1407" on="1"/>
        <pt x="545" y="0" on="1"/>
        <pt x="334" y="0" on="1"/>
        <pt x="854" y="1323" on="1"/>
        <pt x="139" y="1323" on="1"/>
      </contour>
    </TTGlyph>
    <TTGlyph name="sfthyphen" xMin="356" yMin="479" xMax="877" yMax="643">
      <contour>
        <pt x="356" y="643" on="1"/>
        <pt x="877" y="643" on="1"/>
        <pt x="877" y="479" on="1"/>
        <pt x="356" y="479" on="1"/>
      </contour>
    </TTGlyph>
    <TTGlyph name="six" xMin="133" yMin="-29" xMax="1100" yMax="1520">
      <contour>
        <pt x="991" y="1460" on="1"/>
        <pt x="991" y="1274" on="1"/>
        <pt x="928" y="1311" on="0"/>
        <pt x="786" y="1350" on="0"/>
        <pt x="709" y="1350" on="1"/>
        <pt x="517" y="1350" on="0"/>
        <pt x="319" y="1061" on="0"/>
        <pt x="319" y="780" on="1"/>
        <pt x="367" y="880" on="0"/>
        <pt x="537" y="987" on="0"/>
        <pt x="647" y="987" on="1"/>
        <pt x="863" y="987" on="0"/>
        <pt x="1100" y="722" on="0"/>
        <pt x="1100" y="479" on="1"/>
        <pt x="1100" y="237" on="0"/>
        <pt x="856" y="-29" on="0"/>
        <pt x="635" y="-29" on="1"/>
        <pt x="375" y="-29" on="0"/>
        <pt x="133" y="344" on="0"/>
        <pt x="133" y="745" on="1"/>
        <pt x="133" y="1123" on="0"/>
        <pt x="424" y="1520" on="0"/>
        <pt x="700" y="1520" on="1"/>
        <pt x="774" y="1520" on="0"/>
        <pt x="922" y="1489" on="0"/>
      </contour>
      <contour>
        <pt x="631" y="829" on="1"/>
        <pt x="502" y="829" on="0"/>
        <pt x="354" y="643" on="0"/>
        <pt x="354" y="479" on="1"/>
        <pt x="354" y="315" on="0"/>
        <pt x="502" y="129" on="0"/>
        <pt x="631" y="129" on="1"/>
        <pt x="765" y="129" on="0"/>
        <pt x="901" y="306" on="0"/>
        <pt x="901" y="479" on="1"/>
        <pt x="901" y="653" on="0"/>
        <pt x="765" y="829" on="0"/>
      </contour>
    </TTGlyph>
    <TTGlyph name="slash" xMin="102" yMin="-190" xMax="1079" yMax="1493">
      <contour>
        <pt x="889" y="1493" on="1"/>
        <pt x="1079" y="1493" on="1"/>
        <pt x="293" y="-190" on="1"/>
        <pt x="102" y="-190" on="1"/>
      </contour>
    </TTGlyph>
    <TTGlyph name="sterling" xMin="139" yMin="0" xMax="1112" yMax="1520">
      <contour>
        <pt x="1092" y="1462" on="1"/>
        <pt x="1092" y="1278" on="1"/>
        <pt x="1030" y="1322" on="0"/>
        <pt x="903" y="1366" on="0"/>
        <pt x="836" y="1366" on="1"/>
        <pt x="702" y="1366" on="0"/>
        <pt x="575" y="1187" on="0"/>
        <pt x="575" y="995" on="1"/>
        <pt x="575" y="778" on="1"/>
        <pt x="946" y="778" on="1"/>
        <pt x="946" y="635" on="1"/>
        <pt x="575" y="635" on="1"/>
        <pt x="575" y="170" on="1"/>
        <pt x="1112" y="170" on="1"/>
        <pt x="1112" y="0" on="1"/>
        <pt x="139" y="0" on="1"/>
        <pt x="139" y="170" on="1"/>
        <pt x="375" y="170" on="1"/>
        <pt x="375" y="635" on="1"/>
        <pt x="176" y="635" on="1"/>
        <pt x="176" y="778" on="1"/>
        <pt x="375" y="778" on="1"/>
        <pt x="375" y="1016" on="1"/>
        <pt x="375" y="1270" on="0"/>
        <pt x="594" y="1520" on="0"/>
        <pt x="817" y="1520" on="1"/>
        <pt x="882" y="1520" on="0"/>
        <pt x="1019" y="1491" on="0"/>
      </contour>
    </TTGlyph>
    <TTGlyph name="summation" xMin="143" yMin="-436" xMax="1085" yMax="1518">
      <contour>
        <pt x="332" y="-299" on="1"/>
        <pt x="1085" y="-299" on="1"/>
        <pt x="1085" y="-436" on="1"/>
        <pt x="143" y="-436" on="1"/>
        <pt x="143" y="-344" on="1"/>
        <pt x="692" y="575" on="1"/>
        <pt x="143" y="1423" on="1"/>
        <pt x="143" y="1518" on="1"/>
        <pt x="1065" y="1518" on="1"/>
        <pt x="1065" y="1378" on="1"/>
        <pt x="332" y="1378" on="1"/>
        <pt x="854" y="575" on="1"/>
      </contour>
    </TTGlyph>
    <TTGlyph name="t" xMin="131" yMin="0" xMax="1032" yMax="1438">
      <contour>
        <pt x="614" y="1438" on="1"/>
        <pt x="614" y="1120" on="1"/>
        <pt x="1032" y="1120" on="1"/>
        <pt x="1032" y="977" on="1"/>
        <pt x="614" y="977" on="1"/>
        <pt x="614" y="369" on="1"/>
        <pt x="614" y="245" on="0"/>
        <pt x="708" y="147" on="0"/>
        <pt x="825" y="147" on="1"/>
        <pt x="1032" y="147" on="1"/>
        <pt x="1032" y="0" on="1"/>
        <pt x="807" y="0" on="1"/>
        <pt x="600" y="0" on="0"/>
        <pt x="430" y="166" on="0"/>
        <pt x="430" y="369" on="1"/>
        <pt x="430" y="977" on="1"/>
        <pt x="131" y="977" on="1"/>
        <pt x="131" y="1120" on="1"/>
        <pt x="430" y="1120" on="1"/>
        <pt x="430" y="1438" on="1"/>
      </contour>
    </TTGlyph>
    <TTGlyph name="thorn" xMin="190" yMin="-426" xMax="1108" yMax="1567">
      <contour>
        <pt x="375" y="141" on="1"/>
        <pt x="375" y="-426" on="1"/>
        <pt x="190" y="-426" on="1"/>
        <pt x="190" y="1567" on="1"/>
        <pt x="375" y="1567" on="1"/>
        <pt x="375" y="977" on="1"/>
        <pt x="421" y="1060" on="0"/>
        <pt x="574" y="1147" on="0"/>
        <pt x="674" y="1147" on="1"/>
        <pt x="877" y="1147" on="0"/>
        <pt x="1108" y="833" on="0"/>
        <pt x="1108" y="555" on="1"/>
        <pt x="1108" y="282" on="0"/>
        <pt x="876" y="-29" on="0"/>
        <pt x="674" y="-29" on="1"/>
        <pt x="572" y="-29" on="0"/>
        <pt x="419" y="58" on="0"/>
      </contour>
      <contour>
        <pt x="915" y="559" on="1"/>
        <pt x="915" y="773" on="0"/>
        <pt x="780" y="991" on="0"/>
        <pt x="647" y="991" on="1"/>
        <pt x="513" y="991" on="0"/>
        <pt x="375" y="772" on="0"/>
        <pt x="375" y="559" on="1"/>
        <pt x="375" y="347" on="0"/>
        <pt x="513" y="127" on="0"/>
        <pt x="647" y="127" on="1"/>
        <pt x="780" y="127" on="0"/>
        <pt x="915" y="345" on="0"/>
      </contour>
    </TTGlyph>
    <TTGlyph name="three" xMin="137" yMin="-29" xMax="1079" yMax="1520">
      <contour>
        <pt x="776" y="799" on="1"/>
        <pt x="923" y="760" on="0"/>
        <pt x="1079" y="561" on="0"/>
        <pt x="1079" y="412" on="1"/>
        <pt x="1079" y="206" on="0"/>
        <pt x="802" y="-29" on="0"/>
        <pt x="557" y="-29" on="1"/>
        <pt x="454" y="-29" on="0"/>
        <pt x="240" y="9" on="0"/>
        <pt x="137" y="45" on="1"/>
        <pt x="137" y="246" on="1"/>
        <pt x="239" y="193" on="0"/>
        <pt x="437" y="141" on="0"/>
        <pt x="535" y="141" on="1"/>
        <pt x="701" y="141" on="0"/>
        <pt x="879" y="291" on="0"/>
        <pt x="879" y="432" on="1"/>
        <pt x="879" y="562" on="0"/>
        <pt x="701" y="715" on="0"/>
        <pt x="549" y="715" on="1"/>
        <pt x="395" y="715" on="1"/>
        <pt x="395" y="881" on="1"/>
        <pt x="549" y="881" on="1"/>
        <pt x="688" y="881" on="0"/>
        <pt x="844" y="1003" on="0"/>
        <pt x="844" y="1112" on="1"/>
        <pt x="844" y="1227" on="0"/>
        <pt x="699" y="1350" on="0"/>
        <pt x="565" y="1350" on="1"/>
        <pt x="476" y="1350" on="0"/>
        <pt x="286" y="1310" on="0"/>
        <pt x="182" y="1270" on="1"/>
        <pt x="182" y="1456" on="1"/>
        <pt x="303" y="1488" on="0"/>
        <pt x="492" y="1520" on="0"/>
        <pt x="565" y="1520" on="1"/>
        <pt x="783" y="1520" on="0"/>
        <pt x="1044" y="1301" on="0"/>
        <pt x="1044" y="1120" on="1"/>
        <pt x="1044" y="997" on="0"/>
        <pt x="907" y="833" on="0"/>
      </contour>
    </TTGlyph>
    <TTGlyph name="threequarters" xMin="27" yMin="-270" xMax="1114" yMax="1676">
      <component glyphName="threesuperior" x="-227" y="156" flags="0x4"/>
      <component glyphName="c6477" x="0" y="0" flags="0x4"/>
      <component glyphName="c6478" x="184" y="-938" flags="0x4"/>
    </TTGlyph>
    <TTGlyph name="threesuperior" xMin="326" yMin="653" xMax="924" yMax="1520">
      <contour>
        <pt x="731" y="1120" on="1"/>
        <pt x="825" y="1099" on="0"/>
        <pt x="924" y="991" on="0"/>
        <pt x="924" y="911" on="1"/>
        <pt x="924" y="787" on="0"/>
        <pt x="734" y="653" on="0"/>
        <pt x="557" y="653" on="1"/>
        <pt x="499" y="653" on="0"/>
        <pt x="385" y="674" on="0"/>
        <pt x="326" y="694" on="1"/>
        <pt x="326" y="815" on="1"/>
        <pt x="395" y="788" on="0"/>
        <pt x="508" y="762" on="0"/>
        <pt x="553" y="762" on="1"/>
        <pt x="654" y="762" on="0"/>
        <pt x="772" y="843" on="0"/>
        <pt x="772" y="911" on="1"/>
        <pt x="772" y="985" on="0"/>
        <pt x="662" y="1061" on="0"/>
        <pt x="553" y="1061" on="1"/>
        <pt x="487" y="1061" on="1"/>
        <pt x="487" y="1169" on="1"/>
        <pt x="561" y="1169" on="1"/>
        <pt x="654" y="1169" on="0"/>
        <pt x="752" y="1232" on="0"/>
        <pt x="752" y="1292" on="1"/>
        <pt x="752" y="1348" on="0"/>
        <pt x="656" y="1411" on="0"/>
        <pt x="569" y="1411" on="1"/>
        <pt x="525" y="1411" on="0"/>
        <pt x="413" y="1387" on="0"/>
        <pt x="354" y="1364" on="1"/>
        <pt x="354" y="1485" on="1"/>
        <pt x="423" y="1502" on="0"/>
        <pt x="540" y="1520" on="0"/>
        <pt x="590" y="1520" on="1"/>
        <pt x="735" y="1520" on="0"/>
        <pt x="903" y="1402" on="0"/>
        <pt x="903" y="1303" on="1"/>
        <pt x="903" y="1232" on="0"/>
        <pt x="815" y="1139" on="0"/>
      </contour>
    </TTGlyph>
    <TTGlyph name="tilde" xMin="287" yMin="1309" xMax="946" yMax="1591">
      <contour>
        <pt x="612" y="1370" on="1"/>
        <pt x="555" y="1425" on="1"/>
        <pt x="534" y="1445" on="0"/>
        <pt x="501" y="1464" on="0"/>
        <pt x="487" y="1464" on="1"/>
        <pt x="449" y="1464" on="0"/>
        <pt x="413" y="1390" on="0"/>
        <pt x="411" y="1309" on="1"/>
        <pt x="287" y="1309" on="1"/>
        <pt x="288" y="1443" on="0"/>
        <pt x="390" y="1591" on="0"/>
        <pt x="481" y="1591" on="1"/>
        <pt x="520" y="1591" on="0"/>
        <pt x="584" y="1563" on="0"/>
        <pt x="621" y="1530" on="1"/>
        <pt x="678" y="1475" on="1"/>
        <pt x="699" y="1455" on="0"/>
        <pt x="732" y="1436" on="0"/>
        <pt x="745" y="1436" on="1"/>
        <pt x="784" y="1436" on="0"/>
        <pt x="820" y="1510" on="0"/>
        <pt x="821" y="1591" on="1"/>
        <pt x="946" y="1591" on="1"/>
        <pt x="945" y="1457" on="0"/>
        <pt x="843" y="1309" on="0"/>
        <pt x="752" y="1309" on="1"/>
        <pt x="713" y="1309" on="0"/>
        <pt x="649" y="1337" on="0"/>
      </contour>
    </TTGlyph>
    <TTGlyph name="trademark" xMin="0" yMin="915" xMax="1126" yMax="1493">
      <contour>
        <pt x="438" y="1493" on="1"/>
        <pt x="438" y="1399" on="1"/>
        <pt x="276" y="1399" on="1"/>
        <pt x="276" y="915" on="1"/>
        <pt x="162" y="915" on="1"/>
        <pt x="162" y="1399" on="1"/>
        <pt x="0" y="1399" on="1"/>
        <pt x="0" y="1493" on="1"/>
      </contour>
      <contour>
        <pt x="692" y="1493" on="1"/>
        <pt x="829" y="1237" on="1"/>
        <pt x="954" y="1493" on="1"/>
        <pt x="1126" y="1493" on="1"/>
        <pt x="1126" y="915" on="1"/>
        <pt x="1012" y="915" on="1"/>
        <pt x="1012" y="1397" on="1"/>
        <pt x="856" y="1096" on="1"/>
        <pt x="801" y="1096" on="1"/>
        <pt x="635" y="1397" on="1"/>
        <pt x="635" y="915" on="1"/>
        <pt x="522" y="915" on="1"/>
        <pt x="522" y="1493" on="1"/>
      </contour>
    </TTGlyph>
    <TTGlyph name="two" xMin="152" yMin="0" xMax="1059" yMax="1520">
      <contour>
        <pt x="373" y="170" on="1"/>
        <pt x="1059" y="170" on="1"/>
        <pt x="1059" y="0" on="1"/>
        <pt x="152" y="0" on="1"/>
        <pt x="152" y="170" on="1"/>
        <pt x="339" y="367" on="0"/>
        <pt x="619" y="669" on="0"/>
        <pt x="672" y="731" on="1"/>
        <pt x="772" y="853" on="0"/>
        <pt x="842" y="1004" on="0"/>
        <pt x="842" y="1083" on="1"/>
        <pt x="842" y="1208" on="0"/>
        <pt x="695" y="1350" on="0"/>
        <pt x="567" y="1350" on="1"/>
        <pt x="476" y="1350" on="0"/>
        <pt x="276" y="1284" on="0"/>
        <pt x="164" y="1217" on="1"/>
        <pt x="164" y="1421" on="1"/>
        <pt x="267" y="1470" on="0"/>
        <pt x="466" y="1520" on="0"/>
        <pt x="563" y="1520" on="1"/>
        <pt x="782" y="1520" on="0"/>
        <pt x="1049" y="1287" on="0"/>
        <pt x="1049" y="1098" on="1"/>
        <pt x="1049" y="1002" on="0"/>
        <pt x="960" y="810" on="0"/>
        <pt x="860" y="694" on="1"/>
        <pt x="804" y="629" on="0"/>
        <pt x="591" y="399" on="0"/>
      </contour>
    </TTGlyph>
    <TTGlyph name="twosuperior" xMin="322" yMin="668" xMax="893" yMax="1520">
      <contour>
        <pt x="483" y="782" on="1"/>
        <pt x="893" y="782" on="1"/>
        <pt x="893" y="668" on="1"/>
        <pt x="322" y="668" on="1"/>
        <pt x="322" y="778" on="1"/>
        <pt x="553" y="1004" on="1"/>
        <pt x="654" y="1101" on="0"/>
        <pt x="735" y="1223" on="0"/>
        <pt x="735" y="1274" on="1"/>
        <pt x="735" y="1335" on="0"/>
        <pt x="635" y="1411" on="0"/>
        <pt x="553" y="1411" on="1"/>
        <pt x="504" y="1411" on="0"/>
        <pt x="391" y="1375" on="0"/>
        <pt x="328" y="1339" on="1"/>
        <pt x="328" y="1464" on="1"/>
        <pt x="393" y="1492" on="0"/>
        <pt x="514" y="1520" on="0"/>
        <pt x="573" y="1520" on="1"/>
        <pt x="715" y="1520" on="0"/>
        <pt x="887" y="1387" on="0"/>
        <pt x="887" y="1280" on="1"/>
        <pt x="887" y="1223" on="0"/>
        <pt x="813" y="1104" on="0"/>
        <pt x="694" y="987" on="1"/>
      </contour>
    </TTGlyph>
    <TTGlyph name="u" xMin="195" yMin="-29" xMax="1051" yMax="1118">
      <contour>
        <pt x="195" y="424" on="1"/>
        <pt x="195" y="1118" on="1"/>
        <pt x="379" y="1118" on="1"/>
        <pt x="379" y="424" on="1"/>
        <pt x="379" y="273" on="0"/>
        <pt x="486" y="131" on="0"/>
        <pt x="598" y="131" on="1"/>
        <pt x="728" y="131" on="0"/>
        <pt x="866" y="314" on="0"/>
        <pt x="866" y="485" on="1"/>
        <pt x="866" y="1118" on="1"/>
        <pt x="1051" y="1118" on="1"/>
        <pt x="1051" y="0" on="1"/>
        <pt x="866" y="0" on="1"/>
        <pt x="866" y="168" on="1"/>
        <pt x="817" y="71" on="0"/>
        <pt x="648" y="-29" on="0"/>
        <pt x="535" y="-29" on="1"/>
        <pt x="363" y="-29" on="0"/>
        <pt x="195" y="196" on="0"/>
      </contour>
    </TTGlyph>
    <TTGlyph name="uacute" xMin="195" yMin="-29" xMax="1051" yMax="1638">
      <component glyphName="u" x="0" y="0" flags="0x4"/>
      <component glyphName="acute" x="0" y="0" flags="0x4"/>
    </TTGlyph>
    <TTGlyph name="ucircumflex" xMin="195" yMin="-29" xMax="1051" yMax="1638">
      <component glyphName="u" x="0" y="0" flags="0x4"/>
      <component glyphName="circumflex" x="0" y="0" flags="0x4"/>
    </TTGlyph>
    <TTGlyph name="udieresis" xMin="195" yMin="-29" xMax="1051" yMax="1552">
      <component glyphName="u" x="0" y="0" flags="0x4"/>
      <component glyphName="dieresis" x="0" y="0" flags="0x4"/>
    </TTGlyph>
    <TTGlyph name="ugrave" xMin="195" yMin="-29" xMax="1051" yMax="1638">
      <component glyphName="u" x="0" y="0" flags="0x4"/>
      <component glyphName="grave" x="0" y="0" flags="0x4"/>
    </TTGlyph>
    <TTGlyph name="underscore" xMin="0" yMin="-483" xMax="1024" yMax="-403">
      <contour>
        <pt x="1024" y="-403" on="1"/>
        <pt x="1024" y="-483" on="1"/>
        <pt x="0" y="-483" on="1"/>
        <pt x="0" y="-403" on="1"/>
      </contour>
    </TTGlyph>
    <TTGlyph name="v" xMin="100" yMin="0" xMax="1133" yMax="1120">
      <contour>
        <pt x="100" y="1120" on="1"/>
        <pt x="291" y="1120" on="1"/>
        <pt x="616" y="180" on="1"/>
        <pt x="942" y="1120" on="1"/>
        <pt x="1133" y="1120" on="1"/>
        <pt x="735" y="0" on="1"/>
        <pt x="498" y="0" on="1"/>
      </contour>
    </TTGlyph>
    <TTGlyph name="w" xMin="0" yMin="0" xMax="1233" yMax="1120">
      <contour>
        <pt x="0" y="1120" on="1"/>
        <pt x="182" y="1120" on="1"/>
        <pt x="377" y="215" on="1"/>
        <pt x="537" y="793" on="1"/>
        <pt x="694" y="793" on="1"/>
        <pt x="856" y="215" on="1"/>
        <pt x="1051" y="1120" on="1"/>
        <pt x="1233" y="1120" on="1"/>
        <pt x="971" y="0" on="1"/>
        <pt x="795" y="0" on="1"/>
        <pt x="616" y="614" on="1"/>
        <pt x="438" y="0" on="1"/>
        <pt x="262" y="0" on="1"/>
      </contour>
    </TTGlyph>
    <TTGlyph name="x" xMin="76" yMin="0" xMax="1157" yMax="1120">
      <contour>
        <pt x="1118" y="1120" on="1"/>
        <pt x="717" y="584" on="1"/>
        <pt x="1157" y="0" on="1"/>
        <pt x="944" y="0" on="1"/>
        <pt x="616" y="449" on="1"/>
        <pt x="289" y="0" on="1"/>
        <pt x="76" y="0" on="1"/>
        <pt x="516" y="584" on="1"/>
        <pt x="115" y="1120" on="1"/>
        <pt x="319" y="1120" on="1"/>
        <pt x="616" y="715" on="1"/>
        <pt x="911" y="1120" on="1"/>
      </contour>
    </TTGlyph>
    <TTGlyph name="y" xMin="104" yMin="-426" xMax="1153" yMax="1120">
      <contour>
        <pt x="858" y="360" on="1"/>
        <pt x="812" y="243" on="0"/>
        <pt x="741" y="52" on="1"/>
        <pt x="642" y="-212" on="0"/>
        <pt x="608" y="-270" on="1"/>
        <pt x="562" y="-348" on="0"/>
        <pt x="424" y="-426" on="0"/>
        <pt x="332" y="-426" on="1"/>
        <pt x="184" y="-426" on="1"/>
        <pt x="184" y="-272" on="1"/>
        <pt x="293" y="-272" on="1"/>
        <pt x="374" y="-272" on="0"/>
        <pt x="466" y="-178" on="0"/>
        <pt x="537" y="18" on="1"/>
        <pt x="104" y="1120" on="1"/>
        <pt x="299" y="1120" on="1"/>
        <pt x="631" y="244" on="1"/>
        <pt x="958" y="1120" on="1"/>
        <pt x="1153" y="1120" on="1"/>
      </contour>
    </TTGlyph>
    <TTGlyph name="yacute" xMin="104" yMin="-426" xMax="1153" yMax="1638">
      <component glyphName="y" x="0" y="0" flags="0x4"/>
      <component glyphName="acute" x="0" y="0" flags="0x4"/>
    </TTGlyph>
    <TTGlyph name="ydieresis" xMin="104" yMin="-426" xMax="1153" yMax="1552">
      <component glyphName="y" x="0" y="0" flags="0x4"/>
      <component glyphName="dieresis" x="0" y="0" flags="0x4"/>
    </TTGlyph>
    <TTGlyph name="yen" xMin="37" yMin="0" xMax="1196" yMax="1493">
      <contour>
        <pt x="37" y="1493" on="1"/>
        <pt x="252" y="1493" on="1"/>
        <pt x="616" y="834" on="1"/>
        <pt x="979" y="1493" on="1"/>
        <pt x="1196" y="1493" on="1"/>
        <pt x="866" y="932" on="1"/>
        <pt x="1118" y="932" on="1"/>
        <pt x="1118" y="821" on="1"/>
        <pt x="803" y="821" on="1"/>
        <pt x="717" y="670" on="1"/>
        <pt x="717" y="635" on="1"/>
        <pt x="1118" y="635" on="1"/>
        <pt x="1118" y="524" on="1"/>
        <pt x="717" y="524" on="1"/>
        <pt x="717" y="0" on="1"/>
        <pt x="514" y="0" on="1"/>
        <pt x="514" y="524" on="1"/>
        <pt x="115" y="524" on="1"/>
        <pt x="115" y="635" on="1"/>
        <pt x="514" y="635" on="1"/>
        <pt x="514" y="670" on="1"/>
        <pt x="424" y="821" on="1"/>
        <pt x="115" y="821" on="1"/>
        <pt x="115" y="932" on="1"/>
        <pt x="358" y="932" on="1"/>
      </contour>
    </TTGlyph>
    <TTGlyph name="z" xMin="203" yMin="0" xMax="1040" yMax="1122">
      <contour>
        <pt x="227" y="1122" on="1"/>
        <pt x="1040" y="1122" on="1"/>
        <pt x="1040" y="954" on="1"/>
        <pt x="397" y="150" on="1"/>
        <pt x="1040" y="150" on="1"/>
        <pt x="1040" y="0" on="1"/>
        <pt x="203" y="0" on="1"/>
        <pt x="203" y="170" on="1"/>
        <pt x="846" y="975" on="1"/>
        <pt x="227" y="975" on="1"/>
      </contour>
    </TTGlyph>
    <TTGlyph name="zcaron" xMin="203" yMin="0" xMax="1040" yMax="1638">
      <component glyphName="z" x="0" y="0" flags="0x4"/>
      <component glyphName="caron" x="0" y="0" flags="0x4"/>
    </TTGlyph>
    <TTGlyph name="zero" xMin="133" yMin="-29" xMax="1100" yMax="1520">
      <contour>
        <pt x="483" y="750" on="1"/>
        <pt x="483" y="805" on="0"/>
        <pt x="560" y="885" on="0"/>
        <pt x="614" y="885" on="1"/>
        <pt x="670" y="885" on="0"/>
        <pt x="750" y="805" on="0"/>
        <pt x="750" y="750" on="1"/>
        <pt x="750" y="694" on="0"/>
        <pt x="671" y="616" on="0"/>
        <pt x="614" y="616" on="1"/>
        <pt x="558" y="616" on="0"/>
        <pt x="483" y="692" on="0"/>
      </contour>
      <contour>
        <pt x="616" y="1360" on="1"/>
        <pt x="475" y="1360" on="0"/>
        <pt x="336" y="1056" on="0"/>
        <pt x="336" y="745" on="1"/>
        <pt x="336" y="435" on="0"/>
        <pt x="475" y="131" on="0"/>
        <pt x="616" y="131" on="1"/>
        <pt x="758" y="131" on="0"/>
        <pt x="897" y="435" on="0"/>
        <pt x="897" y="745" on="1"/>
        <pt x="897" y="1056" on="0"/>
        <pt x="758" y="1360" on="0"/>
      </contour>
      <contour>
        <pt x="616" y="1520" on="1"/>
        <pt x="855" y="1520" on="0"/>
        <pt x="1100" y="1128" on="0"/>
        <pt x="1100" y="745" on="1"/>
        <pt x="1100" y="363" on="0"/>
        <pt x="855" y="-29" on="0"/>
        <pt x="616" y="-29" on="1"/>
        <pt x="377" y="-29" on="0"/>
        <pt x="133" y="363" on="0"/>
        <pt x="133" y="745" on="1"/>
        <pt x="133" y="1128" on="0"/>
        <pt x="377" y="1520" on="0"/>
      </contour>
    </TTGlyph>
</ttFont>
